<?xml version="1.0" encoding="UTF-8" standalone="no"?>
<svg
   width="1920"
   height="1080"
   viewBox="0 0 1920 1080"
   version="1.1"
   id="svg56"
   sodipodi:docname="trinity_site_level_layout_level_design_z_index_0.svg"
   inkscape:version="1.1.1 (3bf5ae0d25, 2021-09-20)"
   xmlns:inkscape="http://www.inkscape.org/namespaces/inkscape"
   xmlns:sodipodi="http://sodipodi.sourceforge.net/DTD/sodipodi-0.dtd"
   xmlns="http://www.w3.org/2000/svg"
   xmlns:svg="http://www.w3.org/2000/svg">
  <sodipodi:namedview
     id="namedview58"
     pagecolor="#505050"
     bordercolor="#ffffff"
     borderopacity="1"
     inkscape:pageshadow="0"
     inkscape:pageopacity="0"
     inkscape:pagecheckerboard="1"
     showgrid="false"
     inkscape:zoom="0.1767767"
     inkscape:cx="432.74935"
     inkscape:cy="404.46508"
     inkscape:window-width="1920"
     inkscape:window-height="1007"
     inkscape:window-x="1920"
     inkscape:window-y="44"
     inkscape:window-maximized="1"
     inkscape:current-layer="Group_647" />
  <defs
     id="defs16">
    <filter
       id="Path_319"
       x="824.97302"
       y="298.763"
       width="383.189"
       height="553.19897"
       filterUnits="userSpaceOnUse">
      <feOffset
         dx="5"
         dy="3"
         input="SourceAlpha"
         id="feOffset2" />
      <feGaussianBlur
         stdDeviation="27.5"
         result="blur"
         id="feGaussianBlur4" />
      <feFlood
         flood-color="#fff"
         flood-opacity="0.478"
         id="feFlood6" />
      <feComposite
         operator="in"
         in2="blur"
         id="feComposite8"
         result="result1" />
      <feComposite
         in="SourceGraphic"
         in2="result1"
         id="feComposite10" />
    </filter>
    <clipPath
       id="clip-trinity_site_level_layout-level_design_z-index_-2-version_ct_f_hd_3840_2160_01">
      <rect
         width="3840"
         height="2160"
         id="rect13"
         x="0"
         y="0" />
    </clipPath>
    <clipPath
       id="clip-trinity_site_level_layout-level_design_z-index_-1-version_ct_f_hd_3840_2160">
      <rect
         width="3840"
         height="2160"
         id="rect14"
         x="0"
         y="0" />
    </clipPath>
    <linearGradient
       id="linear-gradient"
       x1="-101.913"
       x2="3144.3159"
       y2="3075.3745"
       gradientUnits="userSpaceOnUse"
       gradientTransform="scale(1.284489,0.77851972)"
       y1="0">
      <stop
         offset="0"
         stop-color="#ef6465"
         id="stop2" />
      <stop
         offset="1"
         stop-color="#1f4ebd"
         id="stop4" />
    </linearGradient>
    <linearGradient
       id="linear-gradient-2"
       x1="53.179485"
       y1="88.838028"
       x2="591.85638"
       y2="625.638"
       gradientUnits="userSpaceOnUse"
       gradientTransform="scale(1.1988537,0.83413016)">
      <stop
         offset="0"
         stop-color="#313131"
         id="stop7" />
      <stop
         offset="0.506"
         stop-color="#181818"
         id="stop9" />
      <stop
         offset="1"
         id="stop11" />
    </linearGradient>
    <clipPath
       id="clip-trinity_site_level_layout-level_design_z-index_-1-version_ct_f_hd_3840_2160-3">
      <rect
         width="3840"
         height="2160"
         id="rect14-6"
         x="0"
         y="0" />
    </clipPath>
    <linearGradient
       id="linear-gradient-2-3"
       x1="53.179485"
       y1="88.838028"
       x2="591.85638"
       y2="625.638"
       gradientUnits="userSpaceOnUse"
       gradientTransform="scale(1.1988537,0.83413016)">
      <stop
         offset="0"
         stop-color="#313131"
         id="stop7-5" />
      <stop
         offset="0.506"
         stop-color="#181818"
         id="stop9-6" />
      <stop
         offset="1"
         id="stop11-2" />
    </linearGradient>
  </defs>
  <g
     id="trinity_site_level_layout-level_design_z-index_-2-version_ct_f_hd_3840_2160_01"
     data-name="trinity_site_level_layout-level_design_z-index_-2-version_ct_f_hd_3840_2160 – 01"
     clip-path="url(#clip-trinity_site_level_layout-level_design_z-index_-2-version_ct_f_hd_3840_2160_01)">
    <g
       id="Group_147"
       data-name="Group 147"
       transform="translate(-189.44,94.431)">
      <g
         id="g947"
         transform="matrix(0.48834173,0,0,0.5316206,121.40423,-167.77657)">
        <g
           id="g3010"
           transform="matrix(1.0079555,0,0,1,-28.371503,189.17003)">
          <path
             id="Subtraction_10"
             data-name="Subtraction 10"
             d="m 1286.533,1705.259 v -0.01 0 0 0 c -1.932,-2.775 -3.8,-5.535 -5.564,-8.2 -0.123,-0.01 -0.244,-0.014 -0.364,-0.023 -0.684,-1.258 -1.362,-2.476 -2.014,-3.621 -2.579,-4 -5.12,-8.107 -7.552,-12.208 -36.198,-54.0329 -96.9627,-86.4498 -162,-86.424 -9.5227,8e-4 -19.0329,0.6906 -28.456,2.064 -72.2784,21.4473 -147.28266,32.3108 -222.676,32.252 C 427.863,1629.085 78,1279.216 78,849.17 78,419.124 427.863,69.252 857.909,69.252 c 75.39134,-0.05645 150.3934,10.807671 222.67,32.254 9.4249,1.37608 18.9372,2.06689 28.462,2.067 16.112,0.005 32.1634,-1.97394 47.792,-5.891 15.3471,-3.859897 30.1652,-9.58027 44.125,-17.034 13.9543,-7.461315 26.9452,-16.598961 38.684,-27.21 11.94,-10.801302 22.5066,-23.029713 31.462,-36.41 3.392,-5.708 7,-11.438 10.721,-17.029 38.785,70.761 69.206,149.317 90.424,233.485 21.3,84.488 32.913,173.028 34.524,263.162 h 0.193 v 730 h -0.4 c -2.521,98.756 -16.967,194.968 -42.932,285.96 -19.6,68.715 -45.545,133.53 -77.1,192.647 z"
             fill="#283655"
             transform="translate(139.32,137.968)"
             sodipodi:nodetypes="ccccscccccccscccccccccccccccc" />
          <path
             id="Subtraction_10-2"
             data-name="Subtraction 10"
             d="m 1286.525,326.262 v 0.009 0 0 0 0 c -1.932,2.775 -3.8,5.535 -5.564,8.2 -0.123,0.006 -0.244,0.014 -0.364,0.023 -0.685,1.259 -1.362,2.477 -2.014,3.622 -2.579,4 -5.12,8.106 -7.552,12.208 -36.1982,54.03257 -96.9629,86.44901 -162,86.423 -9.5224,-7.8e-4 -19.0322,-0.69058 -28.455,-2.064 -72.2786,-21.44604 -147.28285,-32.30818 -222.676,-32.248 -430.045,0 -779.91,349.867 -779.91,779.912 0,430.045 349.87,779.915 779.91,779.915 75.39101,0.056 150.3927,-10.8078 222.669,-32.254 25.424,-3.7135 51.3291,-2.4144 76.254,3.824 30.8112,7.7403 59.2481,22.9338 82.809,44.244 11.9398,10.8015 22.5064,23.0298 31.462,36.41 3.391,5.709 7,11.438 10.721,17.029 38.785,-70.76 69.205,-149.316 90.423,-233.485 21.3,-84.488 32.913,-173.027 34.524,-263.16 h 0.194 v -730 h -0.4 c -2.521,-98.756 -16.967,-194.967 -42.932,-285.959 -19.6,-68.714 -45.545,-133.53 -77.1,-192.646 z"
             fill="#283655"
             transform="rotate(180,2035.4965,1084.7405)"
             sodipodi:nodetypes="cccccscccccccscccccccccccccc" />
          <g
             id="Group_646"
             data-name="Group 646"
             transform="translate(2336.468,137.968)">
            <circle
               id="Ellipse_575"
               data-name="Ellipse 575"
               cx="6.5469999"
               cy="6.5469999"
               transform="translate(1284.833,292.019)"
               fill="#ffffff"
               r="6.5469999" />
            <circle
               id="Ellipse_576"
               data-name="Ellipse 576"
               cx="8.184"
               cy="8.184"
               transform="translate(1016.548,128.332)"
               fill="#ffffff"
               r="8.184" />
            <circle
               id="Ellipse_577"
               data-name="Ellipse 577"
               cx="4.9109998"
               cy="4.9109998"
               transform="translate(948.118,282.198)"
               fill="#ffffff"
               r="4.9109998" />
            <circle
               id="Ellipse_578"
               data-name="Ellipse 578"
               cx="1.637"
               cy="1.637"
               transform="translate(801.677,477.894)"
               fill="#ffffff"
               r="1.637" />
            <circle
               id="Ellipse_579"
               data-name="Ellipse 579"
               cx="4.9109998"
               cy="4.9109998"
               transform="translate(998.019,533.962)"
               fill="#ffffff"
               r="4.9109998" />
            <circle
               id="Ellipse_580"
               data-name="Ellipse 580"
               cx="8.184"
               cy="8.184"
               transform="translate(495.801,213.449)"
               fill="#ffffff"
               r="8.184" />
            <circle
               id="Ellipse_581"
               data-name="Ellipse 581"
               cx="4.9109998"
               cy="4.9109998"
               transform="translate(745.395,105.416)"
               fill="#ffffff"
               r="4.9109998" />
            <circle
               id="Ellipse_582"
               data-name="Ellipse 582"
               cx="4.9109998"
               cy="4.9109998"
               transform="translate(445.99,39.94)"
               fill="#ffffff"
               r="4.9109998" />
            <circle
               id="Ellipse_583"
               data-name="Ellipse 583"
               cx="4.9109998"
               cy="4.9109998"
               transform="translate(371.138,331.304)"
               fill="#ffffff"
               r="4.9109998" />
            <circle
               id="Ellipse_584"
               data-name="Ellipse 584"
               cx="4.9109998"
               cy="4.9109998"
               transform="translate(346.188,540.199)"
               fill="#ffffff"
               r="4.9109998" />
            <circle
               id="Ellipse_585"
               data-name="Ellipse 585"
               cx="1.637"
               cy="1.637"
               transform="translate(567.725,799.192)"
               fill="#ffffff"
               r="1.637" />
            <circle
               id="Ellipse_586"
               data-name="Ellipse 586"
               cx="11.458"
               cy="11.458"
               transform="translate(944.657,727.111)"
               fill="#ffffff"
               r="11.458" />
            <circle
               id="Ellipse_587"
               data-name="Ellipse 587"
               cx="6.5469999"
               cy="6.5469999"
               transform="translate(1272.359,580.701)"
               fill="#ffffff"
               r="6.5469999" />
            <circle
               id="Ellipse_588"
               data-name="Ellipse 588"
               cx="4.9109998"
               cy="4.9109998"
               transform="translate(1452.979,540.199)"
               fill="#ffffff"
               r="4.9109998" />
          </g>
          <g
             id="Group_647"
             data-name="Group 647"
             transform="translate(139.32,137.968)">
            <g
               transform="translate(41.500719,-155.78647)"
               filter="url(#Path_319)"
               id="g36">
              <path
                 id="Path_319-2"
                 data-name="Path 319"
                 d="m 218.189,-2.272 c 0,4.612 -121.462,83.186 -121.462,189.112 0,105.926 90.712,201.412 95.07,199.044 C 85.87,385.884 0,300.014 0,194.087 0,88.16 112.262,-2.272 218.189,-2.272 Z"
                 transform="translate(902.47,380.53)"
                 fill="#ffffff" />
            </g>
            <g
               id="Group_645"
               data-name="Group 645">
              <circle
                 id="Ellipse_575-2"
                 data-name="Ellipse 575"
                 cx="6.5469999"
                 cy="6.5469999"
                 r="6.5469999"
                 transform="translate(436.599,292.019)"
                 fill="#ffffff" />
              <circle
                 id="Ellipse_576-2"
                 data-name="Ellipse 576"
                 cx="8.184"
                 cy="8.184"
                 r="8.184"
                 transform="translate(701.611,128.332)"
                 fill="#ffffff" />
              <circle
                 id="Ellipse_577-2"
                 data-name="Ellipse 577"
                 cx="4.9109998"
                 cy="4.9109998"
                 r="4.9109998"
                 transform="translate(776.589,282.197)"
                 fill="#ffffff" />
              <circle
                 id="Ellipse_578-2"
                 data-name="Ellipse 578"
                 cx="1.637"
                 cy="1.637"
                 r="1.637"
                 transform="translate(929.578,477.896)"
                 fill="#ffffff" />
              <circle
                 id="Ellipse_579-2"
                 data-name="Ellipse 579"
                 cx="4.9109998"
                 cy="4.9109998"
                 r="4.9109998"
                 transform="translate(726.688,533.963)"
                 fill="#ffffff" />
              <circle
                 id="Ellipse_580-2"
                 data-name="Ellipse 580"
                 cx="8.184"
                 cy="8.184"
                 r="8.184"
                 transform="translate(1222.36,213.449)"
                 fill="#ffffff" />
              <circle
                 id="Ellipse_581-2"
                 data-name="Ellipse 581"
                 cx="4.9109998"
                 cy="4.9109998"
                 r="4.9109998"
                 transform="translate(979.313,105.415)"
                 fill="#ffffff" />
              <circle
                 id="Ellipse_582-2"
                 data-name="Ellipse 582"
                 cx="4.9109998"
                 cy="4.9109998"
                 r="4.9109998"
                 transform="translate(1278.72,39.94)"
                 fill="#ffffff" />
              <circle
                 id="Ellipse_583-2"
                 data-name="Ellipse 583"
                 cx="4.9109998"
                 cy="4.9109998"
                 r="4.9109998"
                 transform="translate(1353.572,331.304)"
                 fill="#ffffff" />
              <circle
                 id="Ellipse_584-2"
                 data-name="Ellipse 584"
                 cx="4.9109998"
                 cy="4.9109998"
                 r="4.9109998"
                 transform="translate(1378.522,540.202)"
                 fill="#ffffff" />
              <circle
                 id="Ellipse_585-2"
                 data-name="Ellipse 585"
                 cx="1.637"
                 cy="1.637"
                 r="1.637"
                 transform="translate(1163.532,799.196)"
                 fill="#ffffff" />
              <circle
                 id="Ellipse_586-2"
                 data-name="Ellipse 586"
                 cx="11.458"
                 cy="11.458"
                 r="11.458"
                 transform="translate(766.955,727.114)"
                 fill="#ffffff" />
              <circle
                 id="Ellipse_587-2"
                 data-name="Ellipse 587"
                 cx="6.5469999"
                 cy="6.5469999"
                 r="6.5469999"
                 transform="translate(449.073,580.704)"
                 fill="#ffffff" />
              <circle
                 id="Ellipse_588-2"
                 data-name="Ellipse 588"
                 cx="4.9109998"
                 cy="4.9109998"
                 r="4.9109998"
                 transform="translate(271.724,540.202)"
                 fill="#ffffff" />
            </g>
          </g>
        </g>
      </g>
    </g>
  </g>
</svg>
