<?xml version="1.0" encoding="UTF-8" standalone="no"?>
<svg
   width="5000"
   height="5000"
   viewBox="0 0 5000 5000"
   version="1.1"
   id="svg82"
   sodipodi:docname="trinity_site_level_layout_level_design_z_index_1.svg"
   inkscape:version="1.1.1 (3bf5ae0d25, 2021-09-20)"
   xmlns:inkscape="http://www.inkscape.org/namespaces/inkscape"
   xmlns:sodipodi="http://sodipodi.sourceforge.net/DTD/sodipodi-0.dtd"
   xmlns="http://www.w3.org/2000/svg"
   xmlns:svg="http://www.w3.org/2000/svg">
  <sodipodi:namedview
     id="namedview84"
     pagecolor="#505050"
     bordercolor="#ffffff"
     borderopacity="1"
     inkscape:pageshadow="0"
     inkscape:pageopacity="0"
     inkscape:pagecheckerboard="1"
     showgrid="false"
     inkscape:zoom="0.11313708"
     inkscape:cx="2894.7184"
     inkscape:cy="1993.1572"
     inkscape:window-width="1920"
     inkscape:window-height="1007"
     inkscape:window-x="1920"
     inkscape:window-y="44"
     inkscape:window-maximized="1"
     inkscape:current-layer="svg82" />
  <defs
     id="defs5">
    <clipPath
       id="clip-trinity_site_level_layout-level_design_z-index_-2-version_ct_f_hd_3840_2160_025">
      <rect
         width="8346"
         height="8346"
         id="rect2"
         x="0"
         y="0" />
    </clipPath>
  </defs>
  <g
     id="trinity_site_level_layout-level_design_z-index_-2-version_ct_f_hd_3840_2160_025"
     data-name="trinity_site_level_layout-level_design_z-index_-2-version_ct_f_hd_3840_2160 – 025"
     clip-path="url(#clip-trinity_site_level_layout-level_design_z-index_-2-version_ct_f_hd_3840_2160_025)"
     transform="matrix(0.64651426,0,0,0.64651426,-384.01758,-18.81391)">
    <g
       id="Cloud-Circle">
      <path
         id="Path_347"
         data-name="Path 347"
         d="m 798.09,643.047 c 0,0 51.778,-183.494 287.958,-129.9 236.18,53.594 276.149,-119 276.149,-119 0,0 -59.045,312.484 -343.369,257.981 C 861.677,623.971 798.09,643.047 798.09,643.047 Z"
         transform="matrix(0.996,-0.087,0.087,0.996,2082.797,124.574)"
         fill="#1c2740" />
      <path
         id="Path_348"
         data-name="Path 348"
         d="m 357.582,169.16 c 0,0 -117.792,60.3 -183.7,-53.287 C 107.974,2.286 0,56.977 0,56.977 0,56.977 131.814,-51 193.515,30.333 255.216,111.666 357.582,169.16 357.582,169.16 Z"
         transform="matrix(0.848,-0.53,0.53,0.848,3790.969,744.816)"
         fill="#1c2740" />
      <path
         id="Path_349"
         data-name="Path 349"
         d="m 1007.018,441.385 c 0,0 61.77,-82.664 155.334,-34.519 -1.817,0.001 -155.334,34.519 -155.334,34.519 z"
         transform="translate(2218.56,-42.885)"
         fill="#1c2740" />
      <path
         id="Path_350"
         data-name="Path 350"
         d="m 1128.037,539.73 c 0,0 -30.285,-107.33 -168.427,-75.978 -138.142,31.352 -161.52,-69.6 -161.52,-69.6 0,0 34.536,182.773 200.837,150.894 91.918,-16.473 129.11,-5.316 129.11,-5.316 z"
         transform="translate(3193.56,-116.47)"
         fill="#1c2740" />
      <path
         id="Path_351"
         data-name="Path 351"
         d="m 1007.019,458 c 0,0 82.471,-110.366 207.39,-46.086 -2.426,0.001 -207.39,46.086 -207.39,46.086 z"
         transform="matrix(0.985,0.174,-0.174,0.985,2775.217,-5.956)"
         fill="#1c2740" />
      <path
         id="Path_352"
         data-name="Path 352"
         d="m 1014.286,336.921 c 0,0 -76.3,-39.061 -119,34.519 -42.7,73.58 -112.64,38.152 -112.64,38.152 0,0 85.39,69.946 125.354,17.26 39.964,-52.686 106.286,-89.931 106.286,-89.931 z"
         transform="matrix(0.883,0.469,-0.469,0.883,3053.023,-485.412)"
         fill="#1c2740" />
      <path
         id="Path_353"
         data-name="Path 353"
         d="m 9764.16,7872.038 c 0,0 23.608,-141.657 330.53,-60.71 87.692,37.1 161.894,0 161.894,0 0,0 -67.456,148.4 -313.668,43.846 -107.928,-50.592 -178.756,16.864 -178.756,16.864 z"
         transform="rotate(-8,-47921.685,51981.104)"
         fill="#1c2740" />
      <path
         id="Path_354"
         data-name="Path 354"
         d="m 10165.447,8120.932 c -3.3,-6.055 13.563,-53.273 161.965,-29.664 148.402,23.609 185.5,-23.609 185.5,-23.609 0,0 -107.927,141.655 -347.465,53.273 z"
         transform="translate(-6611,-7646)"
         fill="#1c2740" />
      <path
         id="Path_355"
         data-name="Path 355"
         d="m 9836.578,8492.627 c 0,0 -11.709,-107.929 200.775,-60.71 212.484,47.219 236.094,-57.337 236.094,-57.337 0,0 -30.355,185.5 -293.431,118.047 -91.064,-33.727 -143.438,0 -143.438,0 z"
         transform="translate(-6611,-7646)"
         fill="#1c2740" />
      <path
         id="Path_356"
         data-name="Path 356"
         d="m 0.178,22.76 c 0,0 -18.045,166.327 309.412,93.558 327.457,-72.769 363.842,88.362 363.842,88.362 0,0 -46.781,-285.88 -452.203,-181.92 -140.338,51.976 -221.051,0 -221.051,0 z"
         transform="matrix(-0.891,-0.454,0.454,-0.891,5284.176,835.613)"
         fill="#1c2740" />
      <path
         id="Path_357"
         data-name="Path 357"
         d="m 1007.019,472.977 c 0,0 101.128,-135.333 254.307,-56.512 -2.975,-10e-4 -254.307,56.512 -254.307,56.512 z"
         transform="rotate(36,3212.2121,6520.6843)"
         fill="#1c2740" />
      <path
         id="Path_358"
         data-name="Path 358"
         d="m 1128.037,539.73 c 0,0 -30.285,-107.33 -168.427,-75.978 -138.142,31.352 -161.52,-69.6 -161.52,-69.6 0,0 34.536,182.773 200.837,150.894 91.918,-16.473 129.11,-5.316 129.11,-5.316 z"
         transform="translate(3193.56,-116.47)"
         fill="#1c2740" />
      <path
         id="Path_359"
         data-name="Path 359"
         d="m 10839.118,8123.961 c 6.4,11.745 -26.311,103.343 -314.186,57.544 -287.875,-45.799 -359.845,45.8 -359.845,45.8 0,0 209.366,-274.793 674.031,-103.344 z"
         transform="matrix(0.839,0.545,-0.545,0.839,1318.716,-12095.997)"
         fill="#1c2740" />
      <path
         id="Path_360"
         data-name="Path 360"
         d="m 382.794,17.118 c 0,0 -126.094,-64.549 -196.651,57.044 C 115.586,195.755 0,137.211 0,137.211 c 0,0 141.108,115.589 207.159,28.521 C 273.21,78.664 382.794,17.118 382.794,17.118 Z"
         transform="rotate(-137,2492.9003,-738.43714)"
         fill="#1c2740" />
      <path
         id="Path_361"
         data-name="Path 361"
         d="m 9764.16,7902.853 c 0,0 32.1,-192.6 449.387,-82.541 119.227,50.442 220.11,0 220.11,0 0,0 -91.713,201.767 -426.462,59.613 -146.738,-68.784 -243.035,22.928 -243.035,22.928 z"
         transform="rotate(5,90275.266,-60649.883)"
         fill="#1c2740" />
      <path
         id="Path_362"
         data-name="Path 362"
         d="M 0,0 C 0,0 130.019,174 326.959,72.657 323.135,72.657 0,0 0,0 Z"
         transform="rotate(-17,3435.3526,-14482.008)"
         fill="#1c2740" />
      <path
         id="Path_363"
         data-name="Path 363"
         d="m 798.09,588.263 c 0,0 40.381,-143.106 224.576,-101.308 184.195,41.798 215.367,-92.806 215.367,-92.806 0,0 -46.049,243.7 -267.791,201.2 C 847.681,573.385 798.09,588.263 798.09,588.263 Z"
         transform="matrix(0.996,-0.087,0.087,0.996,3006.596,-255.763)"
         fill="#1c2740" />
      <path
         id="Path_364"
         data-name="Path 364"
         d="m 10243.093,7765.594 c 0,0 67.455,-92.55 212.484,-18.349 47.219,23.609 111.3,-26.982 111.3,-26.982 0,0 -94.437,195.62 -198.993,107.928 -104.556,-87.692 -124.791,-62.597 -124.791,-62.597 z"
         transform="translate(-6645,-7665.025)"
         fill="#1c2740" />
      <path
         id="Path_365"
         data-name="Path 365"
         d="m 1014.286,336.921 c 0,0 -76.3,-39.061 -119,34.519 -42.7,73.58 -112.64,38.152 -112.64,38.152 0,0 85.39,69.946 125.354,17.26 39.964,-52.686 106.286,-89.931 106.286,-89.931 z"
         transform="translate(2124.56,28.431)"
         fill="#1c2740" />
      <path
         id="Path_366"
         data-name="Path 366"
         d="m 10850.731,7889.082 c 0,0 187.6,-109.765 261.439,0 0,49.893 -261.439,0 -261.439,0 z"
         transform="translate(-6611,-7646)"
         fill="#1c2740" />
      <path
         id="Path_367"
         data-name="Path 367"
         d="m 0,34.138 c 0,0 288.8,168.978 402.477,0 0,-76.808 -402.477,0 -402.477,0 z"
         transform="matrix(-0.966,-0.259,0.259,-0.966,5072.906,901.834)"
         fill="#1c2740" />
      <path
         id="Path_368"
         data-name="Path 368"
         d="m 10823.205,8440.988 c -6.745,4.417 111.3,-90.02 236.094,-49.547 6.745,60.71 172.011,49.547 172.011,49.547 0,0 3.373,68.5 -104.556,44.891 -107.929,-23.609 -225.976,-83.035 -303.549,-44.891 z"
         transform="translate(-6611,-7646)"
         fill="#1c2740" />
      <path
         id="Path_369"
         data-name="Path 369"
         d="m 11159.227,8422.405 c 5.559,-3.64 -91.715,74.178 -194.547,40.827 -5.559,-50.026 -141.741,-40.827 -141.741,-40.827 0,0 -2.779,-56.446 86.156,-36.991 88.935,19.455 186.205,68.423 250.132,36.991 z"
         transform="translate(-5917.473,-8241.784)"
         fill="#1c2740" />
      <path
         id="Path_370"
         data-name="Path 370"
         d="m 182.46,86.315 c 0,0 -60.1,30.768 -93.734,-27.19 C 55.092,1.167 0,29.073 0,29.073 c 0,0 67.26,-55.1 98.743,-13.6 31.483,41.5 83.717,70.842 83.717,70.842 z"
         transform="matrix(0.848,-0.53,0.53,0.848,4351.032,103.424)"
         fill="#1c2740" />
      <path
         id="Path_372"
         data-name="Path 372"
         d="m 357.582,169.16 c 0,0 -117.792,60.3 -183.7,-53.287 C 107.974,2.286 0,56.977 0,56.977 0,56.977 131.814,-51 193.515,30.333 255.216,111.666 357.582,169.16 357.582,169.16 Z"
         transform="rotate(2,-28074.655,162624.88)"
         fill="#1c2740" />
      <path
         id="Path_373"
         data-name="Path 373"
         d="m 1007.018,441.385 c 0,0 61.77,-82.664 155.334,-34.519 -1.817,0.001 -155.334,34.519 -155.334,34.519 z"
         transform="rotate(34,3122.6708,7801.5057)"
         fill="#1c2740" />
      <path
         id="Path_374"
         data-name="Path 374"
         d="m 329.947,9.047 c 0,0 -30.285,107.326 -168.427,75.978 C 23.378,53.677 0,154.627 0,154.627 c 0,0 34.535,-182.773 200.837,-150.893 91.918,16.466 129.11,5.313 129.11,5.313 z"
         transform="rotate(-133,3386.3446,-776.53264)"
         fill="#1c2740" />
      <path
         id="Path_375"
         data-name="Path 375"
         d="m 1007.019,482.527 c 0,0 91.408,-151.256 229.863,-63.161 -2.689,0 -229.863,63.161 -229.863,63.161 z"
         transform="matrix(0.719,0.695,-0.695,0.719,5114.785,-185.043)"
         fill="#1c2740" />
      <path
         id="Path_376"
         data-name="Path 376"
         d="m 1014.286,336.921 c 0,0 -76.3,-39.061 -119,34.519 -42.7,73.58 -112.64,38.152 -112.64,38.152 0,0 85.39,69.946 125.354,17.26 39.964,-52.686 106.286,-89.931 106.286,-89.931 z"
         transform="rotate(62,3139.9772,4801.6018)"
         fill="#1c2740" />
      <path
         id="Path_378"
         data-name="Path 378"
         d="m 10165.486,8165.219 c -3.665,-11.088 15.061,-97.561 179.839,-54.324 164.778,43.237 205.973,-43.236 205.973,-43.236 0,0 -119.839,259.416 -385.812,97.56 z"
         transform="rotate(34,20064.32,-2987.0475)"
         fill="#1c2740" />
      <path
         id="Path_379"
         data-name="Path 379"
         d="m 9836.578,8541.124 c 0,0 -11.709,-152.269 200.775,-85.651 212.484,66.618 236.094,-80.893 236.094,-80.893 0,0 -30.355,261.713 -293.431,166.544 -91.064,-47.584 -143.438,0 -143.438,0 z"
         transform="rotate(34,20021.512,-2835.8143)"
         fill="#1c2740" />
      <path
         id="Path_380"
         data-name="Path 380"
         d="m 0.178,22.76 c 0,0 -18.045,166.327 309.412,93.558 327.457,-72.769 363.842,88.362 363.842,88.362 0,0 -46.781,-285.88 -452.203,-181.92 -140.338,51.976 -221.051,0 -221.051,0 z"
         transform="rotate(-119,4097.51,-1032.8085)"
         fill="#1c2740" />
      <path
         id="Path_381"
         data-name="Path 381"
         d="m 1007.019,472.977 c 0,0 101.128,-135.333 254.307,-56.512 -2.975,-10e-4 -254.307,56.512 -254.307,56.512 z"
         transform="matrix(0.342,0.94,-0.94,0.342,7119.348,356.053)"
         fill="#1c2740" />
      <path
         id="Path_382"
         data-name="Path 382"
         d="m 1034.283,530.408 c 0,0 -21.68,-100.454 -120.569,-71.113 -98.889,29.341 -115.624,-65.146 -115.624,-65.146 0,0 24.722,171.069 143.77,141.232 65.799,-15.416 92.423,-4.973 92.423,-4.973 z"
         transform="rotate(34,2505.9889,9064.5661)"
         fill="#1c2740" />
      <path
         id="Path_383"
         data-name="Path 383"
         d="m 10839.118,8123.961 c 6.4,11.745 -26.311,103.343 -314.186,57.544 -287.875,-45.799 -359.845,45.8 -359.845,45.8 0,0 209.366,-274.793 674.031,-103.344 z"
         transform="matrix(0.391,0.921,-0.921,0.391,10874.086,-10984.913)"
         fill="#1c2740" />
      <path
         id="Path_384"
         data-name="Path 384"
         d="m 382.794,17.118 c 0,0 -126.094,-64.549 -196.651,57.044 C 115.586,195.755 0,137.211 0,137.211 c 0,0 141.108,115.589 207.159,28.521 C 273.21,78.664 382.794,17.118 382.794,17.118 Z"
         transform="rotate(-103,3992.5045,-1994.2437)"
         fill="#1c2740" />
      <path
         id="Path_385"
         data-name="Path 385"
         d="m 9764.16,7902.853 c 0,0 32.1,-192.6 449.387,-82.541 119.227,50.442 220.11,0 220.11,0 0,0 -91.713,201.767 -426.462,59.613 -146.738,-68.784 -243.035,22.928 -243.035,22.928 z"
         transform="matrix(0.777,0.629,-0.629,0.777,3505.131,-11075.388)"
         fill="#1c2740" />
      <path
         id="Path_386"
         data-name="Path 386"
         d="M 0,0 C 0,0 130.019,174 326.959,72.657 323.135,72.657 0,0 0,0 Z"
         transform="rotate(17,-638.26986,22329.843)"
         fill="#1c2740" />
      <path
         id="Path_387"
         data-name="Path 387"
         d="m 798.09,588.263 c 0,0 40.381,-143.106 224.576,-101.308 184.195,41.798 215.367,-92.806 215.367,-92.806 0,0 -46.049,243.7 -267.791,201.2 C 847.681,573.385 798.09,588.263 798.09,588.263 Z"
         transform="matrix(0.875,0.485,-0.485,0.875,5709.428,-128.159)"
         fill="#1c2740" />
      <path
         id="Path_388"
         data-name="Path 388"
         d="m 10243.093,7765.594 c 0,0 67.455,-92.55 212.484,-18.349 47.219,23.609 111.3,-26.982 111.3,-26.982 0,0 -94.437,195.62 -198.993,107.928 -104.556,-87.692 -124.791,-62.597 -124.791,-62.597 z"
         transform="rotate(34,20007.408,-2806.5735)"
         fill="#1c2740" />
      <path
         id="Path_389"
         data-name="Path 389"
         d="m 1097.626,340.689 c 0,0 -103.758,-53.269 -161.813,47.075 -58.055,100.344 -153.166,52.03 -153.166,52.03 0,0 116.11,95.389 170.459,23.537 54.349,-71.852 144.52,-122.642 144.52,-122.642 z"
         transform="matrix(0.454,0.891,-0.891,0.454,5359.77,-413.083)"
         fill="#1c2740" />
      <path
         id="Path_390"
         data-name="Path 390"
         d="m 10850.731,7889.082 c 0,0 187.6,-109.765 261.439,0 0,49.893 -261.439,0 -261.439,0 z"
         transform="rotate(34,19959.295,-2760.483)"
         fill="#1c2740" />
      <path
         id="Path_391"
         data-name="Path 391"
         d="m 0,34.138 c 0,0 288.8,168.978 402.477,0 0,-76.808 -402.477,0 -402.477,0 z"
         transform="rotate(-131,3840.3416,-550.30924)"
         fill="#1c2740" />
      <path
         id="Path_392"
         data-name="Path 392"
         d="m 10823.205,8440.988 c -6.745,4.417 111.3,-90.02 236.094,-49.547 6.745,60.71 172.011,49.547 172.011,49.547 0,0 3.373,68.5 -104.556,44.891 -107.929,-23.609 -225.976,-83.035 -303.549,-44.891 z"
         transform="rotate(34,19959.295,-2760.483)"
         fill="#1c2740" />
      <path
         id="Path_393"
         data-name="Path 393"
         d="m 11159.227,8422.405 c 5.559,-3.64 -91.715,74.178 -194.547,40.827 -5.559,-50.026 -141.741,-40.827 -141.741,-40.827 0,0 -2.779,-56.446 86.156,-36.991 88.935,19.455 186.205,68.423 250.132,36.991 z"
         transform="rotate(34,20586.891,-1328.3768)"
         fill="#1c2740" />
      <path
         id="Path_394"
         data-name="Path 394"
         d="m 182.46,86.315 c 0,0 -60.1,30.768 -93.734,-27.19 C 55.092,1.167 0,29.073 0,29.073 c 0,0 67.26,-55.1 98.743,-13.6 31.483,41.5 83.717,70.842 83.717,70.842 z"
         transform="rotate(2,-23082.478,190181)"
         fill="#1c2740" />
      <path
         id="Path_395"
         data-name="Path 395"
         d="m 798.09,643.047 c 0,0 51.778,-183.494 287.958,-129.9 236.18,53.594 276.149,-119 276.149,-119 0,0 -59.045,312.484 -343.369,257.981 C 861.677,623.971 798.09,643.047 798.09,643.047 Z"
         transform="rotate(72,2940.9389,5922.4064)"
         fill="#1c2740" />
      <path
         id="Path_396"
         data-name="Path 396"
         d="m 357.582,169.16 c 0,0 -117.792,60.3 -183.7,-53.287 C 107.974,2.286 0,56.977 0,56.977 0,56.977 131.814,-51 193.515,30.333 255.216,111.666 357.582,169.16 357.582,169.16 Z"
         transform="rotate(45,-18.767422,10536.015)"
         fill="#1c2740" />
      <path
         id="Path_397"
         data-name="Path 397"
         d="m 1007.018,441.385 c 0,0 61.77,-82.664 155.334,-34.519 -1.817,0.001 -155.334,34.519 -155.334,34.519 z"
         transform="rotate(77,3055.5246,5634.6219)"
         fill="#1c2740" />
      <path
         id="Path_398"
         data-name="Path 398"
         d="m 1128.037,539.73 c 0,0 -30.285,-107.33 -168.427,-75.978 -138.142,31.352 -161.52,-69.6 -161.52,-69.6 0,0 34.536,182.773 200.837,150.894 91.918,-16.473 129.11,-5.316 129.11,-5.316 z"
         transform="rotate(77,2614.2789,6284.2858)"
         fill="#1c2740" />
      <path
         id="Path_399"
         data-name="Path 399"
         d="m 1007.019,458 c 0,0 82.471,-110.366 207.39,-46.086 -2.426,0.001 -207.39,46.086 -207.39,46.086 z"
         transform="matrix(0.052,0.999,-0.999,0.052,7947.626,1940.593)"
         fill="#1c2740" />
      <path
         id="Path_400"
         data-name="Path 400"
         d="m 1014.286,336.921 c 0,0 -76.3,-39.061 -119,34.519 -42.7,73.58 -112.64,38.152 -112.64,38.152 0,0 85.39,69.946 125.354,17.26 39.964,-52.686 106.286,-89.931 106.286,-89.931 z"
         transform="matrix(-0.259,0.966,-0.966,-0.259,8477.289,2103.426)"
         fill="#1c2740" />
      <path
         id="Path_401"
         data-name="Path 401"
         d="m 9764.16,7872.038 c 0,0 23.608,-141.657 330.53,-60.71 87.692,37.1 161.894,0 161.894,0 0,0 -67.456,148.4 -313.668,43.846 -107.928,-50.592 -178.756,16.864 -178.756,16.864 z"
         transform="rotate(69,12817.291,3606.3525)"
         fill="#1c2740" />
      <path
         id="Path_402"
         data-name="Path 402"
         d="m 10165.447,8120.932 c -3.3,-6.055 13.563,-53.273 161.965,-29.664 148.402,23.609 185.5,-23.609 185.5,-23.609 0,0 -107.927,141.655 -347.465,53.273 z"
         transform="rotate(77,12249.517,3886.0418)"
         fill="#1c2740" />
      <path
         id="Path_403"
         data-name="Path 403"
         d="m 9836.539,8465.664 c 0,0 -7.779,-83.277 133.4,-46.844 141.179,36.433 156.868,-44.24 156.868,-44.24 0,0 -20.169,143.133 -194.965,91.084 -60.504,-26.023 -95.303,0 -95.303,0 z"
         transform="rotate(77,12582.174,3528.9025)"
         fill="#1c2740" />
      <path
         id="Path_404"
         data-name="Path 404"
         d="m 0.178,22.76 c 0,0 -18.045,166.327 309.412,93.558 327.457,-72.769 363.842,88.362 363.842,88.362 0,0 -46.781,-285.88 -452.203,-181.92 -140.338,51.976 -221.051,0 -221.051,0 z"
         transform="rotate(-76,6773.596,-2635.3885)"
         fill="#1c2740" />
      <path
         id="Path_405"
         data-name="Path 405"
         d="m 1007.019,472.977 c 0,0 101.128,-135.333 254.307,-56.512 -2.975,-10e-4 -254.307,56.512 -254.307,56.512 z"
         transform="rotate(113,3338.3414,4672.7224)"
         fill="#1c2740" />
      <path
         id="Path_406"
         data-name="Path 406"
         d="m 1128.037,539.73 c 0,0 -30.285,-107.33 -168.427,-75.978 -138.142,31.352 -161.52,-69.6 -161.52,-69.6 0,0 34.536,182.773 200.837,150.894 91.918,-16.473 129.11,-5.316 129.11,-5.316 z"
         transform="rotate(77,2614.2789,6284.2858)"
         fill="#1c2740" />
      <path
         id="Path_408"
         data-name="Path 408"
         d="m 382.794,17.118 c 0,0 -126.094,-64.549 -196.651,57.044 C 115.586,195.755 0,137.211 0,137.211 c 0,0 141.108,115.589 207.159,28.521 C 273.21,78.664 382.794,17.118 382.794,17.118 Z"
         transform="rotate(-60,7484.5477,-4905.8689)"
         fill="#1c2740" />
      <path
         id="Path_409"
         data-name="Path 409"
         d="m 9764.16,7902.853 c 0,0 32.1,-192.6 449.387,-82.541 119.227,50.442 220.11,0 220.11,0 0,0 -91.713,201.767 -426.462,59.613 -146.738,-68.784 -243.035,22.928 -243.035,22.928 z"
         transform="rotate(82,11304.708,4408.4549)"
         fill="#1c2740" />
      <path
         id="Path_410"
         data-name="Path 410"
         d="M 0,0 C 0,0 130.019,174 326.959,72.657 323.135,72.657 0,0 0,0 Z"
         transform="rotate(60,858.95049,8674.3619)"
         fill="#1c2740" />
      <path
         id="Path_411"
         data-name="Path 411"
         d="m 798.09,588.263 c 0,0 40.381,-143.106 224.576,-101.308 184.195,41.798 215.367,-92.806 215.367,-92.806 0,0 -46.049,243.7 -267.791,201.2 C 847.681,573.385 798.09,588.263 798.09,588.263 Z"
         transform="rotate(72,2669.5617,6727.7371)"
         fill="#1c2740" />
      <path
         id="Path_412"
         data-name="Path 412"
         d="m 10243.093,7765.594 c 0,0 67.455,-92.55 212.484,-18.349 47.219,23.609 111.3,-26.982 111.3,-26.982 0,0 -94.437,195.62 -198.993,107.928 -104.556,-87.692 -124.791,-62.597 -124.791,-62.597 z"
         transform="rotate(77,12278.476,3874.1825)"
         fill="#1c2740" />
      <path
         id="Path_413"
         data-name="Path 413"
         d="m 1014.286,336.921 c 0,0 -76.3,-39.061 -119,34.519 -42.7,73.58 -112.64,38.152 -112.64,38.152 0,0 85.39,69.946 125.354,17.26 39.964,-52.686 106.286,-89.931 106.286,-89.931 z"
         transform="rotate(77,3057.6954,5539.8771)"
         fill="#1c2740" />
      <path
         id="Path_414"
         data-name="Path 414"
         d="m 10850.731,7889.082 c 0,0 187.6,-109.765 261.439,0 0,49.893 -261.439,0 -261.439,0 z"
         transform="rotate(77,12249.517,3886.0418)"
         fill="#1c2740" />
      <path
         id="Path_415"
         data-name="Path 415"
         d="m 0,34.138 c 0,0 288.8,168.978 402.477,0 0,-76.808 -402.477,0 -402.477,0 z"
         transform="rotate(-88,6059.6619,-1732.8439)"
         fill="#1c2740" />
      <path
         id="Path_416"
         data-name="Path 416"
         d="m 10823.205,8440.988 c -6.745,4.417 111.3,-90.02 236.094,-49.547 6.745,60.71 172.011,49.547 172.011,49.547 0,0 3.373,68.5 -104.556,44.891 -107.929,-23.609 -225.976,-83.035 -303.549,-44.891 z"
         transform="rotate(77,12249.517,3886.0418)"
         fill="#1c2740" />
      <path
         id="Path_417"
         data-name="Path 417"
         d="m 11159.227,8422.405 c 5.559,-3.64 -91.715,74.178 -194.547,40.827 -5.559,-50.026 -141.741,-40.827 -141.741,-40.827 0,0 -2.779,-56.446 86.156,-36.991 88.935,19.455 186.205,68.423 250.132,36.991 z"
         transform="rotate(77,12277.256,4619.874)"
         fill="#1c2740" />
      <path
         id="Path_418"
         data-name="Path 418"
         d="m 182.46,86.315 c 0,0 -60.1,30.768 -93.734,-27.19 C 55.092,1.167 0,29.073 0,29.073 c 0,0 67.26,-55.1 98.743,-13.6 31.483,41.5 83.717,70.842 83.717,70.842 z"
         transform="rotate(45,-127.86509,11643.195)"
         fill="#1c2740" />
      <path
         id="Path_421"
         data-name="Path 421"
         d="m 1014.286,336.921 c 0,0 -76.3,-39.061 -119,34.519 -42.7,73.58 -112.64,38.152 -112.64,38.152 0,0 85.39,69.946 125.354,17.26 39.964,-52.686 106.286,-89.931 106.286,-89.931 z"
         transform="matrix(-0.259,0.966,-0.966,-0.259,7919.572,1098.309)"
         fill="#1c2740" />
      <path
         id="Path_422"
         data-name="Path 422"
         d="m 10243.093,7772.147 c 0,0 96.146,-105.41 302.86,-20.9 67.3,26.89 158.641,-30.731 158.641,-30.731 0,0 -134.6,222.8 -283.631,122.926 -149.031,-99.874 -177.87,-71.295 -177.87,-71.295 z"
         transform="rotate(77,12194.743,2918.4493)"
         fill="#1c2740" />
      <path
         id="Path_423"
         data-name="Path 423"
         d="m 9836.578,8492.627 c 0,0 -11.709,-107.929 200.775,-60.71 212.484,47.219 236.094,-57.337 236.094,-57.337 0,0 -30.355,185.5 -293.431,118.047 -91.064,-33.727 -143.438,0 -143.438,0 z"
         transform="rotate(77,12249.517,3886.0418)"
         fill="#1c2740" />
      <path
         id="Path_424"
         data-name="Path 424"
         d="m 1007.018,493.692 c 0,0 64.683,-169.871 162.66,-70.935 -1.902,10e-4 -162.66,70.935 -162.66,70.935 z"
         transform="rotate(77,2935.3001,4925.0638)"
         fill="#1c2740" />
    </g>
  </g>
</svg>
