<?xml version="1.0" encoding="UTF-8" standalone="no"?>
<svg
   width="5760"
   height="5760"
   viewBox="0 0 5760 5760"
   version="1.1"
   id="svg82"
   sodipodi:docname="trinity_site_level_layout_level_design_z_index_1.svg"
   inkscape:version="1.1.1 (3bf5ae0d25, 2021-09-20)"
   xmlns:inkscape="http://www.inkscape.org/namespaces/inkscape"
   xmlns:sodipodi="http://sodipodi.sourceforge.net/DTD/sodipodi-0.dtd"
   xmlns="http://www.w3.org/2000/svg"
   xmlns:svg="http://www.w3.org/2000/svg">
  <sodipodi:namedview
     id="namedview84"
     pagecolor="#505050"
     bordercolor="#ffffff"
     borderopacity="1"
     inkscape:pageshadow="0"
     inkscape:pageopacity="0"
     inkscape:pagecheckerboard="1"
     showgrid="false"
     inkscape:zoom="0.90509664"
     inkscape:cx="2814.6166"
     inkscape:cy="239.20098"
     inkscape:window-width="1920"
     inkscape:window-height="1007"
     inkscape:window-x="1920"
     inkscape:window-y="44"
     inkscape:window-maximized="1"
     inkscape:current-layer="svg82"
     inkscape:snap-global="false" />
  <defs
     id="defs5">
    <clipPath
       id="clip-trinity_site_level_layout-level_design_z-index_-2-version_ct_f_hd_3840_2160_025">
      <rect
         width="8346"
         height="8346"
         id="rect2"
         x="0"
         y="0" />
    </clipPath>
    <clipPath
       id="clip-trinity_site_level_layout-level_design_z-index_-2-version_ct_f_hd_3840_2160_025-3">
      <rect
         width="8346"
         height="8346"
         id="rect2-6"
         x="0"
         y="0" />
    </clipPath>
  </defs>
  <path
     id="Path_347"
     data-name="Path 347"
     d="m 2469.7967,179.4861 c 0,0 23.4137,-104.80391 157.9039,-82.00704 134.4901,22.79687 151.6015,-75.50988 151.6015,-75.50988 0,0 -23.4899,177.5717 -185.0836,155.76055 -89.2546,-10.94876 -124.4218,1.75637 -124.4218,1.75637 z"
     fill="#1c2740"
     style="stroke-width:0.563242" />
  <path
     id="Path_348"
     data-name="Path 348"
     d="m 3265.7072,434.45497 c 0,0 -40.289,62.72445 -104.5538,26.07138 -64.2648,-36.65306 -101.3608,20.55936 -101.3608,20.55936 0,0 33.6161,-89.91444 86.6979,-67.77793 53.0818,22.1365 119.2167,21.14719 119.2167,21.14719 z"
     fill="#1c2740"
     style="stroke-width:0.56336" />
  <path
     id="Path_349"
     data-name="Path 349"
     d="m 2845.3605,258.53795 c 0,0 36.2662,-45.43606 88.0845,-16.64592 -1.0231,-0.0321 -88.0845,16.64592 -88.0845,16.64592 z"
     fill="#1c2740"
     style="stroke-width:0.563359" />
  <path
     id="Path_351"
     data-name="Path 351"
     d="m 3046.1222,354.27918 c 0,0 58.2491,-51.32735 119.7065,-1.42734 -1.338,-0.28007 -119.7065,1.42734 -119.7065,1.42734 z"
     fill="#1c2740"
     style="stroke-width:0.5635" />
  <path
     id="Path_352"
     data-name="Path 352"
     d="m 3155.1974,164.16414 c 0,0 -26.358,-40.45155 -67.8267,-16.44174 -41.4687,24.0098 -65.7352,-12.88562 -65.7352,-12.88562 0,0 22.1548,58.09183 56.4371,43.5284 34.2823,-14.56345 77.1248,-14.20104 77.1248,-14.20104 z"
     fill="#1c2740"
     style="stroke-width:0.56326" />
  <path
     id="Path_353"
     data-name="Path 353"
     d="m 2788.6131,139.95597 c 0,0 4.5895,-79.855206 179.3927,-53.411845 50.7805,15.292285 89.6474,-9.695213 89.6474,-9.695213 0,0 -28.466,86.214968 -171.0653,43.063738 -62.794,-21.551509 -97.9748,20.04332 -97.9748,20.04332 z"
     fill="#1c2740"
     style="stroke-width:0.556971" />
  <path
     id="Path_354"
     data-name="Path 354"
     d="m 3001.039,245.60841 c -1.7493,-3.46869 8.5941,-29.7529 91.7311,-13.79307 83.1369,15.95982 104.8741,-9.96083 104.8741,-9.96083 0,0 -63.3157,77.82301 -196.6052,23.7539 z"
     fill="#1c2740"
     style="stroke-width:0.563359" />
  <path
     id="Path_355"
     data-name="Path 355"
     d="m 2786.9623,452.22419 c 0,0 -4.6539,-60.98224 114.1417,-30.57695 118.7956,30.40529 133.9682,-28.04315 133.9682,-28.04315 0,0 -20.4248,103.90461 -167.3438,61.19716 -50.6698,-20.62684 -80.7661,-2.57706 -80.7661,-2.57706 z"
     fill="#1c2740"
     style="stroke-width:0.563359" />
  <path
     id="Path_356"
     data-name="Path 356"
     d="m 3991.8139,421.21877 c 0,0 54.0876,-77.1874 -127.2931,-130.22432 -181.3807,-53.03692 -155.568,-142.44541 -155.568,-142.44541 0,0 -54.569,153.80124 173.7634,212.62277 83.3815,12.46955 109.0977,60.04696 109.0977,60.04696 z"
     fill="#1c2740"
     style="stroke-width:0.563358" />
  <path
     id="Path_357"
     data-name="Path 357"
     d="m 3830.4485,183.18276 c 0,0 91.7571,-25.27999 132.6852,62.71687 -1.3234,-1.02831 -132.6852,-62.71687 -132.6852,-62.71687 z"
     fill="#1c2740"
     style="stroke-width:0.563359" />
  <path
     id="Path_358"
     data-name="Path 358"
     d="m 3480.4938,317.93048 c 0,0 -15.1243,-60.9787 -93.4715,-45.80715 -78.3473,15.17155 -89.6971,-42.09178 -89.6971,-42.09178 0,0 16.1625,103.53497 110.3748,88.5726 52.0525,-7.62407 72.7938,-0.67367 72.7938,-0.67367 z"
     fill="#1c2740"
     style="stroke-width:0.563359" />
  <path
     id="Path_359"
     data-name="Path 359"
     d="m 3950.6307,744.12283 c -0.8205,7.49401 -45.4433,39.3384 -163.877,-74.53031 -118.4336,-113.8687 -181.2189,-94.66323 -181.2189,-94.66323 0,0 185.3273,-59.72143 345.0959,169.19354 z"
     fill="#1c2740"
     style="stroke-width:0.563626" />
  <path
     id="Path_360"
     data-name="Path 360"
     d="m 3590.7809,71.97545 c 0,0 24.7452,75.86948 101.2276,55.30875 76.4824,-20.56074 99.4141,48.73613 99.4141,48.73613 0,0 -10.4733,-102.2255 -71.4436,-93.669728 -60.9703,8.555772 -129.1981,-10.375152 -129.1981,-10.375152 z"
     fill="#1c2740"
     style="stroke-width:0.563359" />
  <path
     id="Path_361"
     data-name="Path 361"
     d="m 3280.5418,407.70427 c 0,0 30.8546,-105.5837 256.8989,-16.07368 63.3131,36.20043 123.1217,14.74142 123.1217,14.74142 0,0 -64.8139,106.71893 -242.54,4.78394 -77.4733,-48.30278 -137.4806,-3.45168 -137.4806,-3.45168 z"
     fill="#1c2740"
     style="stroke-width:0.563359" />
  <path
     id="Path_362"
     data-name="Path 362"
     d="m 3492.6283,194.83607 c 0,0 96.3496,75.43693 188.4876,-8.70334 -2.0791,0.56383 -188.4876,8.70334 -188.4876,8.70334 z"
     fill="#1c2740"
     style="stroke-width:0.563359" />
  <path
     id="Path_363"
     data-name="Path 363"
     d="m 3197.6442,221.85451 c 0,0 18.26,-81.73601 123.1478,-63.95665 104.8878,17.77936 118.2333,-58.888928 118.2333,-58.888928 0,0 -18.3199,138.484648 -144.3454,121.477928 -69.6092,-8.54142 -97.0357,1.36765 -97.0357,1.36765 z"
     fill="#1c2740"
     style="stroke-width:0.563242" />
  <path
     id="Path_364"
     data-name="Path 364"
     d="m 3095.1532,73.098922 c 0,0 39.6449,-50.900457 119.9736,-6.514259 26.1636,14.141935 63.1548,-13.193174 63.1548,-13.193174 0,0 -56.6894,108.451581 -113.9866,57.196131 -57.2971,-51.255458 -69.1418,-37.488698 -69.1418,-37.488698 z"
     fill="#1c2740"
     style="stroke-width:0.563359" />
  <path
     id="Path_365"
     data-name="Path 365"
     d="m 2943.3213,312.97753 c 0,0 -42.2607,-23.36501 -67.6258,17.29871 -25.3652,40.66373 -64.1099,19.45862 -64.1099,19.45862 0,0 46.824,40.91883 70.2733,11.97079 23.4492,-28.94804 61.4624,-48.72812 61.4624,-48.72812 z"
     fill="#1c2740"
     style="stroke-width:0.563359" />
  <path
     id="Path_366"
     data-name="Path 366"
     d="m 3413.5695,119.87203 c 0,0 107.6045,-58.435189 147.2091,4.6971 -0.8964,28.09339 -147.2091,-4.6971 -147.2091,-4.6971 z"
     fill="#1c2740"
     style="stroke-width:0.563359" />
  <path
     id="Path_367"
     data-name="Path 367"
     d="m 3876.4431,487.3566 c 0,0 -128.1668,-138.25525 -217.0456,-65.68075 -12.5345,41.42063 217.0456,65.68075 217.0456,65.68075 z"
     fill="#1c2740"
     style="stroke-width:0.563426" />
  <path
     id="Path_368"
     data-name="Path 368"
     d="m 3387.2174,508.89061 c -3.8773,2.36591 64.2873,-48.68814 133.8283,-23.65681 2.7072,34.30532 95.9644,30.98897 95.9644,30.98897 0,0 0.6686,38.63108 -59.6791,23.3984 -60.3477,-15.23266 -125.7491,-50.8147 -170.1136,-30.73056 z"
     fill="#1c2740"
     style="stroke-width:0.563359" />
  <path
     id="Path_369"
     data-name="Path 369"
     d="m 3700.4801,285.66845 c 3.1956,-1.94971 -52.9749,40.11982 -110.2776,19.49326 -2.2313,-28.26814 -79.077,-25.53513 -79.077,-25.53513 0,0 -0.5506,-31.83313 49.1767,-19.28071 49.7273,12.55241 103.6176,41.87254 140.1779,25.32258 z"
     fill="#1c2740"
     style="stroke-width:0.563359" />
  <path
     id="Path_370"
     data-name="Path 370"
     d="m 3592.0524,33.598745 c 0,0 -20.5559,32.004158 -53.3492,13.303076 -32.7934,-18.701082 -51.7208,10.491029 -51.7208,10.491029 0,0 17.1522,-45.881694 44.2372,-34.586638 27.085,11.295056 60.8328,10.792533 60.8328,10.792533 z"
     fill="#1c2740"
     style="stroke-width:0.56336" />
  <path
     id="Path_372"
     data-name="Path 372"
     d="m 4392.0173,724.49601 c 0,0 -68.479,29.46507 -101.2544,-36.86105 -32.7755,-66.32611 -95.5247,-39.64466 -95.5247,-39.64466 0,0 78.1537,-55.73712 109.7773,-7.69927 31.6237,48.03784 87.0018,84.20498 87.0018,84.20498 z"
     fill="#1c2740"
     style="stroke-width:0.563359" />
  <path
     id="Path_373"
     data-name="Path 373"
     d="m 4109.5177,296.26292 c 0,0 55.4735,-17.38841 82.3336,35.45615 -0.8302,-0.59872 -82.3336,-35.45615 -82.3336,-35.45615 z"
     fill="#1c2740"
     style="stroke-width:0.563359" />
  <path
     id="Path_374"
     data-name="Path 374"
     d="m 4418.0423,535.16164 c 0,0 56.7444,-26.96191 94.6845,43.24454 37.9399,70.20644 89.419,42.68026 89.419,42.68026 0,0 -90.3146,53.14107 -138.4728,-29.20417 -27.1076,-45.08542 -45.6307,-56.72063 -45.6307,-56.72063 z"
     fill="#1c2740"
     style="stroke-width:0.563359" />
  <path
     id="Path_375"
     data-name="Path 375"
     d="m 4114.0337,490.94437 c 0,0 97.0109,-22.39521 115.7227,68.14086 -1.055,-1.08703 -115.7227,-68.14086 -115.7227,-68.14086 z"
     fill="#1c2740"
     style="stroke-width:0.563355" />
  <path
     id="Path_376"
     data-name="Path 376"
     d="m 4441.5648,482.74695 c 0,0 0.7898,-48.28316 -47.0223,-51.58882 -47.8122,-3.30564 -47.2787,-47.47046 -47.2787,-47.47046 0,0 -14.1467,60.55346 22.4217,67.6676 36.5683,7.11414 71.8793,31.39168 71.8793,31.39168 z"
     fill="#1c2740"
     style="stroke-width:0.563359" />
  <path
     id="Path_378"
     data-name="Path 378"
     d="m 4183.0051,415.06359 c 1.9824,-6.27315 39.0512,-39.5956 100.0576,34.49076 61.0063,74.08638 108.3381,48.17333 108.3381,48.17333 0,0 -140.2832,78.97307 -208.3957,-82.66409 z"
     fill="#1c2740"
     style="stroke-width:0.563359" />
  <path
     id="Path_379"
     data-name="Path 379"
     d="m 3951.4165,507.72662 c 0,0 44.8642,-73.41183 119.9507,27.08567 75.0865,100.49749 134.5141,40.90577 134.5141,40.90577 0,0 -100.1678,109.53059 -188.9478,-20.69118 -25.9032,-51.76391 -65.517,-47.30026 -65.517,-47.30026 z"
     fill="#1c2740"
     style="stroke-width:0.563359" />
  <path
     id="Path_380"
     data-name="Path 380"
     d="m 4931.6099,1345.2548 c 0,0 88.0029,-33.7469 -32.7124,-179.1421 -120.7153,-145.3953 -49.3197,-205.08498 -49.3197,-205.08498 0,0 -131.2433,96.99408 25.1625,273.43968 62.1541,56.9634 56.8696,110.7874 56.8696,110.7874 z"
     fill="#1c2740"
     style="stroke-width:0.563359" />
  <path
     id="Path_381"
     data-name="Path 381"
     d="m 4797.5426,860.15552 c 0,0 90.2281,30.37165 74.9357,126.23615 -0.5221,-1.59305 -74.9357,-126.23615 -74.9357,-126.23615 z"
     fill="#1c2740"
     style="stroke-width:0.563518" />
  <path
     id="Path_382"
     data-name="Path 382"
     d="m 4420.8705,672.47141 c 0,0 23.2232,-53.03276 -31.621,-72.24065 -54.8443,-19.20789 -31.33,-67.88449 -31.33,-67.88449 0,0 -45.1198,86.29013 19.0958,111.91912 35.1381,14.6565 43.8552,28.20602 43.8552,28.20602 z"
     fill="#1c2740"
     style="stroke-width:0.563359" />
  <path
     id="Path_383"
     data-name="Path 383"
     d="m 5184.4317,1331.8856 c -4.8702,5.7554 -59.6759,7.2127 -94.2187,-153.424 -34.5429,-160.6367 -97.3428,-179.81433 -97.3428,-179.81433 0,0 187.0651,54.09403 191.5615,333.23833 z"
     fill="#1c2740"
     style="stroke-width:0.563675" />
  <path
     id="Path_384"
     data-name="Path 384"
     d="m 4394.6427,851.20878 c 0,0 -21.9109,76.736 52.9934,102.4588 74.9041,25.72279 55.165,95.99572 55.165,95.99572 0,0 48.481,-90.60541 -6.85,-117.60649 -55.331,-27.00109 -101.3084,-80.84803 -101.3084,-80.84803 z"
     fill="#1c2740"
     style="stroke-width:0.563359" />
  <path
     id="Path_385"
     data-name="Path 385"
     d="m 4455.5401,696.30641 c 0,0 84.5835,-70.27034 221.9177,130.25446 32.246,65.39007 93.8124,81.0297 93.8124,81.0297 0,0 -113.3658,52.23184 -203.7064,-131.58713 -37.2192,-83.33523 -112.0237,-79.69703 -112.0237,-79.69703 z"
     fill="#1c2740"
     style="stroke-width:0.563182" />
  <path
     id="Path_386"
     data-name="Path 386"
     d="m 4670.1579,678.09159 c 0,0 37.6937,116.4181 161.1303,98.1856 -2.0391,-0.69524 -161.1303,-98.1856 -161.1303,-98.1856 z"
     fill="#1c2740"
     style="stroke-width:0.563359" />
  <path
     id="Path_387"
     data-name="Path 387"
     d="m 3992.1503,692.41729 c 0,0 60.874,-57.59725 137.948,15.82944 77.074,73.42668 131.0356,17.28454 131.0356,17.28454 0,0 -92.6698,104.64523 -187.7129,20.03482 -52.973,-46.02696 -81.2707,-53.1488 -81.2707,-53.1488 z"
     fill="#1c2740"
     style="stroke-width:0.563599" />
  <path
     id="Path_388"
     data-name="Path 388"
     d="m 3858.1915,521.76917 c 0,0 61.3302,-20.02928 103.1053,61.68782 13.7825,26.35467 59.7352,24.37805 59.7352,24.37805 0,0 -107.643,58.2101 -126.4828,-16.32275 -18.8398,-74.53284 -36.3577,-69.74312 -36.3577,-69.74312 z"
     fill="#1c2740"
     style="stroke-width:0.563359" />
  <path
     id="Path_389"
     data-name="Path 389"
     d="m 4145.3407,411.79424 c 0,0 2.2961,-65.66617 -62.7762,-71.22064 -65.0724,-5.55448 -63.2304,-65.62459 -63.2304,-65.62459 0,0 -20.8115,82.05698 28.8461,92.54939 49.6576,10.4924 97.1605,44.29584 97.1605,44.29584 z"
     fill="#1c2740"
     style="stroke-width:0.563358" />
  <path
     id="Path_390"
     data-name="Path 390"
     d="m 4662.4447,960.20116 c 0,0 121.8847,11.72671 119.4153,86.21244 -16.4528,22.7892 -119.4153,-86.21244 -119.4153,-86.21244 z"
     fill="#1c2740"
     style="stroke-width:0.563359" />
  <path
     id="Path_391"
     data-name="Path 391"
     d="m 4708.103,1200.1932 c 0,0 -28.9694,-186.2621 -143.2213,-175.7791 -33.5453,27.3321 143.2213,175.7791 143.2213,175.7791 z"
     fill="#1c2740"
     style="stroke-width:0.563359" />
  <path
     id="Path_392"
     data-name="Path 392"
     d="m 4451.9645,814.74693 c -4.5374,-0.20672 80.5226,-4.41529 124.1773,55.22344 -16.9389,29.95422 62.2294,79.3537 62.2294,79.3537 0,0 -21.048,32.40041 -62.5605,-13.974 -41.5125,-46.3745 -75.8355,-112.44532 -123.8462,-120.60314 z"
     fill="#1c2740"
     style="stroke-width:0.563359" />
  <path
     id="Path_393"
     data-name="Path 393"
     d="m 5038.6389,943.9021 c 3.7395,0.17057 -66.3529,3.63768 -102.3247,-45.50581 13.9575,-24.68307 -51.2787,-65.38884 -51.2787,-65.38884 0,0 17.3443,-26.69878 51.5509,11.51482 34.2067,38.2136 62.4881,92.65618 102.0525,99.37983 z"
     fill="#1c2740"
     style="stroke-width:0.563359" />
  <path
     id="Path_394"
     data-name="Path 394"
     d="m 4353.5112,899.6631 c 0,0 -34.9394,15.03463 -51.6655,-18.80857 -16.7263,-33.84319 -48.7431,-20.22897 -48.7431,-20.22897 0,0 39.8792,-28.44245 56.0152,-3.93123 16.136,24.51123 44.3934,42.96877 44.3934,42.96877 z"
     fill="#1c2740"
     style="stroke-width:0.563359" />
  <path
     id="Path_395"
     data-name="Path 395"
     d="m 5050.0792,1428.5686 c 0,0 107.4069,-0.7771 115.4685,135.4214 8.0616,136.1984 107.7179,130.7422 107.7179,130.7422 0,0 -178.3392,17.0853 -193.4634,-145.3049 -9.4241,-89.4472 -29.723,-120.8587 -29.723,-120.8587 z"
     fill="#1c2740"
     style="stroke-width:0.563359" />
  <path
     id="Path_396"
     data-name="Path 396"
     d="m 5235.1533,1997.7698 c 0,0 -70.1773,-25.1531 -48.9135,-96.0137 21.2638,-70.8607 -42.8247,-94.142 -42.8247,-94.142 0,0 95.1706,12.5371 85.5369,69.2371 -9.6337,56.6999 6.2013,120.9186 6.2013,120.9186 z"
     fill="#1c2740"
     style="stroke-width:0.563359" />
  <path
     id="Path_397"
     data-name="Path 397"
     d="m 5211.6578,1533.4788 c 0,0 52.4297,25.1158 36.034,82.0824 -0.1989,-1.0041 -36.034,-82.0824 -36.034,-82.0824 z"
     fill="#1c2740"
     style="stroke-width:0.563359" />
  <path
     id="Path_398"
     data-name="Path 398"
     d="m 5402.465,2043.8214 c 0,0 56.0136,-28.4539 23.6066,-101.3803 -32.407,-72.9264 20.8356,-96.8667 20.8356,-96.8667 0,0 -97.2457,39.0386 -61.4736,127.4704 19.1379,49.0034 17.0314,70.7766 17.0314,70.7766 z"
     fill="#1c2740"
     style="stroke-width:0.563359" />
  <path
     id="Path_399"
     data-name="Path 399"
     d="m 5224.2394,1714.8998 c 0,0 63.1195,45.2172 28.3169,116.3304 -0.028,-1.3669 -28.3169,-116.3304 -28.3169,-116.3304 z"
     fill="#1c2740"
     style="stroke-width:0.563558" />
  <path
     id="Path_400"
     data-name="Path 400"
     d="m 5418.9832,1735.5108 c 0,0 33.5162,-34.7723 0.8046,-69.8069 -32.7116,-35.0347 -2.1925,-66.9701 -2.1925,-66.9701 0,0 -51.6551,34.6342 -29.7646,64.7836 21.8905,30.1495 31.1525,71.9934 31.1525,71.9934 z"
     fill="#1c2740"
     style="stroke-width:0.563426" />
  <path
     id="Path_401"
     data-name="Path 401"
     d="m 5279.2943,1345.6075 c 0,0 79.7452,-13.6465 93.4573,164.6468 -3.5171,53.5261 29.9527,86.1458 29.9527,86.1458 0,0 -91.4458,-8.438 -81.364,-158.7944 6.9524,-66.7901 -42.046,-91.9982 -42.046,-91.9982 z"
     fill="#1c2740"
     style="stroke-width:0.563359" />
  <path
     id="Path_402"
     data-name="Path 402"
     d="m 5290.1673,1625.4721 c 2.9862,-2.4848 30.9235,1.6808 34.0745,86.2772 3.151,84.5963 33.2971,99.9456 33.2971,99.9456 0,0 -90.0714,-44.1867 -67.3716,-186.2228 z"
     fill="#1c2740"
     style="stroke-width:0.563359" />
  <path
     id="Path_403"
     data-name="Path 403"
     d="m 5010.5083,1265.9603 c 0,0 45.1766,-13.3897 40.4516,68.6144 -4.7251,82.0041 41.574,81.8691 41.574,81.8691 0,0 -81.3087,4.477 -71.6225,-97.8112 7.778,-36.2802 -10.4031,-52.6723 -10.4031,-52.6723 z"
     fill="#1c2740"
     style="stroke-width:0.563359" />
  <path
     id="Path_404"
     data-name="Path 404"
     d="m 5292.002,2624.2351 c 0,0 87.3767,35.3369 98.2504,-153.326 10.8736,-188.6631 103.7974,-183.6256 103.7974,-183.6256 0,0 -162.1352,-18.5708 -168.0828,217.1418 6.6078,84.0496 -33.965,119.8098 -33.965,119.8098 z"
     fill="#1c2740"
     style="stroke-width:0.563359" />
  <path
     id="Path_405"
     data-name="Path 405"
     d="m 5525.1996,2399.3443 c 0,0 45.273,83.7186 -31.2617,143.3927 0.7042,-1.5209 31.2617,-143.3927 31.2617,-143.3927 z"
     fill="#1c2740"
     style="stroke-width:0.563359" />
  <path
     id="Path_406"
     data-name="Path 406"
     d="m 5402.465,2043.8214 c 0,0 56.0136,-28.4539 23.6066,-101.3803 -32.407,-72.9264 20.8356,-96.8667 20.8356,-96.8667 0,0 -97.2457,39.0386 -61.4736,127.4704 19.1379,49.0034 17.0314,70.7766 17.0314,70.7766 z"
     fill="#1c2740"
     style="stroke-width:0.563359" />
  <path
     id="Path_408"
     data-name="Path 408"
     d="m 5579.6426,2140.8031 c 0,0 -68.3585,41.1779 -31.1199,111.0749 37.2385,69.897 -25.1237,107.8292 -25.1237,107.8292 0,0 97.2494,-33.2006 75.1977,-90.6835 -22.0519,-57.483 -18.9541,-128.2206 -18.9541,-128.2206 z"
     fill="#1c2740"
     style="stroke-width:0.563359" />
  <path
     id="Path_409"
     data-name="Path 409"
     d="m 5266.3234,1941.0273 c 0,0 109.8185,6.3126 73.4515,246.6989 -21.0303,69.8336 13.3327,123.2821 13.3327,123.2821 0,0 -118.5637,-39.1462 -59.2209,-235.2476 29.6371,-86.3534 -27.5633,-134.7334 -27.5633,-134.7334 z"
     fill="#1c2740"
     style="stroke-width:0.563359" />
  <path
     id="Path_410"
     data-name="Path 410"
     d="m 5437.8518,2072.8035 c 0,0 -51.8296,110.8498 50.8808,181.6989 -1.0172,-1.8991 -50.8808,-181.6989 -50.8808,-181.6989 z"
     fill="#1c2740"
     style="stroke-width:0.563359" />
  <path
     id="Path_411"
     data-name="Path 411"
     d="m 5441.1478,1767.0472 c 0,0 83.766,-0.6063 90.0529,105.614 6.287,106.2202 84.0079,101.9653 84.0079,101.9653 0,0 -139.0834,13.3239 -150.8821,-113.3218 -7.3473,-69.76 -23.1787,-94.2575 -23.1787,-94.2575 z"
     fill="#1c2740"
     style="stroke-width:0.563359" />
  <path
     id="Path_412"
     data-name="Path 412"
     d="m 5501.8355,1608.7298 c 0,0 58.514,27.1786 33.3354,115.4332 -7.8939,28.6743 27.0618,58.5684 27.0618,58.5684 0,0 -118.4243,-30.8403 -81.3716,-98.1988 37.0528,-67.3586 20.9744,-75.8028 20.9744,-75.8028 z"
     fill="#1c2740"
     style="stroke-width:0.563359" />
  <path
     id="Path_413"
     data-name="Path 413"
     d="m 5253.6557,1502.4761 c 0,0 13.2596,-46.4335 -32.0679,-62.0012 -45.3274,-15.5677 -33.3815,-58.0896 -33.3815,-58.0896 0,0 -29.3369,54.8287 4.1441,71.1651 33.481,16.3362 61.3053,48.9257 61.3053,48.9257 z"
     fill="#1c2740"
     style="stroke-width:0.563359" />
  <path
     id="Path_414"
     data-name="Path 414"
     d="m 5493.1109,1978.9085 c 0,0 81.1433,91.7015 28.5382,144.4928 -27.575,5.4462 -28.5382,-144.4928 -28.5382,-144.4928 z"
     fill="#1c2740"
     style="stroke-width:0.563359" />
  <path
     id="Path_415"
     data-name="Path 415"
     d="m 5239.1663,2512.5814 c 0,0 105.8437,-155.9806 15.1358,-226.2333 -43.174,-2.8885 -15.1358,226.2333 -15.1358,226.2333 z"
     fill="#1c2740"
     style="stroke-width:0.563359" />
  <path
     id="Path_416"
     data-name="Path 416"
     d="m 5185.0773,2023.9402 c -3.1775,-3.2456 61.9018,51.6872 53.1553,125.0766 -32.8171,10.3549 -8.6074,100.476 -8.6074,100.476 0,0 -37.4906,9.3415 -36.2235,-52.8861 1.2669,-62.2276 21.2249,-133.957 -8.3244,-172.6665 z"
     fill="#1c2740"
     style="stroke-width:0.563359" />
  <path
     id="Path_417"
     data-name="Path 417"
     d="m 5637.0104,2525.8901 c 2.6186,2.675 -51.0083,-42.5922 -43.8007,-103.0663 27.0417,-8.533 7.0922,-82.7943 7.0922,-82.7943 0,0 30.8934,-7.6975 29.8489,43.579 -1.0445,51.2765 -17.4904,110.3813 6.8596,142.2816 z"
     fill="#1c2740"
     style="stroke-width:0.563359" />
  <path
     id="Path_418"
     data-name="Path 418"
     d="m 5617.3122,2133.4127 c 0,0 -35.8067,-12.8329 -24.9585,-48.9915 10.8483,-36.1585 -21.8522,-48.0371 -21.8522,-48.0371 0,0 48.5635,6.3959 43.648,35.327 -4.9154,28.9312 3.1627,61.7016 3.1627,61.7016 z"
     fill="#1c2740"
     style="stroke-width:0.563359" />
  <path
     id="Path_421"
     data-name="Path 421"
     d="m 5002.356,1167.4917 c 0,0 33.5161,-34.7722 0.8046,-69.807 -32.7116,-35.0346 -2.1926,-66.9699 -2.1926,-66.9699 0,0 -51.655,34.634 -29.7645,64.7835 21.8904,30.1495 31.1525,71.9934 31.1525,71.9934 z"
     fill="#1c2740"
     style="stroke-width:0.563426" />
  <path
     id="Path_422"
     data-name="Path 422"
     d="m 4835.5372,1324.1979 c 0,0 77.1915,22.3988 85.8606,147.9102 3.1379,40.7076 54.9758,72.5584 54.9758,72.5584 0,0 -146.0964,-12.654 -132.6576,-112.8243 13.4386,-100.1703 -8.1788,-107.6443 -8.1788,-107.6443 z"
     fill="#1c2740"
     style="stroke-width:0.563359" />
  <path
     id="Path_423"
     data-name="Path 423"
     d="m 4981.7792,1560.4742 c 0,0 53.4354,-29.7516 75.545,90.8636 22.1098,120.6153 81.5427,109.9306 81.5427,109.9306 0,0 -102.914,24.9409 -125.6225,-126.3648 -2.4753,-54.6513 -31.4652,-74.4294 -31.4652,-74.4294 z"
     fill="#1c2740"
     style="stroke-width:0.563359" />
  <path
     id="Path_424"
     data-name="Path 424"
     d="m 4695.731,1208.4752 c 0,0 100.9455,17.2065 56.9602,82.1563 -0.2082,-1.0511 -56.9602,-82.1563 -56.9602,-82.1563 z"
     fill="#1c2740"
     style="stroke-width:0.563359" />
  <path
     id="Path_347-3"
     data-name="Path 347"
     d="m 5428.5934,2601.8928 c 0,0 103.876,27.2368 76.1683,160.8016 -27.7078,133.5649 69.9063,154.2657 69.9063,154.2657 0,0 -176.5922,-29.9783 -148.8768,-190.6647 14.2107,-88.7937 2.8022,-124.4026 2.8022,-124.4026 z"
     fill="#1c2740"
     style="stroke-width:0.563242" />
  <path
     id="Path_348-5"
     data-name="Path 348"
     d="m 5378.6024,3304.438 c 0,0 -61.2065,-42.5595 -22.2242,-105.4386 38.9824,-62.8791 -16.8328,-102.0458 -16.8328,-102.0458 0,0 88.6227,36.8869 64.5568,89.1223 -24.066,52.2354 -25.4998,118.3621 -25.4998,118.3621 z"
     fill="#1c2740"
     style="stroke-width:0.56336" />
  <path
     id="Path_349-6"
     data-name="Path 349"
     d="m 5584.3203,2777.4351 c 0,0 44.0773,37.9061 13.4084,88.6351 0.069,-1.0212 -13.4084,-88.6351 -13.4084,-88.6351 z"
     fill="#1c2740"
     style="stroke-width:0.563359" />
  <path
     id="Path_350-2"
     data-name="Path 350"
     d="m 5528.1213,3392.4829 c 0,0 61.4917,-12.8806 49.2001,-91.7311 -12.2916,-78.8504 45.349,-88.0951 45.349,-88.0951 0,0 -104.0575,12.3593 -92.556,107.0565 5.7123,52.2968 -1.9931,72.7697 -1.9931,72.7697 z"
     fill="#1c2740"
     style="stroke-width:0.563359" />
  <path
     id="Path_351-9"
     data-name="Path 351"
     d="m 5441.7891,3028.4575 c 0,0 49.1593,60.0898 -2.9583,119.6783 0.3288,-1.3268 2.9583,-119.6783 2.9583,-119.6783 z"
     fill="#1c2740"
     style="stroke-width:0.5635" />
  <path
     id="Path_352-1"
     data-name="Path 352"
     d="m 5624.7452,3099.2815 c 0,0 41.3898,-24.8586 18.9151,-67.179 -22.4748,-42.3203 15.2847,-65.219 15.2847,-65.219 0,0 -58.8644,20.012 -45.5664,54.8047 13.298,34.7927 11.3666,77.5933 11.3666,77.5933 z"
     fill="#1c2740"
     style="stroke-width:0.56326" />
  <path
     id="Path_353-2"
     data-name="Path 353"
     d="m 5661.0986,2691.4475 c 0,0 80.5469,7.5975 47.342,183.3073 -17.3387,50.762 6.4785,90.9741 6.4785,90.9741 0,0 -86.0907,-31.9674 -37.1907,-174.5068 24.1105,-62.6732 -16.6298,-99.7746 -16.6298,-99.7746 z"
     fill="#1c2740"
     style="stroke-width:0.563359" />
  <path
     id="Path_354-7"
     data-name="Path 354"
     d="m 5528.6754,2959.323 c 3.5305,-1.6211 29.4183,9.6781 10.4239,92.1746 -18.9942,82.4966 6.1128,105.1686 6.1128,105.1686 0,0 -75.4517,-66.1238 -16.5367,-197.3432 z"
     fill="#1c2740"
     style="stroke-width:0.563359" />
  <path
     id="Path_355-0"
     data-name="Path 355"
     d="m 5332.4566,2760.147 c 0,0 61.1118,-2.4172 26.3755,115.185 -34.7361,117.6022 23.1174,134.9055 23.1174,134.9055 0,0 -103.0868,-24.217 -55.0266,-169.4731 22.4689,-49.8802 5.5337,-80.6174 5.5337,-80.6174 z"
     fill="#1c2740"
     style="stroke-width:0.563359" />
  <path
     id="Path_356-9"
     data-name="Path 356"
     d="m 5270.2793,3924.0834 c 0,0 75.1544,56.8786 134.7995,-122.4378 59.6449,-179.3163 148.048,-150.2461 148.048,-150.2461 0,0 -151.6993,-60.1658 -218.8448,165.8588 -15.5153,82.8688 -64.0027,106.8251 -64.0027,106.8251 z"
     fill="#1c2740"
     style="stroke-width:0.563358" />
  <path
     id="Path_357-3"
     data-name="Path 357"
     d="m 5554.0084,3767.7027 c 0,0 21.9021,92.6214 -67.5348,130.2989 1.076,-1.2849 67.5348,-130.2989 67.5348,-130.2989 z"
     fill="#1c2740"
     style="stroke-width:0.563359" />
  <path
     id="Path_358-6"
     data-name="Path 358"
     d="m 5528.1213,3392.4829 c 0,0 61.4917,-12.8806 49.2001,-91.7311 -12.2916,-78.8504 45.349,-88.0951 45.349,-88.0951 0,0 -104.0575,12.3593 -92.556,107.0565 5.7123,52.2968 -1.9931,72.7697 -1.9931,72.7697 z"
     fill="#1c2740"
     style="stroke-width:0.563359" />
  <path
     id="Path_359-0"
     data-name="Path 359"
     d="m 5045.0588,3923.9699 c -7.459,-1.0944 -37.6475,-46.8536 80.4828,-161.037 118.1304,-114.1833 101.2374,-177.6301 101.2374,-177.6301 0,0 52.8932,187.3906 -181.7202,338.6671 z"
     fill="#1c2740"
     style="stroke-width:0.563626" />
  <path
     id="Path_360-6"
     data-name="Path 360"
     d="m 5673.9197,3532.2692 c 0,0 -76.7249,21.9496 -58.9794,99.1338 17.7454,77.1842 -52.3449,97.5622 -52.3449,97.5622 0,0 102.5405,-6.7219 96.2238,-67.9647 -6.3168,-61.2427 15.1005,-128.7313 15.1005,-128.7313 z"
     fill="#1c2740"
     style="stroke-width:0.563359" />
  <path
     id="Path_361-2"
     data-name="Path 361"
     d="m 5423.4575,3257.7744 c 0,0 104.3826,34.7012 6.653,257.3153 -38.4952,61.9446 -19.2413,122.4991 -19.2413,122.4991 0,0 -104.2733,-68.6794 4.1032,-242.5525 51.1081,-75.652 8.4851,-137.2619 8.4851,-137.2619 z"
     fill="#1c2740"
     style="stroke-width:0.563359" />
  <path
     id="Path_362-6"
     data-name="Path 362"
     d="m 5554.7367,3429.6822 c 0,0 -78.9154,93.5218 1.7935,188.6799 -0.4873,-2.0984 -1.7935,-188.6799 -1.7935,-188.6799 z"
     fill="#1c2740"
     style="stroke-width:0.563359" />
  <path
     id="Path_363-1"
     data-name="Path 363"
     d="m 5637.5692,3135.2009 c 0,0 81.0123,21.2417 59.403,125.4079 -21.6093,104.1662 54.5187,120.3109 54.5187,120.3109 0,0 -137.7207,-23.38 -116.1092,-148.698 11.0853,-69.2497 2.1875,-97.0208 2.1875,-97.0208 z"
     fill="#1c2740"
     style="stroke-width:0.563242" />
  <path
     id="Path_364-8"
     data-name="Path 364"
     d="m 5737.3977,2998.296 c 0,0 49.4141,41.4827 2.1155,120.1317 -15.0908,25.6281 10.871,63.5956 10.871,63.5956 0,0 -106.3024,-60.6238 -52.9826,-116.0051 53.3198,-55.3812 39.9961,-67.7222 39.9961,-67.7222 z"
     fill="#1c2740"
     style="stroke-width:0.563359" />
  <path
     id="Path_365-7"
     data-name="Path 365"
     d="m 5606.2968,2729.9674 c 0,0 24.8973,-41.3765 -14.81,-68.2141 -39.7074,-26.8376 -17.0974,-64.7797 -17.0974,-64.7797 0,0 -42.6064,45.2939 -14.5367,69.7877 28.0697,24.4938 46.4441,63.2061 46.4441,63.2061 z"
     fill="#1c2740"
     style="stroke-width:0.563359" />
  <path
     id="Path_366-9"
     data-name="Path 366"
     d="m 5632.5463,3353.4222 c 0,0 54.4546,109.6727 -10.086,146.9384 -28.0417,-1.9249 10.086,-146.9384 10.086,-146.9384 z"
     fill="#1c2740"
     style="stroke-width:0.563359" />
  <path
     id="Path_367-2"
     data-name="Path 367"
     d="m 5256.7917,3800.65 c 0,0 142.8569,-123.0168 73.5867,-214.4944 -40.9338,-14.0432 -73.5867,214.4944 -73.5867,214.4944 z"
     fill="#1c2740"
     style="stroke-width:0.563426" />
  <path
     id="Path_368-0"
     data-name="Path 368"
     d="m 5323.4168,3316.6598 c -2.2223,-3.9613 46.3008,66.0275 18.739,134.6049 -34.3814,1.4488 -34.4831,94.7651 -34.4831,94.7651 0,0 -38.6297,-0.7469 -21.1968,-60.4962 17.4328,-59.7492 55.3865,-123.8034 36.9409,-168.8738 z"
     fill="#1c2740"
     style="stroke-width:0.563359" />
  <path
     id="Path_369-2"
     data-name="Path 369"
     d="m 5628.9952,3919.0057 c 1.8314,3.2647 -38.1525,-54.4089 -15.4408,-110.9176 28.3309,-1.1945 28.4144,-78.0886 28.4144,-78.0886 0,0 31.832,0.6157 17.4665,49.8498 -14.3654,49.2343 -45.6397,102.0145 -30.4401,139.1564 z"
     fill="#1c2740"
     style="stroke-width:0.563359" />
  <path
     id="Path_370-3"
     data-name="Path 370"
     d="m 5712.2241,3534.9454 c 0,0 -31.2297,-21.7143 -11.34,-53.8006 19.8896,-32.0863 -8.5896,-52.0704 -8.5896,-52.0704 0,0 45.2227,18.8213 32.9431,45.4744 -12.2796,26.6531 -13.0135,60.3966 -13.0135,60.3966 z"
     fill="#1c2740"
     style="stroke-width:0.56336" />
  <path
     id="Path_372-7"
     data-name="Path 372"
     d="m 4992.489,4309.0671 c 0,0 -26.937,-69.5122 40.5451,-99.8363 67.4821,-30.324 43.117,-94.0084 43.117,-94.0084 0,0 52.8371,80.1427 3.6732,109.9856 -49.164,29.8429 -87.3353,83.8591 -87.3353,83.8591 z"
     fill="#1c2740"
     style="stroke-width:0.563359" />
  <path
     id="Path_373-5"
     data-name="Path 373"
     d="m 5430.7823,4042.4426 c 0,0 15.3449,56.0732 -38.4481,80.9797 0.6287,-0.8077 38.4481,-80.9797 38.4481,-80.9797 z"
     fill="#1c2740"
     style="stroke-width:0.563359" />
  <path
     id="Path_374-9"
     data-name="Path 374"
     d="m 5180.7432,4342.0097 c 0,0 24.8653,57.6939 -46.6838,93.0369 -71.549,35.343 -45.9268,87.7957 -45.9268,87.7957 0,0 -49.7974,-92.2005 34.2566,-137.3102 46.048,-25.4379 58.354,-43.5224 58.354,-43.5224 z"
     fill="#1c2740"
     style="stroke-width:0.563359" />
  <path
     id="Path_375-2"
     data-name="Path 375"
     d="m 5236.0661,4039.8248 c 0,0 18.8269,97.766 -72.3339,113.1491 1.125,-1.0145 72.3339,-113.1491 72.3339,-113.1491 z"
     fill="#1c2740"
     style="stroke-width:0.563355" />
  <path
     id="Path_376-2"
     data-name="Path 376"
     d="m 5232.261,4367.4362 c 0,0 48.2218,2.5579 53.2765,-45.1011 5.0548,-47.659 49.1704,-45.5083 49.1704,-45.5083 0,0 -59.9946,-16.355 -68.4435,19.9282 -8.4487,36.2832 -34.0034,70.6812 -34.0034,70.6812 z"
     fill="#1c2740"
     style="stroke-width:0.563359" />
  <path
     id="Path_378-8"
     data-name="Path 378"
     d="m 5309.3692,4111.5293 c 6.1964,2.2108 38.1387,40.4753 -38.1326,98.7271 -76.2712,58.2517 -52.1092,106.5009 -52.1092,106.5009 0,0 -73.7817,-143.0817 90.2418,-205.228 z"
     fill="#1c2740"
     style="stroke-width:0.563359" />
  <path
     id="Path_379-9"
     data-name="Path 379"
     d="m 5225.2511,3876.7019 c 0,0 71.7192,47.5231 -31.4611,118.8782 -103.1804,71.355 -45.8054,132.9255 -45.8054,132.9255 0,0 -105.788,-104.1125 27.5982,-188.0632 52.678,-23.9897 49.6683,-63.7405 49.6683,-63.7405 z"
     fill="#1c2740"
     style="stroke-width:0.563359" />
  <path
     id="Path_380-7"
     data-name="Path 380"
     d="m 4516.383,4839.5312 c 0,0 30.5009,89.18 180.2202,-26.1287 149.7192,-115.3087 206.7538,-41.7747 206.7538,-41.7747 0,0 -92.1219,-134.708 -274.1779,15.1299 -59.2018,60.0261 -112.7961,52.7735 -112.7961,52.7735 z"
     fill="#1c2740"
     style="stroke-width:0.563359" />
  <path
     id="Path_381-3"
     data-name="Path 381"
     d="m 4838.8891,4868.4407 c 0,0 -33.6561,89.0552 -128.8962,70.2616 1.6112,-0.4634 128.8962,-70.2616 128.8962,-70.2616 z"
     fill="#1c2740"
     style="stroke-width:0.563518" />
  <path
     id="Path_382-6"
     data-name="Path 382"
     d="m 5043.4219,4339.8065 c 0,0 52.1466,25.1502 73.3505,-28.9537 21.2037,-54.1039 68.9864,-28.8225 68.9864,-28.8225 0,0 -84.5795,-48.2502 -112.5435,14.9836 -15.9336,34.5777 -29.7934,42.7926 -29.7934,42.7926 z"
     fill="#1c2740"
     style="stroke-width:0.563359" />
  <path
     id="Path_383-1"
     data-name="Path 383"
     d="m 4416.2912,5184.3782 c -5.5731,-5.0778 -5.022,-59.9 156.7721,-88.5359 161.7942,-28.6358 183.2592,-90.6912 183.2592,-90.6912 0,0 -60.9096,184.9583 -340.0313,179.2271 z"
     fill="#1c2740"
     style="stroke-width:0.563675" />
  <path
     id="Path_384-2"
     data-name="Path 384"
     d="m 5070.1158,4740.4155 c 0,0 -75.8819,-24.707 -104.3311,49.2047 -28.4492,73.9119 -97.9519,51.612 -97.9519,51.612 0,0 88.7688,51.7671 117.7784,-2.5377 29.0097,-54.3048 84.5046,-98.279 84.5046,-98.279 z"
     fill="#1c2740"
     style="stroke-width:0.563359" />
  <path
     id="Path_385-9"
     data-name="Path 385"
     d="m 5018.3327,4373.5798 c 0,0 67.1251,87.1007 -138.2955,216.9978 -66.5273,29.8292 -84.4115,90.7814 -84.4115,90.7814 0,0 -48.0444,-115.2028 138.9602,-198.7499 84.6427,-34.1416 83.7468,-109.0293 83.7468,-109.0293 z"
     fill="#1c2740"
     style="stroke-width:0.563182" />
  <path
     id="Path_386-3"
     data-name="Path 386"
     d="m 5028.6745,4588.7208 c 0,0 -117.7207,33.4043 -104.0217,157.4258 0.7695,-2.0122 104.0217,-157.4258 104.0217,-157.4258 z"
     fill="#1c2740"
     style="stroke-width:0.563359" />
  <path
     id="Path_387-1"
     data-name="Path 387"
     d="m 5261.7176,4391.1106 c 0,0 55.329,62.9428 -20.8716,137.2756 -76.2005,74.3328 -22.0725,130.3146 -22.0725,130.3146 0,0 -101.1808,-96.4406 -13.1458,-188.3208 47.9364,-51.2515 56.0899,-79.2694 56.0899,-79.2694 z"
     fill="#1c2740"
     style="stroke-width:0.563599" />
  <path
     id="Path_388-9"
     data-name="Path 388"
     d="m 5073.9683,4004.4237 c 0,0 17.7694,62.0227 -65.4231,100.7766 -26.8417,12.808 -26.5496,58.8022 -26.5496,58.8022 0,0 -54.2283,-109.7029 20.9447,-125.8001 75.1728,-16.0971 71.028,-33.7787 71.028,-33.7787 z"
     fill="#1c2740"
     style="stroke-width:0.563359" />
  <path
     id="Path_389-4"
     data-name="Path 389"
     d="m 5314.0164,4074.0098 c 0,0 65.538,4.6999 73.4722,-60.1253 7.9343,-64.8253 67.8966,-60.7843 67.8966,-60.7843 0,0 -81.2397,-23.8031 -93.5439,25.4368 -12.3042,49.2399 -47.8249,95.4728 -47.8249,95.4728 z"
     fill="#1c2740"
     style="stroke-width:0.563358" />
  <path
     id="Path_390-7"
     data-name="Path 390"
     d="m 5135.8256,4569.0089 c 0,0 -16.1833,121.3734 -90.5285,116.1774 -22.1713,-17.2765 90.5285,-116.1774 90.5285,-116.1774 z"
     fill="#1c2740"
     style="stroke-width:0.563359" />
  <path
     id="Path_391-8"
     data-name="Path 391"
     d="m 4566.1816,4726.4907 c 0,0 187.1984,-22.1273 180.9071,-136.6866 -26.0849,-34.524 -180.9071,136.6866 -180.9071,136.6866 z"
     fill="#1c2740"
     style="stroke-width:0.563359" />
  <path
     id="Path_392-4"
     data-name="Path 392"
     d="m 4900.1029,4365.6684 c 0.3728,-4.5268 1.4629,80.6304 -59.7347,122.0713 -29.3138,-18.0247 -81.5798,59.281 -81.5798,59.281 0,0 -31.6079,-22.2206 16.2561,-62.0066 47.8639,-39.786 115.1475,-71.6659 125.0584,-119.3457 z"
     fill="#1c2740"
     style="stroke-width:0.563359" />
  <path
     id="Path_393-5"
     data-name="Path 393"
     d="m 4816.6106,5035.9133 c -0.3073,3.7308 -1.2048,-66.4416 49.2233,-100.5893 24.1553,14.8522 67.2233,-48.8492 67.2233,-48.8492 0,0 26.0455,18.3106 -13.3954,51.0946 -39.4409,32.7839 -94.8828,59.0523 -103.0512,98.3439 z"
     fill="#1c2740"
     style="stroke-width:0.563359" />
  <path
     id="Path_394-0"
     data-name="Path 394"
     d="m 5100.3656,4764.0477 c 0,0 -13.7448,-35.4667 20.6884,-50.9421 34.4331,-15.4753 22.0007,-47.9693 22.0007,-47.9693 0,0 26.9627,40.8942 1.8769,56.1216 -25.0858,15.2273 -44.566,42.7898 -44.566,42.7898 z"
     fill="#1c2740"
     style="stroke-width:0.563359" />
  <path
     id="Path_395-3"
     data-name="Path 395"
     d="m 4384.834,4995.7139 c 0,0 -3.1576,107.3633 -139.56,110.4308 -136.4024,3.0674 -134.6001,102.8568 -134.6001,102.8568 0,0 -10.5414,-178.8455 152.2938,-188.0114 89.7323,-6.1414 121.8663,-25.2762 121.8663,-25.2762 z"
     fill="#1c2740"
     style="stroke-width:0.563359" />
  <path
     id="Path_396-6"
     data-name="Path 396"
     d="m 3689.1869,5104.9995 c 0,0 27.7067,-69.209 97.741,-45.364 70.0342,23.8451 95.6473,-39.3477 95.6473,-39.3477 0,0 -16.0146,94.6475 -72.3236,82.9435 -56.3091,-11.704 -121.0647,1.7682 -121.0647,1.7682 z"
     fill="#1c2740"
     style="stroke-width:0.563359" />
  <path
     id="Path_397-1"
     data-name="Path 397"
     d="m 4248.9641,5186.9152 c 0,0 -27.0193,51.4745 -83.3472,33.0033 1.0107,-0.162 83.3472,-33.0033 83.3472,-33.0033 z"
     fill="#1c2740"
     style="stroke-width:0.563359" />
  <path
     id="Path_398-0"
     data-name="Path 398"
     d="m 3637.038,5270.512 c 0,0 26.3831,57.0183 100.4475,27.3042 74.0645,-29.7141 96.0386,24.3696 96.0386,24.3696 0,0 -35.4505,-98.6102 -125.1332,-66.1014 -49.6715,17.3302 -71.3529,14.4276 -71.3529,14.4276 z"
     fill="#1c2740"
     style="stroke-width:0.563359" />
  <path
     id="Path_399-6"
     data-name="Path 399"
     d="m 3972.2668,5104.4539 c 0,0 -47.4987,61.4209 -117.2895,24.0368 1.367,0.022 117.2895,-24.0368 117.2895,-24.0368 z"
     fill="#1c2740"
     style="stroke-width:0.563558" />
  <path
     id="Path_400-3"
     data-name="Path 400"
     d="m 3944.5366,5298.3121 c 0,0 33.5213,34.7673 69.7307,3.3609 36.2093,-31.4064 67.0053,0.262 67.0053,0.262 0,0 -32.7188,-52.889 -63.6499,-32.1176 -30.931,20.7715 -73.0861,28.4947 -73.0861,28.4947 z"
     fill="#1c2740"
     style="stroke-width:0.563426" />
  <path
     id="Path_401-2"
     data-name="Path 401"
     d="m 4350.0191,5242.3812 c 0,0 10.7163,80.1916 -167.9595,87.3638 -53.3613,-5.4753 -87.1851,26.7772 -87.1851,26.7772 0,0 11.7819,-91.0754 161.6681,-75.493 66.4906,9.3941 93.4765,-38.648 93.4765,-38.648 z"
     fill="#1c2740"
     style="stroke-width:0.563359" />
  <path
     id="Path_402-0"
     data-name="Path 402"
     d="m 4059.2199,5173.6127 c 2.3737,3.0753 -2.8125,30.8412 -87.4674,30.8915 -84.655,0.05 -101.0982,29.6139 -101.0982,29.6139 0,0 47.4562,-88.3924 188.5656,-60.5054 z"
     fill="#1c2740"
     style="stroke-width:0.563359" />
  <path
     id="Path_403-6"
     data-name="Path 403"
     d="m 4552.7924,4925.1243 c 0,0 11.726,45.6368 -70.05,37.9112 -81.7761,-7.7256 -83.337,38.5475 -83.337,38.5475 0,0 -1.4958,-81.4182 100.369,-67.9919 35.9709,9.1017 53.018,-8.4668 53.018,-8.4668 z"
     fill="#1c2740"
     style="stroke-width:0.563359" />
  <path
     id="Path_404-1"
     data-name="Path 404"
     d="m 2957.0191,5644.5 c 0,0 -11.1441,93.5905 173.7501,54.5248 184.894,-39.0657 204.4425,51.918 204.4425,51.918 0,0 -24.6707,-161.3196 -253.6683,-105.142 -79.3622,28.4537 -124.5243,-1.3008 -124.5243,-1.3008 z"
     fill="#1c2740"
     style="stroke-width:0.563359" />
  <path
     id="Path_405-5"
     data-name="Path 405"
     d="m 3185.4581,5365.4849 c 0,0 -85.3207,42.1761 -142.1514,-36.493 1.494,0.7594 142.1514,36.493 142.1514,36.493 z"
     fill="#1c2740"
     style="stroke-width:0.563359" />
  <path
     id="Path_406-5"
     data-name="Path 406"
     d="m 3637.038,5270.512 c 0,0 26.3831,57.0183 100.4475,27.3042 74.0645,-29.7141 96.0386,24.3696 96.0386,24.3696 0,0 -35.4505,-98.6102 -125.1332,-66.1014 -49.6715,17.3302 -71.3529,14.4276 -71.3529,14.4276 z"
     fill="#1c2740"
     style="stroke-width:0.563359" />
  <path
     id="Path_408-4"
     data-name="Path 408"
     d="m 3533.6316,5444.0185 c 0,0 -38.6464,-69.8209 -109.8605,-35.1675 -71.2141,34.6533 -106.8367,-29.0566 -106.8367,-29.0566 0,0 29.6162,98.4004 87.8684,78.4688 58.2521,-19.9315 128.8288,-14.2447 128.8288,-14.2447 z"
     fill="#1c2740"
     style="stroke-width:0.563359" />
  <path
     id="Path_409-7"
     data-name="Path 409"
     d="m 3744.7499,5138.2274 c 0,0 -10.3308,109.5134 -249.2238,64.3659 -69.0165,-23.574 -123.6877,8.8082 -123.6877,8.8082 0,0 43.4627,-117.0503 237.2589,-50.5645 85.2099,32.7802 135.6526,-22.6096 135.6526,-22.6096 z"
     fill="#1c2740"
     style="stroke-width:0.563359" />
  <path
     id="Path_410-6"
     data-name="Path 410"
     d="m 3606.7791,5304.8135 c 0,0 -108.877,-55.8551 -183.4407,44.1913 1.9351,-0.9469 183.4407,-44.1913 183.4407,-44.1913 z"
     fill="#1c2740"
     style="stroke-width:0.563359" />
  <path
     id="Path_411-5"
     data-name="Path 411"
     d="m 3912.2095,5319.3067 c 0,0 -2.4624,83.732 -108.8416,86.1241 -106.3792,2.392 -104.974,80.2166 -104.974,80.2166 0,0 -8.2206,-139.4781 118.7724,-146.6301 69.9823,-4.7872 95.0432,-19.7106 95.0432,-19.7106 z"
     fill="#1c2740"
     style="stroke-width:0.563359" />
  <path
     id="Path_412-6"
     data-name="Path 412"
     d="m 4068.1974,5385.7527 c 0,0 -29.3037,57.4792 -116.5768,29.085 -28.3659,-8.939 -59.5202,24.8983 -59.5202,24.8983 0,0 35.1572,-117.2152 101.1134,-77.7201 65.9562,39.495 74.9836,23.7368 74.9836,23.7368 z"
     fill="#1c2740"
     style="stroke-width:0.563359" />
  <path
     id="Path_413-9"
     data-name="Path 413"
     d="m 4300.1583,5197.6501 c 0,0 45.9166,14.9515 63.1342,-29.7754 17.2175,-44.7268 59.2732,-31.2313 59.2732,-31.2313 0,0 -53.7173,-31.3255 -71.269,1.5347 -17.5517,32.8601 -51.1384,59.472 -51.1384,59.472 z"
     fill="#1c2740"
     style="stroke-width:0.563359" />
  <path
     id="Path_414-3"
     data-name="Path 414"
     d="m 3698.5872,5363.4744 c 0,0 -94.6122,77.7299 -145.4412,23.2264 -4.4325,-27.7559 145.4412,-23.2264 145.4412,-23.2264 z"
     fill="#1c2740"
     style="stroke-width:0.563359" />
  <path
     id="Path_415-7"
     data-name="Path 415"
     d="m 3349.5832,5513.0912 c 0,0 151.9991,111.486 225.5272,23.4121 4.4679,-43.0392 -225.5272,-23.4121 -225.5272,-23.4121 z"
     fill="#1c2740"
     style="stroke-width:0.563359" />
  <path
     id="Path_416-4"
     data-name="Path 416"
     d="m 3853.991,5465.7279 c 2.6946,-3.6565 -41.1007,69.384 -114.9434,72.5099 -15.4793,-30.7339 -100.5569,7.6035 -100.5569,7.6035 0,0 -15.228,-35.5094 46.3986,-44.2298 61.6265,-8.7203 135.627,-0.5136 169.1017,-35.8836 z"
     fill="#1c2740"
     style="stroke-width:0.563359" />
  <path
     id="Path_417-5"
     data-name="Path 417"
     d="m 3146.7017,5487.2426 c -2.7692,2.5189 44.4319,-49.414 104.6013,-39.9962 7.5369,27.3362 82.4791,10.1201 82.4791,10.1201 0,0 6.5607,31.1546 -44.6432,28.2326 -51.2038,-2.9219 -109.6664,-21.5217 -142.4372,1.6435 z"
     fill="#1c2740"
     style="stroke-width:0.563359" />
  <path
     id="Path_418-2"
     data-name="Path 418"
     d="m 3539.6371,5481.9334 c 0,0 14.136,-35.3126 49.8729,-23.1472 35.737,12.1654 48.8054,-20.0781 48.8054,-20.0781 0,0 -8.1706,48.2966 -36.9022,42.3247 -28.7316,-5.9718 -61.7761,0.9006 -61.7761,0.9006 z"
     fill="#1c2740"
     style="stroke-width:0.563359" />
  <path
     id="Path_421-5"
     data-name="Path 421"
     d="m 4530.9653,5023.6308 c 0,0 33.5213,34.7672 69.7307,3.3609 36.2093,-31.4064 67.0053,0.2619 67.0053,0.2619 0,0 -32.7188,-52.8889 -63.6499,-32.1175 -30.931,20.7715 -73.0861,28.4947 -73.0861,28.4947 z"
     fill="#1c2740"
     style="stroke-width:0.563426" />
  <path
     id="Path_422-4"
     data-name="Path 422"
     d="m 4476.5135,4847.6722 c 0,0 -44.1223,67.1823 -166.6273,38.5332 -39.8285,-8.9802 -85.5234,31.1897 -85.5234,31.1897 0,0 55.0856,-135.9039 146.866,-93.5829 91.7803,42.3208 105.2847,23.86 105.2847,23.86 z"
     fill="#1c2740"
     style="stroke-width:0.563359" />
  <path
     id="Path_423-7"
     data-name="Path 423"
     d="m 4209.1513,4937.618 c 0,0 16.1024,59.0018 -106.2996,51.6107 -122.402,-7.3913 -126.2477,52.8718 -126.2477,52.8718 0,0 0.4068,-105.8922 152.7513,-91.7393 53.6562,10.6724 79.796,-12.7432 79.796,-12.7432 z"
     fill="#1c2740"
     style="stroke-width:0.563359" />
  <path
     id="Path_424-4"
     data-name="Path 424"
     d="m 4517.8332,4733.5661 c 0,0 -20.8924,100.2473 -84.1875,53.9127 1.058,-0.1696 84.1875,-53.9127 84.1875,-53.9127 z"
     fill="#1c2740"
     style="stroke-width:0.563359" />
  <path
     id="path1378"
     data-name="Path 349"
     d="m 5560.981,2508.3385 c 0,0 44.0772,37.9061 13.4084,88.6351 0.069,-1.0213 -13.4084,-88.6351 -13.4084,-88.6351 z"
     fill="#1c2740"
     style="stroke-width:0.563359" />
  <path
     id="path1399"
     data-name="Path 355"
     d="m 5669.0954,2427.7435 c 0,0 61.1117,-2.4172 26.3756,115.185 -34.7362,117.6021 23.1172,134.9055 23.1172,134.9055 0,0 -103.0867,-24.217 -55.0265,-169.4732 22.469,-49.8801 5.5337,-80.6173 5.5337,-80.6173 z"
     fill="#1c2740"
     style="stroke-width:0.563359" />
  <path
     id="path1557"
     data-name="Path 347"
     d="m 307.0664,2637.2443 c 0,0 -104.24079,-25.8055 -78.37283,-159.7388 25.86795,-133.9334 -72.02158,-153.2896 -72.02158,-153.2896 0,0 176.98779,27.5466 151.48519,188.599 -12.98798,88.9807 -1.09078,124.4294 -1.09078,124.4294 z"
     fill="#1c2740"
     style="stroke-width:0.563242" />
  <path
     id="path1559"
     data-name="Path 348"
     d="m 377.9233,2217.3447 c 0,0 61.78624,41.7135 23.67242,105.1229 -38.1138,63.4094 18.23492,101.8047 18.23492,101.8047 0,0 -89.1218,-35.6645 -65.7766,-88.226 23.34519,-52.5614 23.86926,-118.7016 23.86926,-118.7016 z"
     fill="#1c2740"
     style="stroke-width:0.563359" />
  <path
     id="path1561"
     data-name="Path 349"
     d="m 179.47366,2747.1273 c 0,0 -44.59441,-37.2962 -14.62624,-88.4423 -0.0555,1.022 14.62624,88.4423 14.62624,88.4423 z"
     fill="#1c2740"
     style="stroke-width:0.563359" />
  <path
     id="path1563"
     data-name="Path 350"
     d="m 227.20757,2131.3646 c 0,0 -61.30877,13.7253 -47.93374,92.3992 13.37504,78.6738 -44.13298,88.7105 -44.13298,88.7105 0,0 103.87766,-13.7895 91.07472,-108.3195 -6.43114,-52.2132 0.992,-72.7902 0.992,-72.7902 z"
     fill="#1c2740"
     style="stroke-width:0.563359" />
  <path
     id="path1565"
     data-name="Path 351"
     d="m 364.94263,2608.1892 c 0,0 -49.98122,-59.4081 1.31185,-119.7079 -0.31061,1.3313 -1.31185,119.7079 -1.31185,119.7079 z"
     fill="#1c2740"
     style="stroke-width:0.5635" />
  <path
     id="path1567"
     data-name="Path 352"
     d="m 134.6258,2425.8674 c 0,0 -41.04403,25.4256 -17.98928,67.4328 23.05473,42.0071 -14.38622,65.4231 -14.38622,65.4231 0,0 58.58351,-20.8198 44.80824,-55.4263 -13.77527,-34.6065 -12.43274,-77.4296 -12.43274,-77.4296 z"
     fill="#1c2740"
     style="stroke-width:0.56326" />
  <path
     id="path1569"
     data-name="Path 353"
     d="m 103.88581,2834.1628 c 0,0 -80.643798,-6.4889 -49.858871,-182.6388 16.638794,-50.9956 -7.729243,-90.8764 -7.729243,-90.8764 0,0 86.522274,30.7802 39.587522,173.9787 -23.246175,62.9989 18.000592,99.5365 18.000592,99.5365 z"
     fill="#1c2740"
     style="stroke-width:0.563359" />
  <path
     id="path1571"
     data-name="Path 354"
     d="m 286.5411,2846.274 c -3.5078,1.6695 -29.54847,-9.2725 -11.69071,-92.0226 17.85778,-82.75 -7.55875,-105.0746 -7.55875,-105.0746 0,0 76.354,65.0797 19.24946,197.0972 z"
     fill="#1c2740"
     style="stroke-width:0.563359" />
  <path
     id="path1573"
     data-name="Path 355"
     d="m 483.25845,2653.5577 c 0,0 -61.07275,3.2574 -27.95745,-114.8114 33.1153,-118.0689 -24.97071,-134.5747 -24.97071,-134.5747 0,0 103.41011,22.7967 57.35242,168.7002 -21.78073,50.1845 -4.42426,80.6859 -4.42426,80.6859 z"
     fill="#1c2740"
     style="stroke-width:0.563359" />
  <path
     id="path1575"
     data-name="Path 356"
     d="m 862.20201,1357.6194 c 0,0 -75.9297,-55.8393 -133.10262,124.2804 -57.17291,180.1197 -145.96742,152.2682 -145.96742,152.2682 0,0 152.51248,58.0736 216.54271,-168.8532 14.37401,-83.0744 62.52733,-107.6954 62.52733,-107.6954 z"
     fill="#1c2740"
     style="stroke-width:0.563358" />
  <path
     id="path1577"
     data-name="Path 357"
     d="m 242.56578,1760.5141 c 0,0 -23.17402,-92.3115 65.73622,-131.2155 -1.05832,1.2996 -65.73622,131.2155 -65.73622,131.2155 z"
     fill="#1c2740"
     style="stroke-width:0.563359" />
  <path
     id="path1579"
     data-name="Path 358"
     d="m 227.20757,2131.3646 c 0,0 -61.30877,13.7253 -47.93374,92.3992 13.37504,78.6738 -44.13298,88.7105 -44.13298,88.7105 0,0 103.87766,-13.7895 91.07472,-108.3195 -6.43114,-52.2132 0.992,-72.7902 0.992,-72.7902 z"
     fill="#1c2740"
     style="stroke-width:0.563359" />
  <path
     id="path1581"
     data-name="Path 359"
     d="m 551.08304,1447.149 c 7.47327,0.9918 38.28839,46.3315 -78.2602,162.1289 -116.54859,115.7974 -98.78463,179.0057 -98.78463,179.0057 0,0 -55.46562,-186.6452 177.04483,-341.1346 z"
     fill="#1c2740"
     style="stroke-width:0.563624" />
  <path
     id="path1583"
     data-name="Path 360"
     d="m 410.95657,2192.4708 c 0,0 76.41579,-23.0029 57.6103,-99.9358 -18.80549,-76.9327 50.99792,-98.2729 50.99792,-98.2729 0,0 -102.43838,8.1317 -95.27981,69.2818 7.15857,61.15 -13.32841,128.9269 -13.32841,128.9269 z"
     fill="#1c2740"
     style="stroke-width:0.563359" />
  <path
     id="path1585"
     data-name="Path 361"
     d="m 337.69151,2248.711 c 0,0 -104.85014,-33.2622 -10.19179,-257.1995 37.63953,-62.4683 17.55451,-122.7522 17.55451,-122.7522 0,0 105.2081,67.2386 -0.76648,242.586 -50.06268,76.3479 -6.59624,137.3657 -6.59624,137.3657 z"
     fill="#1c2740"
     style="stroke-width:0.563359" />
  <path
     id="path1587"
     data-name="Path 362"
     d="m 198.75753,2011.0079 c 0,0 77.62161,-94.5985 -4.38857,-188.6375 0.51611,2.0916 4.38857,188.6375 4.38857,188.6375 z"
     fill="#1c2740"
     style="stroke-width:0.563359" />
  <path
     id="path1589"
     data-name="Path 363"
     d="m 104.07311,2391.4534 c 0,0 -81.296836,-20.1254 -61.122366,-124.5789 20.174473,-104.4537 -56.168414,-119.5496 -56.168414,-119.5496 0,0 138.02925,21.4835 118.14361,147.0869 -10.131803,69.3955 -0.85283,97.0416 -0.85283,97.0416 z"
     fill="#1c2740"
     style="stroke-width:0.563242" />
  <path
     id="path1591"
     data-name="Path 364"
     d="m 23.373241,2528.3928 c 0,0 -49.980083,-40.7991 -3.767631,-120.0912 14.73684,-25.8332 -11.7447771,-63.4402 -11.7447771,-63.4402 0,0 107.1261871,59.156 54.5732151,115.2654 -52.5529652,56.1094 -39.060807,68.266 -39.060807,68.266 z"
     fill="#1c2740"
     style="stroke-width:0.563359" />
  <path
     id="path1593"
     data-name="Path 365"
     d="m 158.15225,2794.8928 c 0,0 -24.3258,41.715 15.74694,68.0039 40.07274,26.2889 17.98673,64.5384 17.98673,64.5384 0,0 41.97943,-45.8757 13.57546,-69.981 -28.40396,-24.1054 -47.30913,-62.5613 -47.30913,-62.5613 z"
     fill="#1c2740"
     style="stroke-width:0.563359" />
  <path
     id="path1595"
     data-name="Path 366"
     d="m 123.32977,2171.858 c 0,0 -55.957962,-108.9133 8.06393,-147.0631 28.06553,1.5389 -8.06393,147.0631 -8.06393,147.0631 z"
     fill="#1c2740"
     style="stroke-width:0.563359" />
  <path
     id="path1597"
     data-name="Path 367"
     d="m 501.30844,1717.5133 c 0,0 -141.15144,124.9701 -70.62942,215.4861 41.123,13.4788 70.62942,-215.4861 70.62942,-215.4861 z"
     fill="#1c2740"
     style="stroke-width:0.563427" />
  <path
     id="path1599"
     data-name="Path 368"
     d="m 556.23759,2196.41 c 2.27658,3.9304 -47.20455,-65.3845 -20.58872,-134.3345 34.35828,-1.9216 33.17647,-95.2304 33.17647,-95.2304 0,0 38.63626,0.2155 22.02686,60.1988 -16.6094,59.9834 -53.67846,124.5536 -34.61461,169.3661 z"
     fill="#1c2740"
     style="stroke-width:0.563359" />
  <path
     id="path1601"
     data-name="Path 369"
     d="m 563.25285,1711.0194 c -1.87609,-3.2393 38.89728,53.879 16.96508,110.6948 -28.31181,1.584 -27.33769,78.472 -27.33769,78.472 0,0 -31.8374,-0.1778 -18.15054,-49.605 13.68687,-49.427 44.2323,-102.6325 28.52315,-139.5618 z"
     fill="#1c2740"
     style="stroke-width:0.563359" />
  <path
     id="path1603"
     data-name="Path 370"
     d="m 480.01106,2246.0064 c 0,0 31.52547,21.2827 12.079,53.6396 -19.44648,32.3569 9.30494,51.9472 9.30494,51.9472 0,0 -45.47725,-18.1974 -33.56546,-45.0169 11.91178,-26.8194 12.18152,-60.5699 12.18152,-60.5699 z"
     fill="#1c2740"
     style="stroke-width:0.563359" />
  <path
     id="path1605"
     data-name="Path 372"
     d="m 882.76434,1001.9968 c 0,0 27.8906,69.135 -39.16806,100.3844 -67.0586,31.2494 -41.81982,94.5926 -41.81982,94.5926 0,0 -53.93443,-79.4084 -5.18562,-109.9247 48.74881,-30.5163 86.1735,-85.0523 86.1735,-85.0523 z"
     fill="#1c2740"
     style="stroke-width:0.563359" />
  <path
     id="path1607"
     data-name="Path 373"
     d="m 472.04489,1423.1171 c 0,0 -16.11466,-55.8569 37.3306,-81.5009 -0.61756,0.8163 -37.3306,81.5009 -37.3306,81.5009 z"
     fill="#1c2740"
     style="stroke-width:0.563359" />
  <path
     id="path1611"
     data-name="Path 375"
     d="m 645.56528,1485.3703 c 0,0 -20.16981,-97.4979 70.77069,-114.1334 -1.11089,1.03 -70.77069,114.1334 -70.77069,114.1334 z"
     fill="#1c2740"
     style="stroke-width:0.563355" />
  <path
     id="path1613"
     data-name="Path 376"
     d="m 670.05471,1124.5918 c 0,0 -48.25245,-1.8943 -52.65115,45.8297 -4.3987,47.724 -48.53975,46.1803 -48.53975,46.1803 0,0 60.21394,15.5283 68.16289,-20.8678 7.94894,-36.3959 33.02801,-71.1422 33.02801,-71.1422 z"
     fill="#1c2740"
     style="stroke-width:0.563359" />
  <path
     id="path1615"
     data-name="Path 378"
     d="m 771.48164,1337.7829 c -6.22615,-2.1254 -38.69177,-39.9469 36.771,-99.2423 75.46276,-59.2953 50.63941,-107.2076 50.63941,-107.2076 0,0 75.74279,142.0533 -87.41041,206.4499 z"
     fill="#1c2740"
     style="stroke-width:0.563359" />
  <path
     id="path1617"
     data-name="Path 379"
     d="m 653.88321,1882.7491 c 0,0 -80.10724,-31.3834 5.76628,-122.8353 85.87349,-91.4521 16.83679,-139.5846 16.83679,-139.5846 0,0 125.31151,79.546 12.5551,189.6622 -46.45735,34.5282 -35.15817,72.7577 -35.15817,72.7577 z"
     fill="#1c2740"
     style="stroke-width:0.563359" />
  <path
     id="path1619"
     data-name="Path 380"
     d="m 1624.2331,771.86164 c 0,0 -31.7248,-88.75201 -179.8439,28.60519 -148.119,117.3572 -206.1595,44.61454 -206.1595,44.61454 0,0 93.9658,133.4282 273.9438,-18.89969 58.3705,-60.83471 112.0596,-54.32004 112.0596,-54.32004 z"
     fill="#1c2740"
     style="stroke-width:0.563359" />
  <path
     id="path1621"
     data-name="Path 381"
     d="m 1039.2624,790.58125 c 0,0 32.4279,-89.50965 127.9175,-72.02786 -1.6046,0.48553 -127.9175,72.02786 -127.9175,72.02786 z"
     fill="#1c2740"
     style="stroke-width:0.563517" />
  <path
     id="path1623"
     data-name="Path 382"
     d="m 763.7962,1188.0703 c 0,0 -52.48758,-24.4305 -72.94523,29.96 -20.45765,54.3904 -68.58352,29.7685 -68.58352,29.7685 0,0 85.23522,47.0824 112.32671,-16.5301 15.45662,-34.7935 29.20204,-43.1984 29.20204,-43.1984 z"
     fill="#1c2740"
     style="stroke-width:0.563359" />
  <path
     id="path1625"
     data-name="Path 383"
     d="m 1347.7413,756.17278 c 5.6424,5.00065 5.8454,59.8253 -155.5396,90.68388 -161.385,30.85854 -181.9943,93.20328 -181.9943,93.20328 0,0 58.3598,-185.77862 337.5339,-183.88716 z"
     fill="#1c2740"
     style="stroke-width:0.563674" />
  <path
     id="path1627"
     data-name="Path 384"
     d="m 1065.7024,1041.0992 c 0,0 76.2146,23.6608 103.6445,-50.63521 27.4298,-74.29611 97.2327,-52.95436 97.2327,-52.95436 0,0 -89.4725,-50.54125 -117.7324,4.15747 -28.26,54.69872 -83.1448,99.4321 -83.1448,99.4321 z"
     fill="#1c2740"
     style="stroke-width:0.563359" />
  <path
     id="path1629"
     data-name="Path 385"
     d="m 723.45293,1143.3486 c 0,0 -68.31674,-86.1692 135.2977,-218.87958 66.11073,-30.74145 83.15481,-91.9338 83.15481,-91.9338 0,0 49.62454,114.53102 -136.2133,200.64248 -84.16498,35.3027 -82.23921,110.1709 -82.23921,110.1709 z"
     fill="#1c2740"
     style="stroke-width:0.563182" />
  <path
     id="path1631"
     data-name="Path 386"
     d="m 932.89198,827.6073 c 0,0 117.25002,-35.02022 101.84642,-158.84163 -0.7416,2.02258 -101.84642,158.84163 -101.84642,158.84163 z"
     fill="#1c2740"
     style="stroke-width:0.563359" />
  <path
     id="path1633"
     data-name="Path 387"
     d="m 922.67618,1451.3426 c 0,0 -56.18942,-62.1758 18.98146,-137.5497 75.17086,-75.3739 20.27803,-130.6058 20.27803,-130.6058 0,0 102.49763,95.0397 15.73482,188.1221 -47.22691,51.9061 -54.99431,80.0334 -54.99431,80.0334 z"
     fill="#1c2740"
     style="stroke-width:0.563595" />
  <path
     id="path1635"
     data-name="Path 388"
     d="m 525.22125,1418.6071 c 0,0 -18.62083,-61.7724 64.03066,-101.6669 26.66311,-13.1759 25.73837,-59.1618 25.73837,-59.1618 0,0 55.73206,108.9467 -19.21233,126.0763 -74.94437,17.1295 -70.5567,34.7524 -70.5567,34.7524 z"
     fill="#1c2740"
     style="stroke-width:0.563359" />
  <path
     id="path1637"
     data-name="Path 389"
     d="m 431.91807,1446.9573 c 0,0 -65.59644,-3.7981 -72.63827,61.1302 -7.04184,64.9283 -67.05409,61.7125 -67.05409,61.7125 0,0 81.55935,22.6833 93.18515,-26.7212 11.62579,-49.4045 46.50721,-96.1215 46.50721,-96.1215 z"
     fill="#1c2740"
     style="stroke-width:0.563358" />
  <path
     id="path1639"
     data-name="Path 390"
     d="m 959.93011,1182.8993 c 0,0 14.51229,-121.5846 88.92199,-117.4116 22.4068,16.9698 -88.92199,117.4116 -88.92199,117.4116 z"
     fill="#1c2740"
     style="stroke-width:0.563359" />
  <path
     id="path1641"
     data-name="Path 391"
     d="m 1268.4741,1046.2417 c 0,0 -186.8764,24.7001 -179.0101,139.162 26.5575,34.1619 179.0101,-139.162 179.0101,-139.162 z"
     fill="#1c2740"
     style="stroke-width:0.563359" />
  <path
     id="path1643"
     data-name="Path 392"
     d="m 913.37495,1117.8132 c -0.31046,4.5315 -2.57184,-80.6027 58.0501,-122.88146 29.55885,17.61986 80.75665,-60.39751 80.75665,-60.39751 0,0 31.9105,21.78382 -15.4016,62.22441 -47.31218,40.44066 -114.15097,73.24296 -123.40515,121.05456 z"
     fill="#1c2740"
     style="stroke-width:0.563359" />
  <path
     id="path1645"
     data-name="Path 393"
     d="m 1227.615,548.57183 c 0.2562,-3.73459 2.1186,66.41878 -47.835,101.25683 -24.3573,-14.51859 -66.545,49.76926 -66.545,49.76926 0,0 -26.2949,-17.95071 12.6913,-51.27403 38.9862,-33.32336 94.0616,-60.35181 101.6887,-99.75206 z"
     fill="#1c2740"
     style="stroke-width:0.563359" />
  <path
     id="path1647"
     data-name="Path 394"
     d="m 1106.7253,1204.8266 c 0,0 14.2313,35.2743 -19.9857,51.2218 -34.2171,15.9474 -21.3389,48.2674 -21.3389,48.2674 0,0 -27.5226,-40.5195 -2.6486,-56.0905 24.874,-15.571 43.9732,-43.3987 43.9732,-43.3987 z"
     fill="#1c2740"
     style="stroke-width:0.563359" />
  <path
     id="path1649"
     data-name="Path 395"
     d="m 1433.647,474.1223 c 0,0 1.6805,-107.39662 138.0278,-112.33997 136.3473,-4.94334 133.1726,-104.69839 133.1726,-104.69839 0,0 13.0005,178.68347 -149.6933,190.08826 -89.6394,7.3751 -121.5071,26.9501 -121.5071,26.9501 z"
     fill="#1c2740"
     style="stroke-width:0.563359" />
  <path
     id="path1651"
     data-name="Path 396"
     d="m 2043.3501,546.52853 c 0,0 -26.7521,69.58356 -97.1077,46.704 -70.3556,-22.87949 -95.0972,40.65962 -95.0972,40.65962 0,0 14.7113,-94.85879 71.176,-83.93041 56.4647,10.92838 121.0289,-3.43321 121.0289,-3.43321 z"
     fill="#1c2740"
     style="stroke-width:0.563359" />
  <path
     id="path1653"
     data-name="Path 397"
     d="m 1535.9369,522.0076 c 0,0 26.3088,-51.84125 82.8853,-34.14654 -1.0084,0.17586 -82.8853,34.14654 -82.8853,34.14654 z"
     fill="#1c2740"
     style="stroke-width:0.563359" />
  <path
     id="path1655"
     data-name="Path 398"
     d="m 2079.1554,295.93933 c 0,0 -27.1648,-56.64994 -100.8136,-25.91995 -73.6487,30.73005 -96.3646,-23.04629 -96.3646,-23.04629 0,0 36.8034,98.1133 126.0306,64.37391 49.4283,-18.01178 71.1476,-15.40767 71.1476,-15.40767 z"
     fill="#1c2740"
     style="stroke-width:0.563359" />
  <path
     id="path1657"
     data-name="Path 399"
     d="m 1732.1799,571.59278 c 0,0 46.6494,-62.06848 116.9477,-25.64791 -1.3672,-0.003 -116.9477,25.64791 -116.9477,25.64791 z"
     fill="#1c2740"
     style="stroke-width:0.563557" />
  <path
     id="path1659"
     data-name="Path 400"
     d="m 1841.6204,258.82568 c 0,0 -33.9964,-34.30295 -69.7703,-2.40149 -35.7739,31.90145 -67.0027,0.65975 -67.0027,0.65975 0,0 33.4433,52.4339 64.0857,31.23896 30.6424,-21.19493 72.6873,-29.49722 72.6873,-29.49722 z"
     fill="#1c2740"
     style="stroke-width:0.563427" />
  <path
     id="path1661"
     data-name="Path 401"
     d="m 2067.8785,631.06195 c 0,0 -11.8183,-80.0366 166.742,-89.66576 53.4315,4.7408 86.8085,-27.97393 86.8085,-27.97393 0,0 -10.5281,91.22877 -160.6144,77.70965 -66.6135,-8.47873 -92.9361,39.93004 -92.9361,39.93004 z"
     fill="#1c2740"
     style="stroke-width:0.563359" />
  <path
     id="path1663"
     data-name="Path 402"
     d="m 1742.7209,378.01137 c -2.4158,-3.04236 2.388,-30.87701 87.0343,-32.09165 84.6462,-1.21464 100.6812,-31.00171 100.6812,-31.00171 0,0 -46.2359,89.03682 -187.7155,63.09336 z"
     fill="#1c2740"
     style="stroke-width:0.563359" />
  <path
     id="path1665"
     data-name="Path 403"
     d="m 1383.8636,685.7654 c 0,0 -12.3526,-45.47113 69.5219,-38.87112 81.8746,6.60008 82.799,-39.69003 82.799,-39.69003 0,0 2.6155,81.38986 -99.4245,69.36591 -36.0925,-8.606 -52.8964,9.19524 -52.8964,9.19524 z"
     fill="#1c2740"
     style="stroke-width:0.563359" />
  <path
     id="path1667"
     data-name="Path 404"
     d="m 2783.6478,416.42695 c 0,0 37.3267,-86.54532 -151.0382,-101.73266 -188.3648,-15.18728 -181.2026,-107.97147 -181.2026,-107.97147 0,0 -22.2755,161.66781 213.2394,173.00684 84.1787,-4.683 119.0014,36.69729 119.0014,36.69729 z"
     fill="#1c2740"
     style="stroke-width:0.563359" />
  <path
     id="path1669"
     data-name="Path 405"
     d="m 2779.3021,21.96918 c 0,0 84.7325,-43.345631 142.6399,34.534317 -1.5044,-0.73883 -142.6399,-34.534317 -142.6399,-34.534317 z"
     fill="#1c2740"
     style="stroke-width:0.563359" />
  <path
     id="path1671"
     data-name="Path 406"
     d="m 1693.8427,572.50185 c 0,0 -27.1648,-56.64994 -100.8136,-25.91995 -73.6487,30.73005 -96.3646,-23.04629 -96.3646,-23.04629 0,0 36.8034,98.1133 126.0306,64.37391 49.4283,-18.01178 71.1476,-15.40767 71.1476,-15.40767 z"
     fill="#1c2740"
     style="stroke-width:0.563359" />
  <path
     id="path1673"
     data-name="Path 408"
     d="m 2215.4448,92.726617 c 0,0 39.6032,69.282743 110.3339,33.653133 70.7307,-35.629593 107.2263,27.58421 107.2263,27.58421 0,0 -30.9669,-97.983643 -88.9394,-77.252783 -57.9725,20.73087 -128.6208,16.01544 -128.6208,16.01544 z"
     fill="#1c2740"
     style="stroke-width:0.563359" />
  <path
     id="path1675"
     data-name="Path 409"
     d="m 2075.4607,372.50571 c 0,0 8.8236,-109.64521 248.3148,-67.78787 69.3343,22.62253 123.555,-10.50864 123.555,-10.50864 0,0 -41.8486,117.63702 -236.5409,53.82314 -85.6528,-31.60503 -135.3289,24.47337 -135.3289,24.47337 z"
     fill="#1c2740"
     style="stroke-width:0.563359" />
  <path
     id="path1677"
     data-name="Path 410"
     d="m 2092.2802,227.50185 c 0,0 109.635,54.35213 182.8155,-46.7103 -1.9219,0.97338 -182.8155,46.7103 -182.8155,46.7103 z"
     fill="#1c2740"
     style="stroke-width:0.563359" />
  <path
     id="path1681"
     data-name="Path 412"
     d="m 1854.1204,191.79502 c 0,0 28.5103,-57.87686 116.1657,-30.6857 28.4861,8.54797 59.1721,-25.71467 59.1721,-25.71467 0,0 -33.5415,117.68775 -100.0348,79.10357 -66.4932,-38.58417 -75.303,-22.7032 -75.303,-22.7032 z"
     fill="#1c2740"
     style="stroke-width:0.563359" />
  <path
     id="path1683"
     data-name="Path 413"
     d="m 1329.5352,656.12541 c 0,0 -46.118,-14.3185 -62.7187,30.64091 -16.6007,44.95937 -58.8381,32.04368 -58.8381,32.04368 0,0 54.1432,30.58377 71.2412,-2.51478 17.0981,-33.0985 50.3156,-60.16981 50.3156,-60.16981 z"
     fill="#1c2740"
     style="stroke-width:0.563359" />
  <path
     id="path1685"
     data-name="Path 414"
     d="m 2029.4582,135.39465 c 0,0 93.5341,-79.023899 145.1079,-25.22477 4.8139,27.69241 -145.1079,25.22477 -145.1079,25.22477 z"
     fill="#1c2740"
     style="stroke-width:0.563359" />
  <path
     id="path1687"
     data-name="Path 415"
     d="m 2721.469,472.40064 c 0,0 -153.5181,-109.38472 -225.8279,-20.3078 -3.8755,43.09659 225.8279,20.3078 225.8279,20.3078 z"
     fill="#1c2740"
     style="stroke-width:0.563359" />
  <path
     id="path1689"
     data-name="Path 416"
     d="m 2148.9933,475.31539 c -3.3175,3.10238 53.09,-60.70298 126.2601,-50.27971 9.6013,33.04542 100.2528,10.90401 100.2528,10.90401 0,0 8.4812,37.69449 -53.701,35.0041 -62.1824,-2.69041 -133.4363,-24.28425 -172.8119,4.3716 z"
     fill="#1c2740"
     style="stroke-width:0.563359" />
  <path
     id="path1691"
     data-name="Path 417"
     d="m 2792.358,216.43116 c 2.7343,-2.55668 -43.7481,50.02048 -104.0413,41.43114 -7.9122,-27.22984 -82.6105,-8.98464 -82.6105,-8.98464 0,0 -6.9886,-31.06138 44.2506,-28.84402 51.2391,2.21741 109.9521,20.01133 142.4012,-3.60248 z"
     fill="#1c2740"
     style="stroke-width:0.563359" />
  <path
     id="path1693"
     data-name="Path 418"
     d="m 2579.2083,38.62555 c 0,0 -13.6489,35.503716 -49.5498,23.830986 -35.9008,-11.672721 -48.5245,20.74746 -48.5245,20.74746 0,0 7.5054,-48.404418 36.3164,-42.828295 28.8111,5.576125 61.7579,-1.750151 61.7579,-1.750151 z"
     fill="#1c2740"
     style="stroke-width:0.563359" />
  <path
     id="path1695"
     data-name="Path 421"
     d="m 1411.8334,569.15545 c 0,0 -33.9964,-34.30296 -69.7703,-2.4015 -35.7738,31.90146 -67.0026,0.65976 -67.0026,0.65976 0,0 33.4432,52.43388 64.0856,31.23896 30.6425,-21.19493 72.6873,-29.49722 72.6873,-29.49722 z"
     fill="#1c2740"
     style="stroke-width:0.563427" />
  <path
     id="path1697"
     data-name="Path 422"
     d="m 1817.4504,478.09877 c 0,0 43.194,-67.78288 166.0815,-40.82147 39.9484,8.43151 85.0863,-32.36321 85.0863,-32.36321 0,0 -53.211,136.64872 -145.5648,95.59423 -92.3538,-41.05443 -105.603,-22.40955 -105.603,-22.40955 z"
     fill="#1c2740"
     style="stroke-width:0.563359" />
  <path
     id="path1699"
     data-name="Path 423"
     d="m 1637.3071,790.35377 c 0,0 -29.4078,-53.62533 91.347,-74.95984 120.7548,-21.33444 110.452,-80.8347 110.452,-80.8347 0,0 24.2795,103.07204 -127.1691,124.80813 -54.666,2.12427 -74.6299,30.98641 -74.6299,30.98641 z"
     fill="#1c2740"
     style="stroke-width:0.563359" />
  <path
     id="path1701"
     data-name="Path 424"
     d="m 1334.996,1022.753 c 0,0 19.5115,-100.52539 83.4379,-55.06561 -1.0555,0.18405 -83.4379,55.06561 -83.4379,55.06561 z"
     fill="#1c2740"
     style="stroke-width:0.563359" />
  <path
     id="path1707"
     data-name="Path 347"
     d="m 2979.7552,5554.0817 c 0,0 -21.889,105.133 -156.6961,84.292 -134.8071,-20.841 -150.4888,77.704 -150.4888,77.704 0,0 20.9082,-177.8942 182.8017,-158.4326 89.4043,9.6511 124.3832,-3.5634 124.3832,-3.5634 z"
     fill="#1c2740"
     style="stroke-width:0.563242" />
  <path
     id="path1709"
     data-name="Path 348"
     d="m 2101.8899,5550.691 c 0,0 39.3737,-63.3031 104.1641,-27.5874 64.7904,35.7158 101.0515,-22.0294 101.0515,-22.0294 0,0 -32.3065,90.3932 -85.7043,69.03 -53.3977,-21.3631 -119.5113,-19.4132 -119.5113,-19.4132 z"
     fill="#1c2740"
     style="stroke-width:0.56336" />
  <path
     id="path1711"
     data-name="Path 349"
     d="m 2873.3946,5271.779 c 0,0 -35.6024,45.958 -87.8334,17.9235 1.0235,0.017 87.8334,-17.9235 87.8334,-17.9235 z"
     fill="#1c2740"
     style="stroke-width:0.563359" />
  <path
     id="path1713"
     data-name="Path 350"
     d="m 2256.2776,5247.1071 c 0,0 16.0086,60.7526 94.1272,44.4446 78.1186,-16.308 90.2989,40.7844 90.2989,40.7844 0,0 -17.6647,-103.2893 -111.6497,-86.96 -51.9362,8.3794 -72.7764,1.731 -72.7764,1.731 z"
     fill="#1c2740"
     style="stroke-width:0.563359" />
  <path
     id="path1715"
     data-name="Path 351"
     d="m 2818.389,5472.8406 c 0,0 -57.4973,52.168 -119.6731,3.166 1.3419,0.2606 119.6731,-3.166 119.6731,-3.166 z"
     fill="#1c2740"
     style="stroke-width:0.5635" />
  <path
     id="path1717"
     data-name="Path 352"
     d="m 2554.0368,5328.6101 c 0,0 26.9427,40.0645 68.0583,15.4548 41.1157,-24.6096 65.9154,11.9295 65.9154,11.9295 0,0 -22.9962,-57.764 -57.0633,-42.7041 -34.0671,15.0599 -76.9104,15.3198 -76.9104,15.3198 z"
     fill="#1c2740"
     style="stroke-width:0.56326" />
  <path
     id="path1719"
     data-name="Path 353"
     d="m 2948.6962,5340.0487 c 0,0 -3.4684,80.8301 -180.6464,56.6544 -51.5822,-14.7199 -90.5237,11.1225 -90.5237,11.1225 0,0 27.5229,-87.6129 172.3765,-46.0664 63.8242,20.8739 98.7936,-21.7105 98.7936,-21.7105 z"
     fill="#1c2740"
     style="stroke-width:0.563359" />
  <path
     id="path1721"
     data-name="Path 354"
     d="m 2688.8994,5225.5083 c 1.7995,3.4429 -8.161,29.8746 -91.5211,15.124 -83.3599,-14.7505 -104.7183,11.4832 -104.7183,11.4832 0,0 62.1787,-78.7345 196.2394,-26.6072 z"
     fill="#1c2740"
     style="stroke-width:0.563359" />
  <path
     id="path1723"
     data-name="Path 355"
     d="m 2627.1993,5500.6348 c 0,0 5.5392,60.9082 -113.6855,32.2316 -119.2247,-28.6764 -133.5467,29.9862 -133.5467,29.9862 0,0 18.9133,-104.1903 166.4372,-63.6214 50.964,19.8886 80.795,1.4036 80.795,1.4036 z"
     fill="#1c2740"
     style="stroke-width:0.563359" />
  <path
     id="path1725"
     data-name="Path 356"
     d="m 1715.9368,5026.1635 c 0,0 -52.9607,77.9649 129.1713,128.3616 182.1319,50.3968 157.6206,140.1708 157.6206,140.1708 0,0 52.3292,-154.5777 -176.8334,-210.0764 -83.5539,-11.2571 -109.9585,-58.456 -109.9585,-58.456 z"
     fill="#1c2740"
     style="stroke-width:0.563358" />
  <path
     id="path1727"
     data-name="Path 357"
     d="m 1882.8728,5292.1491 c 0,0 -91.3802,26.6102 -133.5822,-60.783 1.3382,1.009 133.5822,60.783 133.5822,60.783 z"
     fill="#1c2740"
     style="stroke-width:0.563359" />
  <path
     id="path1729"
     data-name="Path 358"
     d="m 2256.2776,5247.1071 c 0,0 16.0086,60.7526 94.1272,44.4446 78.1186,-16.308 90.2989,40.7844 90.2989,40.7844 0,0 -17.6647,-103.2893 -111.6497,-86.96 -51.9362,8.3794 -72.7764,1.731 -72.7764,1.731 z"
     fill="#1c2740"
     style="stroke-width:0.563359" />
  <path
     id="path1731"
     data-name="Path 359"
     d="m 1321.2227,5115.8833 c 0.7115,-7.5052 44.867,-39.9944 164.9422,72.1421 120.0751,112.1364 182.5748,92.021 182.5748,92.021 0,0 -184.4403,62.407 -347.517,-164.1631 z"
     fill="#1c2740"
     style="stroke-width:0.563626" />
  <path
     id="path1733"
     data-name="Path 360"
     d="m 2124.1304,5399.8634 c 0,0 -25.8446,-75.5021 -102.0203,-53.8325 -76.1756,21.6694 -100.1114,-47.287 -100.1114,-47.287 0,0 11.9571,102.0626 72.7966,92.6221 60.8396,-9.4405 129.3351,8.4974 129.3351,8.4974 z"
     fill="#1c2740"
     style="stroke-width:0.563359" />
  <path
     id="path1735"
     data-name="Path 361"
     d="m 2385.4573,5135.6908 c 0,0 -29.3177,106.0208 -256.6384,19.8036 -63.8322,-35.277 -123.3228,-12.9515 -123.3228,-12.9515 0,0 63.2569,-107.6491 242.4449,-8.3064 78.1668,47.1723 137.5163,1.4543 137.5163,1.4543 z"
     fill="#1c2740"
     style="stroke-width:0.563359" />
  <path
     id="path1737"
     data-name="Path 362"
     d="m 2220.4881,5275.59 c 0,0 -97.4352,-74.0295 -188.3413,11.4403 2.0707,-0.5939 188.3413,-11.4403 188.3413,-11.4403 z"
     fill="#1c2740"
     style="stroke-width:0.563359" />
  <path
     id="path1739"
     data-name="Path 363"
     d="m 2518.8201,5343.2542 c 0,0 -17.0708,81.9926 -122.2059,65.7387 -105.1351,-16.2539 -117.3653,60.6002 -117.3653,60.6002 0,0 16.3063,-138.7362 142.5655,-123.5619 69.726,7.5295 97.0057,-2.777 97.0057,-2.777 z"
     fill="#1c2740"
     style="stroke-width:0.563242" />
  <path
     id="path1741"
     data-name="Path 364"
     d="m 2684.0889,5452.8257 c 0,0 -38.9014,51.4709 -119.8663,8.2562 -26.3662,-13.7604 -62.9565,14.1092 -62.9565,14.1092 0,0 55.1082,-109.2637 113.1438,-58.8458 58.0355,50.4178 69.679,36.4804 69.679,36.4804 z"
     fill="#1c2740"
     style="stroke-width:0.563359" />
  <path
     id="path1743"
     data-name="Path 365"
     d="m 2921.9242,5291.2991 c 0,0 42.5956,22.7486 67.3674,-18.2792 24.7719,-41.0279 63.8205,-20.3877 63.8205,-20.3877 0,0 -47.4135,-40.2345 -70.4397,-10.9489 -23.0263,29.2856 -60.7482,49.6158 -60.7482,49.6158 z"
     fill="#1c2740"
     style="stroke-width:0.563359" />
  <path
     id="path1745"
     data-name="Path 366"
     d="m 2300.6278,5349.3975 c 0,0 -106.7444,59.9921 -147.2619,-2.5583 0.4883,-28.1035 147.2619,2.5583 147.2619,2.5583 z"
     fill="#1c2740"
     style="stroke-width:0.563359" />
  <path
     id="path1747"
     data-name="Path 367"
     d="m 1518.2437,5336.0417 c 0,0 130.1616,136.3789 217.9769,62.5211 11.9314,-41.5983 -217.9769,-62.5211 -217.9769,-62.5211 z"
     fill="#1c2740"
     style="stroke-width:0.563426" />
  <path
     id="path1749"
     data-name="Path 368"
     d="m 2041.7839,5485.5955 c 3.8425,-2.422 -63.5734,49.6168 -133.4706,25.5982 -3.2052,-34.2624 -96.4045,-29.5918 -96.4045,-29.5918 0,0 -1.2296,-38.6172 59.333,-24.2628 60.5626,14.3545 126.474,48.9828 170.5421,28.2564 z"
     fill="#1c2740"
     style="stroke-width:0.563359" />
  <path
     id="path1751"
     data-name="Path 369"
     d="m 1735.6026,5374.7754 c -3.1669,1.9959 52.3865,-40.885 109.9828,-21.093 2.6417,28.2328 79.4395,24.3838 79.4395,24.3838 0,0 1.013,31.8218 -48.8914,19.993 -49.9044,-11.8288 -104.215,-40.363 -140.5309,-23.2838 z"
     fill="#1c2740"
     style="stroke-width:0.563359" />
  <path
     id="path1753"
     data-name="Path 370"
     d="m 2123.4166,5438.2545 c 0,0 20.0888,-32.2994 53.1503,-14.0766 33.0615,18.2228 51.5629,-11.2412 51.5629,-11.2412 0,0 -16.4839,46.126 -43.7301,35.2256 -27.2461,-10.9004 -60.9831,-9.9078 -60.9831,-9.9078 z"
     fill="#1c2740"
     style="stroke-width:0.56336" />
  <path
     id="path1755"
     data-name="Path 372"
     d="m 1313.5006,4759.05 c 0,0 68.0436,-30.4567 101.7791,35.3863 33.7354,65.8431 96.0903,38.253 96.0903,38.253 0,0 -77.3357,56.8665 -109.6538,9.293 -32.3181,-47.5734 -88.2156,-82.9323 -88.2156,-82.9323 z"
     fill="#1c2740"
     style="stroke-width:0.563359" />
  <path
     id="path1757"
     data-name="Path 373"
     d="m 1602.1905,5183.1345 c 0,0 -55.2151,18.1923 -82.84,-34.2565 0.8388,0.5865 82.84,34.2565 82.84,34.2565 z"
     fill="#1c2740"
     style="stroke-width:0.563359" />
  <path
     id="path1759"
     data-name="Path 374"
     d="m 1290.2283,4948.7423 c 0,0 -56.3467,27.7834 -95.3025,-41.8647 -38.9558,-69.6479 -90.0296,-41.3768 -90.0296,-41.3768 0,0 89.5332,-54.4473 138.8824,27.1897 27.7596,44.6869 46.4497,56.0518 46.4497,56.0518 z"
     fill="#1c2740"
     style="stroke-width:0.563359" />
  <path
     id="path1761"
     data-name="Path 375"
     d="m 1594.8471,4988.5391 c 0,0 -96.6753,23.802 -116.7002,-66.4527 1.0707,1.0716 116.7002,66.4527 116.7002,66.4527 z"
     fill="#1c2740"
     style="stroke-width:0.563355" />
  <path
     id="path1763"
     data-name="Path 376"
     d="m 1267.4697,5001.4932 c 0,0 -0.089,48.2895 47.7667,50.9004 47.8551,2.6107 47.9632,46.7787 47.9632,46.7787 0,0 13.2656,-60.7526 -23.4023,-67.3348 -36.6677,-6.5822 -72.3276,-30.3443 -72.3276,-30.3443 z"
     fill="#1c2740"
     style="stroke-width:0.563359" />
  <path
     id="path1765"
     data-name="Path 378"
     d="m 1526.9851,5065.4135 c -1.891,6.3013 -38.4718,40.1586 -100.5479,-33.0338 -62.0762,-73.1924 -109.0265,-46.5946 -109.0265,-46.5946 0,0 139.1213,-81.0024 209.5744,79.6284 z"
     fill="#1c2740"
     style="stroke-width:0.563359" />
  <path
     id="path1767"
     data-name="Path 379"
     d="m 1757.2033,4969.3969 c 0,0 -43.793,74.0558 -120.3314,-25.3404 -76.5384,-99.3962 -135.0941,-38.9476 -135.0941,-38.9476 0,0 98.5662,-110.974 189.2284,17.9445 26.6524,51.3821 66.1971,46.3435 66.1971,46.3435 z"
     fill="#1c2740"
     style="stroke-width:0.563359" />
  <path
     id="path1769"
     data-name="Path 380"
     d="m 759.38236,4310.6949 c 0,0 -87.50351,35.0217 35.31102,178.6481 122.81451,143.6264 52.29344,204.3468 52.29344,204.3468 0,0 129.82068,-98.8902 -29.1316,-273.0453 -62.97509,-56.0546 -58.47286,-109.9496 -58.47286,-109.9496 z"
     fill="#1c2740"
     style="stroke-width:0.563359" />
  <path
     id="path1771"
     data-name="Path 381"
     d="m 747.00373,4634.2574 c 0,0 -90.65979,-29.0578 -76.76139,-125.1343 0.5452,1.5854 76.76139,125.1343 76.76139,125.1343 z"
     fill="#1c2740"
     style="stroke-width:0.563518" />
  <path
     id="path1773"
     data-name="Path 382"
     d="m 1285.406,4811.4881 c 0,0 -22.4505,53.3645 32.667,71.7737 55.1174,18.4093 32.3127,67.4223 32.3127,67.4223 0,0 43.8617,-86.9364 -20.7195,-111.63 -35.3472,-14.1446 -44.2602,-27.566 -44.2602,-27.566 z"
     fill="#1c2740"
     style="stroke-width:0.563359" />
  <path
     id="path1775"
     data-name="Path 383"
     d="m 409.86794,4228.3692 c 4.7861,-5.8256 59.56484,-8.0788 96.43737,152.0392 36.87253,160.118 99.94439,178.3814 99.94439,178.3814 0,0 -187.8312,-51.3711 -196.38176,-330.4206 z"
     fill="#1c2740"
     style="stroke-width:0.563675" />
  <path
     id="path1777"
     data-name="Path 384"
     d="m 886.68638,4858.6343 c 0,0 20.79401,-77.0462 -54.47594,-101.6783 -75.26991,-24.632 -56.5536,-95.1842 -56.5536,-95.1842 0,0 -47.1598,91.3 8.55753,117.4945 55.71735,26.1946 102.47201,79.368 102.47201,79.368 z"
     fill="#1c2740"
     style="stroke-width:0.563359" />
  <path
     id="path1779"
     data-name="Path 385"
     d="m 1250.3938,4788.1592 c 0,0 -83.5539,71.4915 -223.7863,-127.0173 -33.19244,-64.9148 -94.97946,-79.6584 -94.97946,-79.6584 0,0 112.59506,-53.8731 205.59626,128.6143 38.4257,82.7857 113.1695,78.0614 113.1695,78.0614 z"
     fill="#1c2740"
     style="stroke-width:0.563182" />
  <path
     id="path1781"
     data-name="Path 386"
     d="m 1036.0632,4809.4895 c 0,0 -39.38074,-115.8582 -162.53949,-95.8348 2.04892,0.6656 162.53949,95.8348 162.53949,95.8348 z"
     fill="#1c2740"
     style="stroke-width:0.563359" />
  <path
     id="path1783"
     data-name="Path 387"
     d="m 1245.3327,5032.122 c 0,0 -60.0309,58.4754 -138.1634,-13.8241 -78.1324,-72.2993 -131.27278,-15.3793 -131.27278,-15.3793 0,0 91.13988,-105.9803 187.40198,-22.7593 53.636,45.2526 82.0342,51.9627 82.0342,51.9627 z"
     fill="#1c2740"
     style="stroke-width:0.563599" />
  <path
     id="path1785"
     data-name="Path 388"
     d="m 1311.3021,5188.5701 c 0,0 -61.0328,20.918 -103.9905,-60.1836 -14.1639,-26.1517 -60.083,-23.5079 -60.083,-23.5079 0,0 106.7862,-59.7675 126.7066,14.4839 19.9204,74.2513 37.3669,69.2076 37.3669,69.2076 z"
     fill="#1c2740"
     style="stroke-width:0.563359" />
  <path
     id="path1787"
     data-name="Path 389"
     d="m 1564.6932,5068.1357 c 0,0 -1.3421,65.6925 63.804,70.3012 65.1462,4.6087 64.1771,64.6992 64.1771,64.6992 0,0 19.6173,-82.3506 -30.1875,-92.1206 -49.8047,-9.77 -97.7936,-42.8798 -97.7936,-42.8798 z"
     fill="#1c2740"
     style="stroke-width:0.563358" />
  <path
     id="path1789"
     data-name="Path 390"
     d="m 1061.229,4915.4922 c 0,0 -122.0422,-9.955 -120.65502,-84.4687 16.12001,-23.0258 120.65502,84.4687 120.65502,84.4687 z"
     fill="#1c2740"
     style="stroke-width:0.563359" />
  <path
     id="path1791"
     data-name="Path 391"
     d="m 874.8216,4354.6474 c 0,0 31.67186,185.8218 145.7594,173.6803 33.1449,-27.8165 -145.7594,-173.6803 -145.7594,-173.6803 z"
     fill="#1c2740"
     style="stroke-width:0.563359" />
  <path
     id="path1793"
     data-name="Path 392"
     d="m 1252.2486,4669.6791 c 4.5399,0.1408 -80.45,5.5844 -124.9665,-53.4139 16.5021,-30.1971 -63.3754,-78.4414 -63.3754,-78.4414 0,0 20.5751,-32.7028 62.7568,13.0638 42.1818,45.7666 77.4608,111.3319 125.5851,118.7915 z"
     fill="#1c2740"
     style="stroke-width:0.563359" />
  <path
     id="path1795"
     data-name="Path 393"
     d="m 578.61088,4620.5723 c -3.74156,-0.1162 66.29307,-4.601 102.97497,44.0147 -13.59748,24.8833 52.2231,64.6372 52.2231,64.6372 0,0 -16.95471,26.9479 -51.71277,-10.7648 -34.75806,-37.7127 -63.82736,-91.7388 -103.4853,-97.8871 z"
     fill="#1c2740"
     style="stroke-width:0.563359" />
  <path
     id="path1797"
     data-name="Path 394"
     d="m 864.63208,4890.0531 c 0,0 34.71741,-15.5406 51.93339,18.0561 17.21599,33.5967 49.03167,19.5188 49.03167,19.5188 0,0 -39.46184,29.0187 -55.95214,4.7445 -16.49039,-24.2742 -45.01292,-42.3194 -45.01292,-42.3194 z"
     fill="#1c2740"
     style="stroke-width:0.563359" />
  <path
     id="path1799"
     data-name="Path 395"
     d="m 596.67664,4187.3051 c 0,0 -107.38431,2.3372 -117.42339,-133.7298 -10.03909,-136.067 -109.60565,-129.1638 -109.60565,-129.1638 0,0 178.07231,-19.6739 195.55363,142.4794 10.72234,89.3009 31.47541,120.4142 31.47541,120.4142 z"
     fill="#1c2740"
     style="stroke-width:0.563359" />
  <path
     id="path1801"
     data-name="Path 396"
     d="m 451.95857,3498.1573 c 0,0 70.53534,24.1311 50.30303,95.2931 -20.23232,71.1621 44.18765,93.51 44.18765,93.51 0,0 -95.34262,-11.1534 -86.53358,-67.9873 8.80905,-56.8339 -7.9571,-120.8158 -7.9571,-120.8158 z"
     fill="#1c2740"
     style="stroke-width:0.563359" />
  <path
     id="path1803"
     data-name="Path 397"
     d="m 398.77709,4061.3913 c 0,0 -52.78894,-24.3516 -37.22246,-81.5504 0.21344,1.0012 37.22246,81.5504 37.22246,81.5504 z"
     fill="#1c2740"
     style="stroke-width:0.563359" />
  <path
     id="path1805"
     data-name="Path 398"
     d="m 283.99567,3454.5409 c 0,0 -55.59437,29.2645 -22.13151,101.7125 33.46287,72.4479 -19.4263,97.1591 -19.4263,97.1591 0,0 96.66829,-40.447 59.61551,-128.3498 -19.84769,-48.7203 -18.0577,-70.5218 -18.0577,-70.5218 z"
     fill="#1c2740"
     style="stroke-width:0.563359" />
  <path
     id="path1807"
     data-name="Path 399"
     d="m 466.98019,3780.839 c 0,0 -63.76969,-44.2956 -30.00365,-115.9068 0.0479,1.3663 30.00365,115.9068 30.00365,115.9068 z"
     fill="#1c2740"
     style="stroke-width:0.563558" />
  <path
     id="path1809"
     data-name="Path 400"
     d="m 271.95747,3763.0589 c 0,0 -33.0075,35.2554 0.20951,69.8112 33.21703,34.5558 3.16509,66.9312 3.16509,66.9312 0,0 51.1465,-35.3808 28.82042,-65.2092 -22.32609,-29.8283 -32.19502,-71.5332 -32.19502,-71.5332 z"
     fill="#1c2740"
     style="stroke-width:0.563426" />
  <path
     id="path1811"
     data-name="Path 401"
     d="m 348.55175,4165.1504 c 0,0 -79.53861,14.8033 -95.83897,-163.272 2.73924,-53.5715 -31.20082,-85.7016 -31.20082,-85.7016 0,0 91.55868,7.1089 83.66198,157.5959 -5.98152,66.8839 43.37781,91.3777 43.37781,91.3777 z"
     fill="#1c2740"
     style="stroke-width:0.563359" />
  <path
     id="path1813"
     data-name="Path 402"
     d="m 402.35839,3871.2147 c -2.94986,2.5279 -30.94473,-1.2315 -35.32415,-85.7731 -4.37943,-84.5417 -34.74532,-99.4514 -34.74532,-99.4514 0,0 90.70368,42.8737 70.06947,185.2245 z"
     fill="#1c2740"
     style="stroke-width:0.563359" />
  <path
     id="path1815"
     data-name="Path 403"
     d="m 675.76324,4351.4338 c 0,0 -44.97736,14.0445 -41.44392,-68.0197 3.53344,-82.0641 -42.75886,-81.2566 -42.75886,-81.2566 0,0 81.23513,-5.6575 73.03571,96.7606 -7.25016,36.3893 11.16707,52.5157 11.16707,52.5157 z"
     fill="#1c2740"
     style="stroke-width:0.563359" />
  <path
     id="path1817"
     data-name="Path 404"
     d="m 334.78783,2882.0735 c 0,0 -87.88074,-34.064 -96.01286,154.7371 -8.13213,188.801 -101.11923,185.1139 -101.11923,185.1139 0,0 162.38778,16.2137 164.91096,-219.5605 -7.82792,-83.9446 32.22113,-120.2905 32.22113,-120.2905 z"
     fill="#1c2740"
     style="stroke-width:0.563359" />
  <path
     id="path1819"
     data-name="Path 405"
     d="m 156.10988,3100.8383 c 0,0 -46.48419,-83.0522 29.17563,-143.8318 -0.68208,1.531 -29.17563,143.8318 -29.17563,143.8318 z"
     fill="#1c2740"
     style="stroke-width:0.563359" />
  <path
     id="path1821"
     data-name="Path 406"
     d="m 283.99567,3454.5409 c 0,0 -55.59437,29.2645 -22.13151,101.7125 33.46287,72.4479 -19.4263,97.1591 -19.4263,97.1591 0,0 96.66829,-40.447 59.61551,-128.3498 -19.84769,-48.7203 -18.0577,-70.5218 -18.0577,-70.5218 z"
     fill="#1c2740"
     style="stroke-width:0.563359" />
  <path
     id="path1823"
     data-name="Path 408"
     d="m 105.42804,3360.1431 c 0,0 67.75315,-42.1666 29.50324,-111.5153 -38.249922,-69.3487 23.55483,-108.1829 23.55483,-108.1829 0,0 -96.75698,34.6098 -73.872527,91.7664 22.884447,57.1565 20.814457,127.9318 20.814457,127.9318 z"
     fill="#1c2740"
     style="stroke-width:0.563359" />
  <path
     id="path1825"
     data-name="Path 409"
     d="m 421.61575,3555.3467 c 0,0 -109.89848,-4.7168 -77.02706,-245.6059 20.0137,-70.1318 -15.12205,-123.0755 -15.12205,-123.0755 0,0 119.11979,37.4198 62.63177,234.3625 -28.37965,86.7749 29.51734,134.3189 29.51734,134.3189 z"
     fill="#1c2740"
     style="stroke-width:0.563359" />
  <path
     id="path1827"
     data-name="Path 410"
     d="m 248.19164,3426.0758 c 0,0 50.21394,-111.5909 -53.51466,-180.9407 1.04458,1.8841 53.51466,180.9407 53.51466,180.9407 z"
     fill="#1c2740"
     style="stroke-width:0.563359" />
  <path
     id="path1829"
     data-name="Path 411"
     d="m 249.33721,3731.8477 c 0,0 -83.74839,1.823 -91.57756,-104.2947 -7.82916,-106.1177 -85.480048,-100.7344 -85.480048,-100.7344 0,0 138.875178,-15.3427 152.512198,111.1183 8.35984,69.6459 24.54541,93.9108 24.54541,93.9108 z"
     fill="#1c2740"
     style="stroke-width:0.563359" />
  <path
     id="path1831"
     data-name="Path 412"
     d="m 190.95557,3891.03 c 0,0 -58.90264,-26.3258 -35.00869,-114.9369 7.47662,-28.7859 -27.90963,-58.169 -27.90963,-58.169 0,0 118.85982,29.1168 82.7894,97.0064 -36.07042,67.8897 -19.87108,76.0995 -19.87108,76.0995 z"
     fill="#1c2740"
     style="stroke-width:0.563359" />
  <path
     id="path1833"
     data-name="Path 413"
     d="m 390.67428,4113.0674 c 0,0 -12.58372,46.6213 32.96505,61.5289 45.54879,14.9077 34.22176,57.5986 34.22176,57.5986 0,0 28.53744,-55.2491 -5.17734,-71.0973 -33.71479,-15.8484 -62.00947,-48.0302 -62.00947,-48.0302 z"
     fill="#1c2740"
     style="stroke-width:0.563359" />
  <path
     id="path1835"
     data-name="Path 414"
     d="m 194.30234,3520.7635 c 0,0 -82.46669,-90.5133 -30.63394,-144.0631 27.49298,-5.8462 30.63394,144.0631 30.63394,144.0631 z"
     fill="#1c2740"
     style="stroke-width:0.563359" />
  <path
     id="path1837"
     data-name="Path 415"
     d="m 440.46814,2983.4584 c 0,0 -103.56686,157.5016 -11.84798,226.4293 43.21139,2.2611 11.84798,-226.4293 11.84798,-226.4293 z"
     fill="#1c2740"
     style="stroke-width:0.563359" />
  <path
     id="path1839"
     data-name="Path 416"
     d="m 501.64932,3471.2621 c 3.22429,3.1992 -62.64602,-50.7825 -54.96647,-124.2913 32.66323,-10.8304 7.14705,-100.5903 7.14705,-100.5903 0,0 37.35093,-9.8852 36.98796,52.3542 -0.36296,62.2395 -19.27693,134.2512 10.83146,172.5274 z"
     fill="#1c2740"
     style="stroke-width:0.563359" />
  <path
     id="path1841"
     data-name="Path 417"
     d="m 42.472833,2975.93 c -2.657152,-2.6366 51.621602,41.8468 45.293181,102.4192 -26.914899,8.9249 -5.888858,82.8887 -5.888858,82.8887 0,0 -30.778311,8.1453 -30.478749,-43.1409 0.299561,-51.2863 15.885283,-110.6237 -8.925574,-142.167 z"
     fill="#1c2740"
     style="stroke-width:0.563359" />
  <path
     id="path1843"
     data-name="Path 418"
     d="m 67.869829,3368.0796 c 0,0 35.989311,12.3115 25.667417,48.6239 -10.321895,36.3123 22.547684,47.7147 22.547684,47.7147 0,0 -48.651243,-5.6899 -44.156518,-34.6894 4.494724,-28.9994 -4.058583,-61.6492 -4.058583,-61.6492 z"
     fill="#1c2740"
     style="stroke-width:0.563359" />
  <path
     id="path1845"
     data-name="Path 421"
     d="m 576.2694,4334.6731 c 0,0 -33.00749,35.2554 0.20953,69.8112 33.21702,34.5558 3.16508,66.9311 3.16508,66.9311 0,0 51.14651,-35.3808 28.82042,-65.2091 -22.32608,-29.8283 -32.19503,-71.5332 -32.19503,-71.5332 z"
     fill="#1c2740"
     style="stroke-width:0.563426" />
  <path
     id="path1847"
     data-name="Path 422"
     d="m 749.21344,4271.2935 c 0,0 -69.35084,-40.6288 -47.00413,-164.4387 6.9316,-40.2357 -35.52263,-83.8165 -35.52263,-83.8165 0,0 138.54313,48.0635 100.97128,141.888 -37.57185,93.8246 -18.44452,106.3672 -18.44452,106.3672 z"
     fill="#1c2740"
     style="stroke-width:0.563359" />
  <path
     id="path1849"
     data-name="Path 423"
     d="m 645.71178,4008.8812 c 0,0 -58.10108,19.0986 -56.97924,-103.5212 1.12183,-122.6198 -59.25908,-123.3786 -59.25908,-123.3786 0,0 105.77454,-5.009 99.43107,147.8599 -7.91452,54.1317 16.80725,79.0399 16.80725,79.0399 z"
     fill="#1c2740"
     style="stroke-width:0.563359" />
  <path
     id="path1851"
     data-name="Path 424"
     d="m 865.28304,4306.7241 c 0,0 -101.1847,-15.7384 -58.14751,-81.3203 0.22341,1.048 58.14751,81.3203 58.14751,81.3203 z"
     fill="#1c2740"
     style="stroke-width:0.563359" />
  <path
     id="path1853"
     data-name="Path 349"
     d="m 3175.6334,5257.2085 c 0,0 -35.6024,45.9581 -87.8335,17.9237 1.0235,0.017 87.8335,-17.9237 87.8335,-17.9237 z"
     fill="#1c2740"
     style="stroke-width:0.563359" />
  <path
     id="path1855"
     data-name="Path 355"
     d="m 3115.107,5425.7312 c 0,0 5.5392,60.9082 -113.6855,32.2316 -119.2247,-28.6765 -133.5468,29.9862 -133.5468,29.9862 0,0 18.9135,-104.1904 166.4374,-63.6215 50.964,19.8887 80.7949,1.4037 80.7949,1.4037 z"
     fill="#1c2740"
     style="stroke-width:0.563359" />
  <path
     id="path2456"
     data-name="Path 416"
     d="m 3282.1858,5533.1495 c 3.3599,-3.0564 -53.9199,59.967 -126.9397,48.5383 -9.1458,-33.1744 -100.0933,-12.2819 -100.0933,-12.2819 0,0 -7.962,-37.8076 54.1774,-34.2622 62.1395,3.5454 133.0897,26.1173 172.8556,-1.9942 z"
     fill="#1c2740"
     style="stroke-width:0.563359" />
  <path
     id="path2458"
     data-name="Path 352"
     d="m 3218.2366,5318.5815 c 0,0 26.9427,40.0645 68.0584,15.4548 41.1156,-24.6096 65.9153,11.9295 65.9153,11.9295 0,0 -22.9962,-57.7639 -57.0633,-42.7041 -34.0671,15.06 -76.9104,15.3198 -76.9104,15.3198 z"
     fill="#1c2740"
     style="stroke-width:0.56326" />
  <path
     id="path2460"
     data-name="Path 352"
     d="m 402.31145,2793.0674 c 0,0 -41.04403,25.4256 -17.98928,67.4327 23.05473,42.0072 -14.38622,65.4232 -14.38622,65.4232 0,0 58.58351,-20.8199 44.80824,-55.4264 -13.77527,-34.6064 -12.43274,-77.4295 -12.43274,-77.4295 z"
     fill="#1c2740"
     style="stroke-width:0.56326" />
  <path
     id="path2544"
     data-name="Path 418"
     d="m 3.8411942,2839.6511 c 0,0 35.9893118,12.3115 25.6674168,48.6238 -10.321895,36.3124 22.547684,47.7147 22.547684,47.7147 0,0 -48.6512423,-5.6899 -44.1565178,-34.6893 4.4947248,-28.9995 -4.058583,-61.6492 -4.058583,-61.6492 z"
     fill="#1c2740"
     style="stroke-width:0.563359" />
  <path
     id="path2546"
     data-name="Path 357"
     d="m 124.25294,3014.7315 c 0,0 -62.302468,-71.9503 -0.47975,-146.7601 -0.35875,1.6371 0.47975,146.7601 0.47975,146.7601 z"
     fill="#1c2740"
     style="stroke-width:0.563359" />
  <path
     id="path5042"
     data-name="Path 409"
     d="m 2618.5399,5628.0696 c 0,0 -25.1825,107.0782 -255.6769,29.7447 -65.1527,-32.774 -123.7324,-8.1575 -123.7324,-8.1575 0,0 59.0332,-110.0221 241.9402,-17.7056 79.9379,44.1044 137.4691,-3.8816 137.4691,-3.8816 z"
     fill="#1c2740"
     style="stroke-width:0.563359" />
  <path
     id="path5044"
     data-name="Path 369"
     d="m 4902.4434,4357.8539 c 1.8314,3.2647 -38.1525,-54.4089 -15.4408,-110.9176 28.3309,-1.1945 28.4144,-78.0886 28.4144,-78.0886 0,0 31.832,0.6157 17.4665,49.8498 -14.3654,49.2343 -45.6397,102.0145 -30.4401,139.1564 z"
     fill="#1c2740"
     style="stroke-width:0.563359" />
  <path
     id="path5664"
     data-name="Path 378"
     d="m 5501.5567,4121.8418 c 6.1964,2.2108 38.1387,40.4753 -38.1326,98.7271 -76.2712,58.2517 -52.1092,106.5009 -52.1092,106.5009 0,0 -73.7817,-143.0817 90.2418,-205.228 z"
     fill="#1c2740"
     style="stroke-width:0.563359" />
  <path
     id="path5666"
     data-name="Path 391"
     d="m 4566.1816,4726.4907 c 0,0 187.1984,-22.1273 180.9071,-136.6866 -26.0849,-34.524 -180.9071,136.6866 -180.9071,136.6866 z"
     fill="#1c2740"
     style="stroke-width:0.563359" />
  <path
     id="path5668"
     data-name="Path 374"
     d="m 4704.4931,4437.6347 c 0,0 24.8653,57.6939 -46.6838,93.0369 -71.549,35.343 -45.9268,87.7957 -45.9268,87.7957 0,0 -49.7974,-92.2005 34.2566,-137.3102 46.048,-25.4379 58.354,-43.5224 58.354,-43.5224 z"
     fill="#1c2740"
     style="stroke-width:0.563359" />
  <path
     id="path5670"
     data-name="Path 409"
     d="m 4238.4124,5385.8195 c 0,0 30.4028,105.7146 -208.4664,150.9876 -72.8579,3.2769 -111.9147,53.3979 -111.9147,53.3979 0,0 -2.3166,-124.8375 202.3724,-133.7684 91.2955,-0.6249 118.0087,-70.6171 118.0087,-70.6171 z"
     fill="#1c2740"
     style="stroke-width:0.563359" />
  <path
     id="path5672"
     data-name="Path 355"
     d="m 3728.5454,5592.4797 c 0,0 23.0036,56.6685 -99.4088,63.8839 -122.4125,7.2154 -119.0653,67.5083 -119.0653,67.5083 0,0 -12.1871,-105.1895 140.7594,-109.2515 54.5446,4.2169 77.7147,-22.1407 77.7147,-22.1407 z"
     fill="#1c2740"
     style="stroke-width:0.563359" />
  <path
     id="path5851"
     data-name="Path 369"
     d="m 493.878,2663.5194 c -1.87609,-3.2393 38.89728,53.879 16.96508,110.6948 -28.31181,1.584 -27.33769,78.472 -27.33769,78.472 0,0 -31.8374,-0.1778 -18.15054,-49.605 13.68687,-49.427 44.2323,-102.6325 28.52315,-139.5618 z"
     fill="#1c2740"
     style="stroke-width:0.563359" />
</svg>
