<svg xmlns="http://www.w3.org/2000/svg" xmlns:xlink="http://www.w3.org/1999/xlink" width="43" height="88" viewBox="0 0 43 88"><defs><clipPath id="b"><rect width="43" height="88"/></clipPath></defs><g id="a" clip-path="url(#b)"><path d="M.9-.224,13.742,58.309" transform="translate(0.5 21.5)" fill="none" stroke="#707070" stroke-width="2"/><line y1="58" x2="14" transform="translate(27.5 21.5)" fill="none" stroke="#707070" stroke-width="2"/><path d="M0,0,5.233,8.111" transform="translate(29.5 41.5)" fill="none" stroke="#707070" stroke-width="2"/><path d="M6,0,.369,8.62v2.255" transform="translate(7.5 40.5)" fill="none" stroke="#707070" stroke-width="2"/><g transform="translate(440)" fill="#e5e5e5"><path d="M -412.0003051757812 87.00071716308594 L -412.2888488769531 87.00057983398438 C -413.1568603515625 84.05756378173828 -415.8560485839844 81.99980163574219 -418.99951171875 81.99980163574219 C -422.1430358886719 81.99980163574219 -424.8424987792969 84.05752563476562 -425.7108764648438 87.00019836425781 L -425.9996032714844 87.00019836425781 L -425.9996032714844 41.25419998168945 L -425.9996032714844 40.59622192382812 L -426.6038818359375 40.33583450317383 C -434.1343078613281 37.09091567993164 -439.0001220703125 29.69744682312012 -439.0001220703125 21.5001049041748 C -439.0001220703125 16.02424621582031 -436.86767578125 10.87616348266602 -432.99560546875 7.004187107086182 C -429.1236267089844 3.132328271865845 -423.9756469726562 0.999998927116394 -418.5 0.999998927116394 C -413.0243530273438 0.999998927116394 -407.8764038085938 3.132328271865845 -404.0044250488281 7.004187107086182 C -400.1323547363281 10.87617492675781 -397.9999084472656 16.02425765991211 -397.9999084472656 21.5001049041748 C -397.9999084472656 25.76485824584961 -399.2969055175781 29.85295104980469 -401.7507019042969 33.32243347167969 C -404.1514282226562 36.71688079833984 -407.4705505371094 39.27438735961914 -411.3492126464844 40.71844482421875 L -412.0003051757812 40.96084594726562 L -412.0003051757812 41.65559768676758 L -412.0003051757812 87.00071716308594 Z" stroke="none"/><path d="M -424.9996032714844 83.69438171386719 C -423.5262145996094 82.02700805664062 -421.3735961914062 80.99980163574219 -418.99951171875 80.99980163574219 C -416.6255798339844 80.99980163574219 -414.4735107421875 82.02663421630859 -413.0003051757812 83.69404602050781 L -413.0003051757812 40.26609039306641 L -411.6981201171875 39.78128051757812 C -408.0086975097656 38.40770721435547 -404.8512573242188 35.9745979309082 -402.567138671875 32.74499893188477 C -400.2334289550781 29.44529151916504 -398.9999084472656 25.5568790435791 -398.9999084472656 21.5001049041748 C -398.9999084472656 16.29135894775391 -401.0283203125 11.39439868927002 -404.7115173339844 7.711305618286133 C -408.3946533203125 4.028318881988525 -413.2914733886719 1.999998927116394 -418.5 1.999998927116394 C -423.7085571289062 1.999998927116394 -428.6053771972656 4.028318881988525 -432.2884826660156 7.711292266845703 C -435.9716796875 11.39439868927002 -438.0001220703125 16.29135894775391 -438.0001220703125 21.5001049041748 C -438.0001220703125 29.29773139953613 -433.3714904785156 36.33071899414062 -426.2081298828125 39.41746520996094 L -424.9996032714844 39.93824005126953 L -424.9996032714844 83.69438171386719 M -411.0003051757812 88.00119781494141 L -413.0830383300781 88.00019836425781 C -413.5689086914062 85.10242462158203 -416.0567321777344 82.99980163574219 -418.99951171875 82.99980163574219 C -421.9422912597656 82.99980163574219 -424.4308776855469 85.10277557373047 -424.9168701171875 88.00019836425781 L -426.9996032714844 88.00019836425781 L -426.9996032714844 41.25419998168945 C -434.8968811035156 37.85120010375977 -440.0001220703125 30.09690475463867 -440.0001220703125 21.5001049041748 C -440.0001220703125 15.75711917877197 -437.7636413574219 10.35790538787842 -433.7026977539062 6.297065734863281 C -429.641845703125 2.236345529556274 -424.2427368164062 -1.092529259949515e-06 -418.5 -1.092529259949515e-06 C -412.7572631835938 -1.092529259949515e-06 -407.3581848144531 2.236345529556274 -403.2973327636719 6.297065734863281 C -399.2363891601562 10.35790538787842 -396.9999084472656 15.75711917877197 -396.9999084472656 21.5001049041748 C -396.9999084472656 25.97281265258789 -398.3603820800781 30.26057243347168 -400.9342651367188 33.89985275268555 C -403.4515991210938 37.45919799804688 -406.932373046875 40.14109039306641 -411.0003051757812 41.65559768676758 L -411.0003051757812 88.00119781494141 Z" stroke="none" fill="#dedede"/></g><g transform="translate(19 35)" fill="#60ff9f"><path d="M 2 3.5 C 1.172899961471558 3.5 0.5 2.827100038528442 0.5 2 C 0.5 1.172899961471558 1.172899961471558 0.5 2 0.5 C 2.827100038528442 0.5 3.5 1.172899961471558 3.5 2 C 3.5 2.827100038528442 2.827100038528442 3.5 2 3.5 Z" stroke="none"/><path d="M 2 1 C 1.448600053787231 1 1 1.448600053787231 1 2 C 1 2.551399946212769 1.448600053787231 3 2 3 C 2.551399946212769 3 3 2.551399946212769 3 2 C 3 1.448600053787231 2.551399946212769 1 2 1 M 2 0 C 3.104569911956787 0 4 0.8954300880432129 4 2 C 4 3.104569911956787 3.104569911956787 4 2 4 C 0.8954300880432129 4 0 3.104569911956787 0 2 C 0 0.8954300880432129 0.8954300880432129 0 2 0 Z" stroke="none" fill="#dedede"/></g><g transform="translate(10 6)" fill="#dedede" stroke="#e8e8e8" stroke-width="5"><circle cx="11" cy="11" r="11" stroke="none"/><circle cx="11" cy="11" r="8.5" fill="none"/></g><g transform="translate(20 42)" fill="#dedede" stroke="#e8e8e8" stroke-width="1"><rect width="2" height="12" stroke="none"/><rect x="-0.5" y="-0.5" width="3" height="13" fill="none"/></g><g transform="translate(20 56)" fill="#dedede" stroke="#e8e8e8" stroke-width="1"><rect width="2" height="10" stroke="none"/><rect x="-0.5" y="-0.5" width="3" height="11" fill="none"/></g><g transform="translate(20 70)" fill="#dedede" stroke="#e8e8e8" stroke-width="1"><rect width="2" height="8" stroke="none"/><rect x="-0.5" y="-0.5" width="3" height="9" fill="none"/></g></g></svg>