<svg xmlns="http://www.w3.org/2000/svg" xmlns:xlink="http://www.w3.org/1999/xlink" width="100" height="230" viewBox="0 0 100 230"><defs><clipPath id="b"><rect width="100" height="230"/></clipPath></defs><g id="a" clip-path="url(#b)"><g transform="translate(-50 -56.5)"><path d="M20,210.859s-22.24,18.2-2.078,37.243c13.441,17.362,11.263,37.37,11.263,37.37s4.139-20.568,14.78-35.97c17.082-17.642-3.08-38.643-3.08-38.643l-11.761-9.8Z" transform="translate(70)" fill="#6edfc0"/><path d="M18.081,209.073s-16.487,23.9,0,39.471c10.992,14.2,8.613,28.041,8.613,28.041s2.515-20.672,11.216-33.267c13.968-14.426-2.751-34.245-2.751-34.245l-9.618-8.015Z" transform="translate(73.769)" fill="#8bf1d5"/><path d="M15.926,207.067s-14.366,11.956-2,23.632c8.241,10.645,8.412,28.423,8.412,28.423s4.055-16.813,10.579-26.256c10.474-10.817-4.182-25.8-4.182-25.8l-7.211-6.009Z" transform="translate(78.001)" fill="#b9f3e3"/><path d="M13.99,205.266s-10.359,8.592-1.7,16.766c5.77,7.453,6.628,20.393,6.628,20.393s.148-14.559,4.716-21.171c7.333-7.574-.675-15.989-.675-15.989l-5.049-4.208Z" transform="translate(81.803)" fill="#d4fbf0"/><path d="M13.99,203.522s-9.548,4.576-.892,9.363c5.77,4.364,4.809,9.785,4.809,9.785a23.24,23.24,0,0,1,6.371-9.433c7.333-4.435-1.322-9.715-1.322-9.715l-5.049-2.464Z" transform="translate(81.803)" fill="#fbfeff"/><path d="M72,83.123s-8.941-6.335-8.489-25.341" fill="none" stroke="#848484" stroke-width="2"/><path d="M10,0h8A10,10,0,0,1,28,10v4a0,0,0,0,1,0,0H0a0,0,0,0,1,0,0V10A10,10,0,0,1,10,0Z" transform="matrix(0.719, -0.695, 0.695, 0.719, 57.067, 88.69)" fill="#c9c9c9"/><path d="M124.122,144.415a11.411,11.411,0,0,1-11.4-10.783,26.252,26.252,0,0,0-11.45,0,11.424,11.424,0,0,1-13.921,10.5,37.774,37.774,0,0,1-12.59-13.329A37.33,37.33,0,0,1,70,112.5v-75a37.5,37.5,0,1,1,75,0v75a37.436,37.436,0,0,1-16.883,31.329l-.076-.105A11.379,11.379,0,0,1,124.122,144.415Z" transform="translate(-7 75)" fill="#dedede"/><circle cx="50" cy="50" r="50" transform="translate(50 100)" fill="#dedede"/><g style="isolation:isolate"><path d="M84.1,30.939a49.847,49.847,0,0,1,3.905-7.557c11.079,15.159,37.737,42.3,88.41,46.067a49.843,49.843,0,0,1-3.616,6.967C120.7,72.364,94.829,46.092,84.1,30.939Z" transform="translate(-30.339 100)" fill="#6ea7df"/><path d="M83.246,46.507A50.273,50.273,0,0,1,88.2,40.446c10.95,14.874,36.673,40.881,84.932,45.522a49.648,49.648,0,0,1-2.156,7.1C118.663,88.423,93.3,61.252,83.246,46.507Z" transform="translate(-24.339 75)" fill="#6ea7df"/></g><circle cx="27.5" cy="27.5" r="27.5" transform="translate(73 123)" fill="#d6d6d6"/><circle cx="20" cy="20" r="20" transform="translate(81 130)" fill="#c9c9c9"/><circle cx="7.5" cy="7.5" r="7.5" transform="translate(93 143)" fill="#848484"/><circle cx="2.5" cy="2.5" r="2.5" transform="translate(98 148)" fill="#818181"/><circle cx="0.5" cy="0.5" r="0.5" transform="translate(100 150)" fill="#444"/><g style="isolation:isolate"><path d="M89.829,145.433a11.425,11.425,0,0,1-2.4-.261l-.006,0A37.725,37.725,0,0,1,74.784,131.84,37.33,37.33,0,0,1,70,113.5V68.036A102.51,102.51,0,0,0,80.006,77.08a27.533,27.533,0,0,0,20.84,26.11c.922,9.974,2.089,20.266,3.471,30.593a27.812,27.812,0,0,0-2.911.847.586.586,0,0,1-.126.04.014.014,0,0,1-.014-.008,10.456,10.456,0,0,1-3.2,7.2,11.522,11.522,0,0,1-8.24,3.569h0ZM81.522,67.456h0A108.888,108.888,0,0,1,70,56.059V53.032A99.143,99.143,0,0,0,82.2,65.714c-.243.569-.47,1.154-.674,1.74Zm5.16-8.924h0A106.088,106.088,0,0,1,70.862,41.446c-.279.292-.569.6-.861.923V38.5A37.468,37.468,0,0,1,106.5,1.013c-4.927,10.424-7.623,27.076-8.013,49.5a27.563,27.563,0,0,0-11.809,8.022Z" transform="translate(-7 74)" fill="#cecece"/><path d="M116.3,125.865h0A50.037,50.037,0,0,1,73.306,58.083c.147-.382.3-.766.455-1.143A98.027,98.027,0,0,0,93.006,77.081a27.532,27.532,0,0,0,20.844,26.11c.681,7.369,1.506,15,2.451,22.674ZM94.521,67.456h0A106.157,106.157,0,0,1,77.667,49.382a50.064,50.064,0,0,0-3.2,5.928,49.755,49.755,0,0,1,6.054-10c-.556.718-1.1,1.457-1.616,2.2A96.194,96.194,0,0,0,95.2,65.714c-.243.568-.47,1.153-.674,1.741Zm5.16-8.924h0A106.139,106.139,0,0,1,83.862,41.446a49.925,49.925,0,0,1,29.187-14.966,228.736,228.736,0,0,0-1.556,24.029,27.561,27.561,0,0,0-11.812,8.023ZM83.306,42.038q.225-.243.453-.483C83.607,41.715,83.455,41.877,83.306,42.038Z" transform="translate(-20 74)" fill="#cecece"/></g><g transform="translate(90 95)" fill="#fbfbfb" stroke="#848484" stroke-width="2"><circle cx="10" cy="10" r="10" stroke="none"/><circle cx="10" cy="10" r="9" fill="none"/></g><path d="M-13.942,164.808c.385-.1,11.154-3.942,11.154-3.942s2.692,12.4,9.231,18.846c-.1-.1-9.231,4.615-9.231,4.615S-14.327,173.75-13.942,164.808Z" transform="matrix(0.998, -0.07, 0.07, 0.998, 57.951, 0.159)" fill="#c8c8c8"/><g transform="translate(57 166)" fill="#fff" stroke="#848484" stroke-width="1"><circle cx="0.5" cy="0.5" r="0.5" stroke="none"/><circle cx="0.5" cy="0.5" fill="none"/></g><g transform="translate(74 178)" fill="#fff" stroke="#848484" stroke-width="1"><circle cx="0.5" cy="0.5" r="0.5" stroke="none"/><circle cx="0.5" cy="0.5" fill="none"/></g><g transform="translate(65 163)" fill="#fff" stroke="#848484" stroke-width="1"><circle cx="0.5" cy="0.5" r="0.5" stroke="none"/><circle cx="0.5" cy="0.5" fill="none"/></g><g transform="translate(68 182)" fill="#fff" stroke="#848484" stroke-width="1"><circle cx="0.5" cy="0.5" r="0.5" stroke="none"/><circle cx="0.5" cy="0.5" fill="none"/></g><path d="M58,124.758c-.007-.157,8.961-3.928,8.961-3.928a25.925,25.925,0,0,1,8.688,18.382c.14,0-8.688,2.985-8.688,2.985S63.192,129.314,58,124.758Z" transform="translate(68.404)" fill="#d4d4d4"/><g transform="translate(135 123)" fill="#fff" stroke="#848484" stroke-width="1"><circle cx="0.5" cy="0.5" r="0.5" stroke="none"/><circle cx="0.5" cy="0.5" fill="none"/></g><g transform="translate(129 125)" fill="#fff" stroke="#848484" stroke-width="1"><circle cx="0.5" cy="0.5" r="0.5" stroke="none"/><circle cx="0.5" cy="0.5" fill="none"/></g><g transform="translate(142 138)" fill="#fff" stroke="#848484" stroke-width="1"><circle cx="0.5" cy="0.5" r="0.5" stroke="none"/><circle cx="0.5" cy="0.5" fill="none"/></g><g transform="translate(136 140)" fill="#fff" stroke="#848484" stroke-width="1"><circle cx="0.5" cy="0.5" r="0.5" stroke="none"/><circle cx="0.5" cy="0.5" fill="none"/></g><rect width="2" height="8" transform="translate(102 101)" fill="#6edfc0"/><rect width="2" height="8" transform="translate(96 101)" fill="#6edfc0"/><rect width="2" height="8" transform="translate(99 101)" fill="#6edfc0"/></g></g></svg>