<svg xmlns="http://www.w3.org/2000/svg" xmlns:xlink="http://www.w3.org/1999/xlink" width="630" height="596.61" viewBox="0 0 630 596.61"><defs><clipPath id="a"><rect width="551" height="75" fill="none"/></clipPath><clipPath id="c"><rect width="630" height="596.61"/></clipPath></defs><g id="b" clip-path="url(#c)"><g transform="translate(-185 -103.387)"><path d="M139,0H360a0,0,0,0,1,0,0V182a0,0,0,0,1,0,0H0a0,0,0,0,1,0,0V139A139,139,0,0,1,139,0Z" transform="translate(329 279)" fill="#da627d"/><path d="M12,0H164a12,12,0,0,1,12,12v0a0,0,0,0,1,0,0H0a0,0,0,0,1,0,0v0A12,12,0,0,1,12,0Z" transform="translate(488 267)" fill="#432f51"/><path d="M11,0h0A11,11,0,0,1,22,11V25a0,0,0,0,1,0,0H0a0,0,0,0,1,0,0V11A11,11,0,0,1,11,0Z" transform="translate(621 242)" fill="#a53860"/><rect width="217" height="16" rx="8" transform="translate(435 310)" fill="#a53860"/><rect width="15" height="16" rx="7.5" transform="translate(420 344)" fill="#432f51"/><rect width="15" height="16" rx="7.5" transform="translate(455 344)" fill="#432f51"/><rect width="15" height="16" rx="7.5" transform="translate(491 344)" fill="#432f51"/><rect width="15" height="16" rx="7.5" transform="translate(526 344)" fill="#432f51"/><rect width="15" height="16" rx="7.5" transform="translate(561 344)" fill="#432f51"/><rect width="15" height="16" rx="7.5" transform="translate(596 344)" fill="#432f51"/><rect width="15" height="16" rx="7.5" transform="translate(631 344)" fill="#432f51"/></g><g transform="translate(-185 -103.387)"><g transform="translate(200 600)" fill="#432f51" stroke="#a53860" stroke-width="8"><path d="M0,0H600a0,0,0,0,1,0,0V25a75,75,0,0,1-75,75H75A75,75,0,0,1,0,25V0A0,0,0,0,1,0,0Z" stroke="none"/><path d="M8,4H592a4,4,0,0,1,4,4V25a71,71,0,0,1-71,71H75A71,71,0,0,1,4,25V8A4,4,0,0,1,8,4Z" fill="none"/></g><g transform="translate(225 607)" clip-path="url(#a)"><g transform="translate(-257 -601)"><g transform="translate(257 601)" fill="#ffa5ab" stroke="#da627d" stroke-width="7"><circle cx="37.5" cy="37.5" r="37.5" stroke="none"/><circle cx="37.5" cy="37.5" r="34" fill="none"/></g></g><g transform="translate(-162 -601)"><g transform="translate(257 601)" fill="#ffa5ab" stroke="#da627d" stroke-width="7"><circle cx="37.5" cy="37.5" r="37.5" stroke="none"/><circle cx="37.5" cy="37.5" r="34" fill="none"/></g></g><g transform="translate(-67 -601)"><g transform="translate(257 601)" fill="#ffa5ab" stroke="#da627d" stroke-width="7"><circle cx="37.5" cy="37.5" r="37.5" stroke="none"/><circle cx="37.5" cy="37.5" r="34" fill="none"/></g></g><g transform="translate(28 -601)"><g transform="translate(257 601)" fill="#ffa5ab" stroke="#da627d" stroke-width="7"><circle cx="37.5" cy="37.5" r="37.5" stroke="none"/><circle cx="37.5" cy="37.5" r="34" fill="none"/></g></g><g transform="translate(123 -601)"><g transform="translate(257 601)" fill="#ffa5ab" stroke="#da627d" stroke-width="7"><circle cx="37.5" cy="37.5" r="37.5" stroke="none"/><circle cx="37.5" cy="37.5" r="34" fill="none"/></g></g><g transform="translate(218 -601)"><g transform="translate(257 601)" fill="#ffa5ab" stroke="#da627d" stroke-width="7"><circle cx="37.5" cy="37.5" r="37.5" stroke="none"/><circle cx="37.5" cy="37.5" r="34" fill="none"/></g></g></g><circle cx="8" cy="8" r="8" transform="translate(397 671)" fill="#a53860"/><circle cx="8" cy="8" r="8" transform="translate(302 671)" fill="#a53860"/><circle cx="8" cy="8" r="8" transform="translate(492 671)" fill="#a53860"/><circle cx="8" cy="8" r="8" transform="translate(587 671)" fill="#a53860"/><circle cx="8" cy="8" r="8" transform="translate(682 671)" fill="#a53860"/><rect width="630" height="65" transform="translate(185 549)" fill="#fff"/><path d="M-2068.29,168.387a75.281,75.281,0,0,1-1.71-16v-25h600v25a75.289,75.289,0,0,1-1.71,16Z" transform="translate(2270 472.613)" fill="rgba(0,0,0,0.22)"/><rect width="30" height="65" transform="translate(185 549)" fill="#da627d"/><rect width="111" height="65" transform="translate(215 549)" fill="#a53860"/><rect width="111" height="65" transform="translate(437 549)" fill="#ffa5ab"/><rect width="111" height="65" transform="translate(326 549)" fill="#da627d"/><rect width="111" height="65" transform="translate(659 549)" fill="#ffa5ab"/><rect width="111" height="65" transform="translate(548 549)" fill="#a53860"/><rect width="45" height="65" transform="translate(770 549)" fill="#da627d"/><circle cx="4.5" cy="4.5" r="4.5" transform="translate(306 555)" fill="#432f51"/><circle cx="4.5" cy="4.5" r="4.5" transform="translate(306 598)" fill="#432f51"/><circle cx="4.5" cy="4.5" r="4.5" transform="translate(419 555)" fill="#a53860"/><circle cx="4.5" cy="4.5" r="4.5" transform="translate(419 598)" fill="#a53860"/><circle cx="4.5" cy="4.5" r="4.5" transform="translate(531 556)" fill="#fb8168"/><circle cx="4.5" cy="4.5" r="4.5" transform="translate(531 599)" fill="#fb8168"/><circle cx="4.5" cy="4.5" r="4.5" transform="translate(531 556)" fill="#da627d"/><circle cx="4.5" cy="4.5" r="4.5" transform="translate(531 599)" fill="#da627d"/><circle cx="4.5" cy="4.5" r="4.5" transform="translate(641 557)" fill="#da627d"/><circle cx="4.5" cy="4.5" r="4.5" transform="translate(641 600)" fill="#da627d"/><circle cx="4.5" cy="4.5" r="4.5" transform="translate(753 557)" fill="#432f51"/><circle cx="4.5" cy="4.5" r="4.5" transform="translate(753 600)" fill="#432f51"/><path d="M0,0H364.806V24.994H417V140H0Z" transform="translate(348 409)" fill="#a53860"/><path d="M57.448,0H365.5V103.912H0Z" transform="translate(238 445.088)" fill="#da627d"/><rect width="320" height="12" transform="translate(295 433)" fill="#432f51"/><rect width="12" height="89" transform="translate(603 433)" fill="#432f51"/><rect width="102" height="27" transform="translate(603 522)" fill="#da627d"/><rect width="60" height="11" transform="translate(705 480)" fill="#432f51"/><rect width="60" height="58" transform="translate(705 491)" fill="#da627d"/><rect width="102" height="11" transform="translate(603 511)" fill="#432f51"/><rect width="60" height="24" transform="translate(740 525)" fill="#432f51"/><rect width="630" height="5" transform="translate(185 544)" fill="#432f51"/><rect width="320" height="12" transform="translate(393 397)" fill="#432f51"/><rect width="90" height="99" transform="translate(345 445)" fill="#a53860"/><rect width="90" height="99" transform="translate(513 445)" fill="#a53860"/><rect width="48" height="16" rx="8" transform="translate(452 471)" fill="#432f51"/><rect width="48" height="16" rx="8" transform="translate(329 497)" fill="#a53860"/><rect width="48" height="16" rx="8" transform="translate(315 471)" fill="#a53860"/><rect width="48" height="16" rx="8" transform="translate(488 517)" fill="#da627d"/><rect width="48" height="16" rx="8" transform="translate(424 492)" fill="#a53860"/><circle cx="4.5" cy="4.5" r="4.5" transform="translate(715 520)" fill="#a53860"/><circle cx="4.5" cy="4.5" r="4.5" transform="translate(715 505)" fill="#a53860"/></g><rect width="74" height="13" rx="6.5" transform="translate(272 184.613)" fill="#eaf6ff"/><rect width="109" height="13" rx="6.5" transform="translate(380 184.613)" fill="#eaf6ff"/><rect width="122" height="13" rx="6.5" transform="translate(132 351.613)" fill="#eaf6ff"/></g></svg>