<svg xmlns="http://www.w3.org/2000/svg" xmlns:xlink="http://www.w3.org/1999/xlink" width="100" height="10" viewBox="0 0 100 10">
  <defs>
    <clipPath id="clip-trinity_site_health_bar_positive">
      <rect width="100" height="10"/>
    </clipPath>
  </defs>
  <g id="trinity_site_health_bar_positive" clip-path="url(#clip-trinity_site_health_bar_positive)">
    <rect id="Rectangle_140" data-name="Rectangle 140" width="90" height="10" transform="translate(5)" fill="#5df36c"/>
    <path id="Rectangle_138" data-name="Rectangle 138" d="M5,0h5a0,0,0,0,1,0,0V5a5,5,0,0,1-5,5H0a0,0,0,0,1,0,0V5A5,5,0,0,1,5,0Z" fill="#fff"/>
    <path id="Rectangle_139" data-name="Rectangle 139" d="M5,0h5a0,0,0,0,1,0,0V5a5,5,0,0,1-5,5H0a0,0,0,0,1,0,0V5A5,5,0,0,1,5,0Z" transform="translate(90)" fill="#fff"/>
  </g>
</svg>
