<?xml version="1.0" encoding="UTF-8" standalone="no"?>
<svg
   width="100"
   height="25.635"
   viewBox="0 0 100 25.635001"
   version="1.1"
   id="svg18"
   sodipodi:docname="player_character_bullet.svg"
   inkscape:version="1.1.1 (3bf5ae0d25, 2021-09-20)"
   xmlns:inkscape="http://www.inkscape.org/namespaces/inkscape"
   xmlns:sodipodi="http://sodipodi.sourceforge.net/DTD/sodipodi-0.dtd"
   xmlns="http://www.w3.org/2000/svg"
   xmlns:svg="http://www.w3.org/2000/svg">
  <sodipodi:namedview
     id="namedview20"
     pagecolor="#505050"
     bordercolor="#ffffff"
     borderopacity="1"
     inkscape:pageshadow="0"
     inkscape:pageopacity="0"
     inkscape:pagecheckerboard="1"
     showgrid="false"
     height="25.635px"
     inkscape:zoom="16"
     inkscape:cx="44.0625"
     inkscape:cy="22.125"
     inkscape:window-width="1920"
     inkscape:window-height="1007"
     inkscape:window-x="1920"
     inkscape:window-y="44"
     inkscape:window-maximized="1"
     inkscape:current-layer="svg18" />
  <defs
     id="defs5">
    <clipPath
       id="clip-Player-character-bullet">
      <rect
         width="150"
         height="60"
         id="rect2"
         x="0"
         y="0" />
    </clipPath>
  </defs>
  <g
     id="Player-character-bullet"
     clip-path="url(#clip-Player-character-bullet)"
     transform="matrix(0.73224636,0,0,0.73224636,-7.3224197,-9.5184704)">
    <path
       id="Path_4"
       data-name="Path 4"
       d="M 0,60"
       transform="translate(85.5)"
       fill="none"
       stroke="#202020"
       stroke-width="10" />
    <path
       id="Subtraction_2"
       data-name="Subtraction 2"
       d="M 40,-674 H 25 A 14.9,14.9 0 0 1 14.393,-678.393 14.9,14.9 0 0 1 10,-689 v -5 A 14.9,14.9 0 0 1 14.393,-704.607 14.9,14.9 0 0 1 25,-709 h 15 a 1.988,1.988 0 0 0 0.587,1.414 A 1.987,1.987 0 0 0 42,-707 h 1 a 2,2 0 0 0 2,-2 h 30 a 5.006,5.006 0 0 1 5,5 v 25 a 5.006,5.006 0 0 1 -5,5 H 45 A 1.988,1.988 0 0 0 44.413,-675.414 1.986,1.986 0 0 0 43,-676 h -1 a 2,2 0 0 0 -2,2 z"
       transform="translate(0,722)"
       fill="#575757" />
    <path
       id="Intersection_7"
       data-name="Intersection 7"
       d="m 40,-676 h -3.725 l -1.338,-2.684 c 9.252,-4.616 33.263,-19.408 33.263,-32.24 h 6 c 0,14.079 -18.955,27.376 -29.6,33.732 A 2.049,2.049 0 0 0 44.409,-677.413 1.985,1.985 0 0 0 43,-678 h -1 a 2,2 0 0 0 -2,2 z"
       transform="translate(0,724)"
       fill="#484848" />
    <path
       id="Intersection_6"
       data-name="Intersection 6"
       d="m 68.2,-673.391 c 0,-12.85 -24.012,-27.628 -33.263,-32.239 l 1.376,-2.761 H 40 a 1.99,1.99 0 0 0 0.587,1.414 1.987,1.987 0 0 0 1.414,0.586 h 1 a 2,2 0 0 0 1.564,-0.754 C 55.2,-700.8 74.2,-687.487 74.2,-673.391 Z"
       transform="translate(0,721.39)"
       fill="#484848" />
    <path
       id="Subtraction_6"
       data-name="Subtraction 6"
       d="M 36.164,-668 H 25 A 14.9,14.9 0 0 1 14.393,-672.394 14.9,14.9 0 0 1 10,-683 v -5 A 14.9,14.9 0 0 1 14.394,-698.607 14.9,14.9 0 0 1 25,-703 h 11.183 c 0.347,4.261 1.1,11.1 2.067,16.35 -0.979,6 -1.736,13.8 -2.086,18.65 z"
       transform="translate(0,716)"
       fill="#3a3a3a" />
    <path
       id="Intersection_5"
       data-name="Intersection 5"
       d="m 14.521,-680.267 c 6.734,-12.3 1.1,-23.685 -0.3,-26.162 q 0.086,-0.089 0.174,-0.177 a 14.942,14.942 0 0 1 5.734,-3.588 c 1.674,2.871 9.3,17.57 0.4,33.521 a 14.921,14.921 0 0 1 -6.008,-3.594 z"
       transform="translate(0,724)"
       fill="#313131" />
    <path
       id="Path_7"
       data-name="Path 7"
       d="m 70,733.88 c 0,0 9.053,-20.033 26.932,0 5.385,6.247 32.957,7.108 39.634,9.047 -1.939,0.646 -37.48,-1.077 -39.634,7.324 -9.478,17.448 -26.932,0 -26.932,0 z"
       transform="translate(10,-711)"
       fill="#96effe" />
    <path
       id="Path_8"
       data-name="Path 8"
       d="m 70,731.862 c 0,0 7,-15.492 20.827,0 4.164,4.831 30.977,5.241 36.141,6.74 -1.5,0.5 -34.475,-0.577 -36.141,5.92 -7.329,13.493 -20.827,0 -20.827,0 z"
       transform="translate(10,-707.21)"
       fill="#b1efff" />
    <path
       id="Path_9"
       data-name="Path 9"
       d="m 70,729.554 c 0,0 4.654,-10.3 13.845,0 2.768,3.211 31.552,3.28 34.984,4.277 -1,0.332 -33.877,-0.18 -34.984,4.139 -4.872,8.97 -13.845,0 -13.845,0 z"
       transform="translate(10,-702.929)"
       fill="#e8feff" />
    <path
       id="Path_10"
       data-name="Path 10"
       d="m 70,726.843 c 0,0 1.9,-4.2 5.644,0 1.129,1.309 12.863,1.337 14.262,1.744 -0.406,0.135 -13.811,-0.073 -14.262,1.687 -1.986,3.657 -5.644,0 -5.644,0 z"
       transform="translate(10,-698.438)"
       fill="#ffffff" />
  </g>
</svg>
