<svg xmlns="http://www.w3.org/2000/svg" xmlns:xlink="http://www.w3.org/1999/xlink" width="250" height="45" viewBox="0 0 250 45">
  <defs>
    <clipPath id="clip-trinity_site_display_screen_2_2">
      <rect width="250" height="45"/>
    </clipPath>
  </defs>
  <g id="trinity_site_display_screen_2_2" data-name="trinity_site_display_screen_2 – 2" clip-path="url(#clip-trinity_site_display_screen_2_2)">
    <g id="Rectangle_148" data-name="Rectangle 148" transform="translate(0 -5)" fill="#4358aa" stroke="#556ece" stroke-width="4">
      <path d="M0,0H250a0,0,0,0,1,0,0V5a45,45,0,0,1-45,45H45A45,45,0,0,1,0,5V0A0,0,0,0,1,0,0Z" stroke="none"/>
      <path d="M4,2H246a2,2,0,0,1,2,2V5a43,43,0,0,1-43,43H45A43,43,0,0,1,2,5V4A2,2,0,0,1,4,2Z" fill="none"/>
    </g>
    <text id="_00:05" data-name="00:05" transform="translate(89 24)" fill="#fff" font-size="28" font-family="Ramabhadra"><tspan x="0" y="0">00:05</tspan></text>
    <g id="Group_155" data-name="Group 155" transform="translate(0 5)">
      <rect id="Rectangle_140" data-name="Rectangle 140" width="53" height="6" transform="translate(32 20)" fill="#9c2b46"/>
      <rect id="Rectangle_149" data-name="Rectangle 149" width="20" height="6" transform="translate(32 20)" fill="#5df36c"/>
      <g id="Ellipse_633" data-name="Ellipse 633" transform="translate(22 16)" fill="#60992d" stroke="#fff" stroke-width="1">
        <circle cx="6.5" cy="6.5" r="6.5" stroke="none"/>
        <circle cx="6.5" cy="6.5" r="6" fill="none"/>
      </g>
    </g>
    <text id="RESULT_ANALYSIS" data-name="RESULT ANALYSIS" transform="translate(93 36)" fill="#fff" font-size="7" font-family="Ramabhadra"><tspan x="0" y="0">RESULT ANALYSIS</tspan></text>
    <g id="Group_156" data-name="Group 156" transform="translate(0 -13)">
      <rect id="Rectangle_140-2" data-name="Rectangle 140" width="53" height="6" transform="translate(32 20)" fill="#9c2b46"/>
      <rect id="Rectangle_149-2" data-name="Rectangle 149" width="13" height="6" transform="translate(32 20)" fill="#5df36c"/>
      <g id="Ellipse_633-2" data-name="Ellipse 633" transform="translate(22 16)" fill="#ffb400" stroke="#fff" stroke-width="1">
        <circle cx="6.5" cy="6.5" r="6.5" stroke="none"/>
        <circle cx="6.5" cy="6.5" r="6" fill="none"/>
      </g>
    </g>
    <g id="Group_157" data-name="Group 157" transform="translate(165 21)">
      <rect id="Rectangle_140-3" data-name="Rectangle 140" width="53" height="6" transform="translate(0 4)" fill="#9c2b46"/>
      <rect id="Rectangle_149-3" data-name="Rectangle 149" width="25" height="6" transform="translate(28 4)" fill="#5df36c"/>
      <g id="Ellipse_633-3" data-name="Ellipse 633" transform="translate(50)" fill="#da627d" stroke="#fff" stroke-width="1">
        <circle cx="6.5" cy="6.5" r="6.5" stroke="none"/>
        <circle cx="6.5" cy="6.5" r="6" fill="none"/>
      </g>
    </g>
    <g id="Group_158" data-name="Group 158" transform="translate(165 3)">
      <rect id="Rectangle_140-4" data-name="Rectangle 140" width="53" height="6" transform="translate(0 4)" fill="#9c2b46"/>
      <rect id="Rectangle_149-4" data-name="Rectangle 149" width="31" height="6" transform="translate(22 4)" fill="#5df36c"/>
      <g id="Ellipse_633-4" data-name="Ellipse 633" transform="translate(50)" fill="#2ca6a4" stroke="#fff" stroke-width="1">
        <circle cx="6.5" cy="6.5" r="6.5" stroke="none"/>
        <circle cx="6.5" cy="6.5" r="6" fill="none"/>
      </g>
    </g>
    <path id="Polygon_1" data-name="Polygon 1" d="M4,0,5,2.975l3,.081L5.618,4.975,6.472,8,4,6.211,1.528,8l.854-3.025L0,3.056l3-.081Z" transform="translate(24.5 5.5)" fill="#b98300"/>
    <g id="Group_4" data-name="Group 4" transform="translate(-1214.554 -624.317)">
      <path id="Path_23" data-name="Path 23" d="M1204.068,620.1s-1.995-.681-1.168.751c-2,0-.6,1.209-.6,1.209s.813.626,3.754.25C1206.174,621.225,1204.068,620.1,1204.068,620.1Z" transform="translate(37 29.699)" fill="#45711d"/>
      <path id="Path_25" data-name="Path 25" d="M2.247.162S.252-.519,1.079.913c-2,0-.6,1.21-.6,1.21s.813.626,3.754.25C4.353,1.288,2.247.162,2.247.162Z" transform="translate(1247.287 654.519) rotate(180)" fill="#45711d"/>
      <path id="Path_24" data-name="Path 24" d="M2.247.162S.252-.519,1.079.913c-2,0-.6,1.21-.6,1.21s.813.626,3.754.25C4.353,1.288,2.247.162,2.247.162Z" transform="translate(1245.547 647.817) rotate(90)" fill="#45711d"/>
      <path id="Path_26" data-name="Path 26" d="M2.247.162S.252-.519,1.079.913c-2,0-.6,1.21-.6,1.21s.813.626,3.754.25C4.353,1.288,2.247.162,2.247.162Z" transform="translate(1240.562 656.361) rotate(-90)" fill="#45711d"/>
    </g>
    <path id="Path_27" data-name="Path 27" d="M1952.645,650.882s-5.623,8.686,0,8.686S1952.645,650.882,1952.645,650.882Z" transform="translate(-1731.146 -645.554)" fill="#1d6a69"/>
    <path id="Path_28" data-name="Path 28" d="M2663.244,715.424c-1.792-3.135-3.552-1.738-2.967.336.463,1.642,2.967,3.919,2.967,3.919s2.417-2.081,2.912-3.919C2666.71,713.7,2665.006,712.056,2663.244,715.424Z" transform="translate(-2441.713 -688.235)" fill="#b7556b"/>
  </g>
</svg>
