<?xml version="1.0" encoding="UTF-8" standalone="no"?>
<svg
   width="500"
   height="100"
   viewBox="0 0 500 100"
   version="1.1"
   id="svg60"
   sodipodi:docname="trinity_site_display_screen.svg"
   inkscape:version="1.1.1 (3bf5ae0d25, 2021-09-20)"
   xmlns:inkscape="http://www.inkscape.org/namespaces/inkscape"
   xmlns:sodipodi="http://sodipodi.sourceforge.net/DTD/sodipodi-0.dtd"
   xmlns="http://www.w3.org/2000/svg"
   xmlns:svg="http://www.w3.org/2000/svg">
  <sodipodi:namedview
     id="namedview62"
     pagecolor="#505050"
     bordercolor="#ffffff"
     borderopacity="1"
     inkscape:pageshadow="0"
     inkscape:pageopacity="0"
     inkscape:pagecheckerboard="1"
     showgrid="false"
     inkscape:zoom="1.223"
     inkscape:cx="47.833197"
     inkscape:cy="-125.51104"
     inkscape:window-width="1920"
     inkscape:window-height="1007"
     inkscape:window-x="1920"
     inkscape:window-y="44"
     inkscape:window-maximized="1"
     inkscape:current-layer="svg60" />
  <defs
     id="defs5">
    <clipPath
       id="clip-trinity_site_display_screen">
      <rect
         width="250"
         height="45"
         id="rect2"
         x="0"
         y="0" />
    </clipPath>
  </defs>
  <g
     id="trinity_site_display_screen"
     clip-path="url(#clip-trinity_site_display_screen)"
     transform="scale(1.8)">
    <g
       id="Group_159"
       data-name="Group 159">
      <g
         id="Rectangle_148"
         data-name="Rectangle 148"
         transform="translate(0,-5)"
         fill="#4358aa"
         stroke="#556ece"
         stroke-width="4">
        <path
           d="M 0,0 H 250 V 5 A 45,45 0 0 1 205,50 H 45 A 45,45 0 0 1 0,5 Z"
           stroke="none"
           id="path7" />
        <path
           d="m 4,2 h 242 a 2,2 0 0 1 2,2 V 5 A 43,43 0 0 1 205,48 H 45 A 43,43 0 0 1 2,5 V 4 A 2,2 0 0 1 4,2 Z"
           fill="none"
           id="path9" />
      </g>
      <text
         id="_00:15"
         data-name="00:15"
         transform="translate(89,24)"
         fill="#ffffff"
         font-size="28px"
         font-family="Ramabhadra"><tspan
           x="0"
           y="0"
           id="tspan12">00:15</tspan></text>
      <g
         id="Group_155"
         data-name="Group 155"
         transform="translate(0,5)">
        <rect
           id="Rectangle_140"
           data-name="Rectangle 140"
           width="53"
           height="6"
           transform="translate(32,20)"
           fill="#9c2b46"
           x="0"
           y="0" />
        <rect
           id="Rectangle_149"
           data-name="Rectangle 149"
           width="39"
           height="6"
           transform="translate(32,20)"
           fill="#5df36c"
           x="0"
           y="0" />
        <g
           id="Ellipse_633"
           data-name="Ellipse 633"
           transform="translate(22,16)"
           fill="#60992d"
           stroke="#ffffff"
           stroke-width="1">
          <circle
             cx="6.5"
             cy="6.5"
             r="6.5"
             stroke="none"
             id="circle17" />
          <circle
             cx="6.5"
             cy="6.5"
             r="6"
             fill="none"
             id="circle19" />
        </g>
      </g>
      <text
         id="MOVEMENT_PHASE"
         data-name="MOVEMENT PHASE"
         transform="translate(92,36)"
         fill="#ffffff"
         font-size="7px"
         font-family="Ramabhadra"><tspan
           x="0"
           y="0"
           id="tspan23">MOVEMENT PHASE</tspan></text>
      <g
         id="Group_156"
         data-name="Group 156"
         transform="translate(0,-13)">
        <rect
           id="Rectangle_140-2"
           data-name="Rectangle 140"
           width="53"
           height="6"
           transform="translate(32,20)"
           fill="#9c2b46"
           x="0"
           y="0" />
        <rect
           id="Rectangle_149-2"
           data-name="Rectangle 149"
           width="34"
           height="6"
           transform="translate(32,20)"
           fill="#5df36c"
           x="0"
           y="0" />
        <g
           id="Ellipse_633-2"
           data-name="Ellipse 633"
           transform="translate(22,16)"
           fill="#ffb400"
           stroke="#ffffff"
           stroke-width="1">
          <circle
             cx="6.5"
             cy="6.5"
             r="6.5"
             stroke="none"
             id="circle28" />
          <circle
             cx="6.5"
             cy="6.5"
             r="6"
             fill="none"
             id="circle30" />
        </g>
      </g>
      <g
         id="Group_157"
         data-name="Group 157"
         transform="translate(165,21)">
        <rect
           id="Rectangle_140-3"
           data-name="Rectangle 140"
           width="53"
           height="6"
           transform="translate(0,4)"
           fill="#9c2b46"
           x="0"
           y="0" />
        <rect
           id="Rectangle_149-3"
           data-name="Rectangle 149"
           width="40"
           height="6"
           transform="translate(13,4)"
           fill="#5df36c"
           x="0"
           y="0" />
        <g
           id="Ellipse_633-3"
           data-name="Ellipse 633"
           transform="translate(50)"
           fill="#da627d"
           stroke="#ffffff"
           stroke-width="1">
          <circle
             cx="6.5"
             cy="6.5"
             r="6.5"
             stroke="none"
             id="circle36" />
          <circle
             cx="6.5"
             cy="6.5"
             r="6"
             fill="none"
             id="circle38" />
        </g>
      </g>
      <g
         id="Group_158"
         data-name="Group 158"
         transform="translate(165,3)">
        <rect
           id="Rectangle_140-4"
           data-name="Rectangle 140"
           width="53"
           height="6"
           transform="translate(0,4)"
           fill="#9c2b46"
           x="0"
           y="0" />
        <rect
           id="Rectangle_149-4"
           data-name="Rectangle 149"
           width="31"
           height="6"
           transform="translate(22,4)"
           fill="#5df36c"
           x="0"
           y="0" />
        <g
           id="Ellipse_633-4"
           data-name="Ellipse 633"
           transform="translate(50)"
           fill="#2ca6a4"
           stroke="#ffffff"
           stroke-width="1">
          <circle
             cx="6.5"
             cy="6.5"
             r="6.5"
             stroke="none"
             id="circle44" />
          <circle
             cx="6.5"
             cy="6.5"
             r="6"
             fill="none"
             id="circle46" />
        </g>
      </g>
      <path
         id="Polygon_1"
         data-name="Polygon 1"
         d="M 4,0 5,2.975 8,3.056 5.618,4.975 6.472,8 4,6.211 1.528,8 2.382,4.975 0,3.056 3,2.975 Z"
         transform="translate(24.5,5.5)"
         fill="#b98300" />
      <g
         id="Group_4"
         data-name="Group 4"
         transform="translate(-1214.554,-624.317)">
        <path
           id="Path_23"
           data-name="Path 23"
           d="m 1204.068,620.1 c 0,0 -1.995,-0.681 -1.168,0.751 -2,0 -0.6,1.209 -0.6,1.209 0,0 0.813,0.626 3.754,0.25 0.12,-1.085 -1.986,-2.21 -1.986,-2.21 z"
           transform="translate(37,29.699)"
           fill="#45711d" />
        <path
           id="Path_25"
           data-name="Path 25"
           d="m 2.247,0.162 c 0,0 -1.995,-0.681 -1.168,0.751 -2,0 -0.6,1.21 -0.6,1.21 0,0 0.813,0.626 3.754,0.25 C 4.353,1.288 2.247,0.162 2.247,0.162 Z"
           transform="rotate(180,623.6435,327.2595)"
           fill="#45711d" />
        <path
           id="Path_24"
           data-name="Path 24"
           d="m 2.247,0.162 c 0,0 -1.995,-0.681 -1.168,0.751 -2,0 -0.6,1.21 -0.6,1.21 0,0 0.813,0.626 3.754,0.25 C 4.353,1.288 2.247,0.162 2.247,0.162 Z"
           transform="rotate(90,298.865,946.682)"
           fill="#45711d" />
        <path
           id="Path_26"
           data-name="Path 26"
           d="m 2.247,0.162 c 0,0 -1.995,-0.681 -1.168,0.751 -2,0 -0.6,1.21 -0.6,1.21 0,0 0.813,0.626 3.754,0.25 C 4.353,1.288 2.247,0.162 2.247,0.162 Z"
           transform="rotate(-90,948.4615,-292.1005)"
           fill="#45711d" />
      </g>
      <path
         id="Path_27"
         data-name="Path 27"
         d="m 1952.645,650.882 c 0,0 -5.623,8.686 0,8.686 5.623,0 0,-8.686 0,-8.686 z"
         transform="translate(-1731.146,-645.554)"
         fill="#1d6a69" />
      <path
         id="Path_28"
         data-name="Path 28"
         d="m 2663.244,715.424 c -1.792,-3.135 -3.552,-1.738 -2.967,0.336 0.463,1.642 2.967,3.919 2.967,3.919 0,0 2.417,-2.081 2.912,-3.919 0.554,-2.06 -1.15,-3.704 -2.912,-0.336 z"
         transform="translate(-2441.713,-688.235)"
         fill="#b7556b" />
    </g>
  </g>
</svg>
