<svg xmlns="http://www.w3.org/2000/svg" xmlns:xlink="http://www.w3.org/1999/xlink" width="150" height="60" viewBox="0 0 150 60">
  <defs>
    <clipPath id="clip-Player-character-bullet">
      <rect width="150" height="60"/>
    </clipPath>
  </defs>
  <g id="Player-character-bullet" clip-path="url(#clip-Player-character-bullet)">
    <path id="Path_4" data-name="Path 4" d="M0,60" transform="translate(85.5)" fill="none" stroke="#202020" stroke-width="10"/>
    <path id="Subtraction_2" data-name="Subtraction 2" d="M40-674H25a14.9,14.9,0,0,1-10.607-4.393A14.9,14.9,0,0,1,10-689v-5a14.9,14.9,0,0,1,4.393-10.607A14.9,14.9,0,0,1,25-709H40a1.988,1.988,0,0,0,.587,1.414A1.987,1.987,0,0,0,42-707h1a2,2,0,0,0,2-2H75a5.006,5.006,0,0,1,5,5v25a5.006,5.006,0,0,1-5,5H45a1.988,1.988,0,0,0-.587-1.414A1.986,1.986,0,0,0,43-676H42a2,2,0,0,0-2,2Z" transform="translate(0 722)" fill="#575757"/>
    <path id="Intersection_7" data-name="Intersection 7" d="M40-676H36.275l-1.338-2.684C44.189-683.3,68.2-698.092,68.2-710.924h6c0,14.079-18.955,27.376-29.6,33.732a2.049,2.049,0,0,0-.191-.221A1.985,1.985,0,0,0,43-678H42a2,2,0,0,0-2,2h0Z" transform="translate(0 724)" fill="#484848"/>
    <path id="Intersection_6" data-name="Intersection 6" d="M68.2-673.391c0-12.85-24.012-27.628-33.263-32.239l1.376-2.761H40a1.99,1.99,0,0,0,.587,1.414,1.987,1.987,0,0,0,1.414.586h1a2,2,0,0,0,1.564-.754C55.2-700.8,74.2-687.487,74.2-673.391Z" transform="translate(0 721.39)" fill="#484848"/>
    <path id="Subtraction_6" data-name="Subtraction 6" d="M36.164-668H25a14.9,14.9,0,0,1-10.607-4.394A14.9,14.9,0,0,1,10-683v-5a14.9,14.9,0,0,1,4.394-10.607A14.9,14.9,0,0,1,25-703H36.183c.347,4.261,1.1,11.1,2.067,16.35-.979,6-1.736,13.8-2.086,18.65Z" transform="translate(0 716)" fill="#3a3a3a"/>
    <path id="Intersection_5" data-name="Intersection 5" d="M14.521-680.267c6.734-12.3,1.1-23.685-.3-26.162q.086-.089.174-.177a14.942,14.942,0,0,1,5.734-3.588c1.674,2.871,9.3,17.57.4,33.521A14.921,14.921,0,0,1,14.521-680.267Z" transform="translate(0 724)" fill="#313131"/>
    <path id="Path_7" data-name="Path 7" d="M70,733.88s9.053-20.033,26.932,0c5.385,6.247,32.957,7.108,39.634,9.047-1.939.646-37.48-1.077-39.634,7.324-9.478,17.448-26.932,0-26.932,0Z" transform="translate(10 -711)" fill="#96effe"/>
    <path id="Path_8" data-name="Path 8" d="M70,731.862s7-15.492,20.827,0c4.164,4.831,30.977,5.241,36.141,6.74-1.5.5-34.475-.577-36.141,5.92-7.329,13.493-20.827,0-20.827,0Z" transform="translate(10 -707.21)" fill="#b1efff"/>
    <path id="Path_9" data-name="Path 9" d="M70,729.554s4.654-10.3,13.845,0c2.768,3.211,31.552,3.28,34.984,4.277-1,.332-33.877-.18-34.984,4.139-4.872,8.97-13.845,0-13.845,0Z" transform="translate(10 -702.929)" fill="#e8feff"/>
    <path id="Path_10" data-name="Path 10" d="M70,726.843s1.9-4.2,5.644,0c1.129,1.309,12.863,1.337,14.262,1.744-.406.135-13.811-.073-14.262,1.687-1.986,3.657-5.644,0-5.644,0Z" transform="translate(10 -698.438)" fill="#fff"/>
  </g>
</svg>
