<svg xmlns="http://www.w3.org/2000/svg" xmlns:xlink="http://www.w3.org/1999/xlink" width="45" height="45" viewBox="0 0 45 45">
  <defs>
    <filter id="Path_331" x="-9" y="-6" width="63" height="63" filterUnits="userSpaceOnUse">
      <feOffset dy="3" input="SourceAlpha"/>
      <feGaussianBlur stdDeviation="3" result="blur"/>
      <feFlood flood-opacity="0.161"/>
      <feComposite operator="in" in2="blur"/>
      <feComposite in="SourceGraphic"/>
    </filter>
    <filter id="Rectangle_142" x="-4" y="29" width="53" height="28" filterUnits="userSpaceOnUse">
      <feOffset dy="3" input="SourceAlpha"/>
      <feGaussianBlur stdDeviation="3" result="blur-2"/>
      <feFlood flood-opacity="0.161"/>
      <feComposite operator="in" in2="blur-2"/>
      <feComposite in="SourceGraphic"/>
    </filter>
    <clipPath id="clip-trinity_site_input_button_4">
      <rect width="45" height="45"/>
    </clipPath>
  </defs>
  <g id="trinity_site_input_button_4" clip-path="url(#clip-trinity_site_input_button_4)">
    <g id="Group_150" data-name="Group 150">
      <g transform="matrix(1, 0, 0, 1, 0, 0)" filter="url(#Path_331)">
        <g id="Path_331-2" data-name="Path 331" fill="#556ece">
          <path d="M 22.5 44 C 19.59708023071289 44 16.78152084350586 43.43167877197266 14.13154029846191 42.31082916259766 C 11.57145023345947 41.22800827026367 9.272049903869629 39.67763900756836 7.297200202941895 37.70280075073242 C 5.322360038757324 35.72795104980469 3.771990060806274 33.42855072021484 2.689169883728027 30.86845970153809 C 1.568320035934448 28.21847915649414 1 25.40291976928711 1 22.5 C 1 19.59708023071289 1.568320035934448 16.78152084350586 2.689169883728027 14.13154029846191 C 3.771990060806274 11.57145023345947 5.322360038757324 9.272049903869629 7.297200202941895 7.297200202941895 C 9.272049903869629 5.322360038757324 11.57145023345947 3.771990060806274 14.13154029846191 2.689169883728027 C 16.78152084350586 1.568320035934448 19.59708023071289 1 22.5 1 C 25.40291976928711 1 28.21847915649414 1.568320035934448 30.86845970153809 2.689169883728027 C 33.42855072021484 3.771990060806274 35.72795104980469 5.322360038757324 37.70280075073242 7.297200202941895 C 39.67763900756836 9.272049903869629 41.22800827026367 11.57145023345947 42.31082916259766 14.13154029846191 C 43.43167877197266 16.78152084350586 44 19.59708023071289 44 22.5 C 44 28.67001914978027 41.39635848999023 34.41313934326172 36.668701171875 38.67140960693359 C 34.83676910400391 40.32368850708008 32.70000839233398 41.6280403137207 30.31727981567383 42.54867935180664 C 27.82485961914062 43.51171112060547 25.19474983215332 44 22.5 44 Z" stroke="none"/>
          <path d="M 22.5 2 C 19.73163986206055 2 17.04714012145996 2.541740417480469 14.52108955383301 3.61016845703125 C 12.0802001953125 4.642578125 9.887641906738281 6.120979309082031 8.004310607910156 8.004310607910156 C 6.120979309082031 9.887641906738281 4.642578125 12.0802001953125 3.61016845703125 14.52108955383301 C 2.541740417480469 17.04714012145996 2 19.73163986206055 2 22.5 C 2 25.26836013793945 2.541740417480469 27.95285987854004 3.61016845703125 30.47891044616699 C 4.642578125 32.9197998046875 6.120979309082031 35.11235809326172 8.004310607910156 36.99568939208984 C 9.887641906738281 38.87902069091797 12.0802001953125 40.357421875 14.52108955383301 41.38983154296875 C 17.04714012145996 42.45825958251953 19.73163986206055 43 22.5 43 C 25.07101058959961 43 27.57986068725586 42.53432083129883 29.95687103271484 41.61589050292969 C 32.22531127929688 40.73941040039062 34.25798797607422 39.49905014038086 35.99943923950195 37.92837905883789 C 40.51382064819336 33.86222076416016 43 28.38298034667969 43 22.5 C 43 19.73163986206055 42.45825958251953 17.04714012145996 41.38983154296875 14.52108955383301 C 40.357421875 12.0802001953125 38.87902069091797 9.887641906738281 36.99568939208984 8.004310607910156 C 35.11235809326172 6.120979309082031 32.9197998046875 4.642578125 30.47891044616699 3.61016845703125 C 27.95285987854004 2.541740417480469 25.26836013793945 2 22.5 2 M 22.5 0 C 34.92641067504883 0 45 10.07358932495117 45 22.5 C 45 29.13570022583008 42.12744903564453 35.10047912597656 37.33795928955078 39.4144401550293 C 33.57048034667969 42.81246185302734 28.29071044921875 45 22.5 45 C 10.07358932495117 45 0 34.92641067504883 0 22.5 C 0 10.07358932495117 10.07358932495117 0 22.5 0 Z" stroke="none" fill="#fff"/>
        </g>
      </g>
      <g transform="matrix(1, 0, 0, 1, 0, 0)" filter="url(#Rectangle_142)">
        <path id="Rectangle_142-2" data-name="Rectangle 142" d="M5,0H35a0,0,0,0,1,0,0V5a5,5,0,0,1-5,5H0a0,0,0,0,1,0,0V5A5,5,0,0,1,5,0Z" transform="translate(5 35)" fill="#fff"/>
      </g>
      <text id="SIN" transform="translate(19 42)" font-size="5" font-family="Ramabhadra"><tspan x="0" y="0">SIN</tspan></text>
      <path id="Path_329" data-name="Path 329" d="M1795,904.946s6.789-18.456,13.338,0c8.374,18.429,12.316.268,12.389,0" transform="translate(-1785.364 -882.47)" fill="none" stroke="#fff" stroke-width="2" stroke-dasharray="2"/>
    </g>
  </g>
</svg>
