<svg xmlns="http://www.w3.org/2000/svg" xmlns:xlink="http://www.w3.org/1999/xlink" width="45" height="45" viewBox="0 0 45 45">
  <defs>
    <filter id="Ellipse_632" x="-9" y="-6" width="63" height="63" filterUnits="userSpaceOnUse">
      <feOffset dy="3" input="SourceAlpha"/>
      <feGaussianBlur stdDeviation="3" result="blur"/>
      <feFlood flood-opacity="0.161"/>
      <feComposite operator="in" in2="blur"/>
      <feComposite in="SourceGraphic"/>
    </filter>
    <filter id="Rectangle_142" x="-4" y="29" width="53" height="28" filterUnits="userSpaceOnUse">
      <feOffset dy="3" input="SourceAlpha"/>
      <feGaussianBlur stdDeviation="3" result="blur-2"/>
      <feFlood flood-opacity="0.161"/>
      <feComposite operator="in" in2="blur-2"/>
      <feComposite in="SourceGraphic"/>
    </filter>
    <clipPath id="clip-trinity_site_input_button_4_active">
      <rect width="45" height="45"/>
    </clipPath>
  </defs>
  <g id="trinity_site_input_button_4_active" clip-path="url(#clip-trinity_site_input_button_4_active)">
    <g id="Group_154" data-name="Group 154">
      <g transform="matrix(1, 0, 0, 1, 0, 0)" filter="url(#Ellipse_632)">
        <g id="Ellipse_632-2" data-name="Ellipse 632" fill="#3e66ff" stroke="#fff" stroke-width="2">
          <circle cx="22.5" cy="22.5" r="22.5" stroke="none"/>
          <circle cx="22.5" cy="22.5" r="21.5" fill="none"/>
        </g>
      </g>
      <g transform="matrix(1, 0, 0, 1, 0, 0)" filter="url(#Rectangle_142)">
        <path id="Rectangle_142-2" data-name="Rectangle 142" d="M5,0H35a0,0,0,0,1,0,0V5a5,5,0,0,1-5,5H0a0,0,0,0,1,0,0V5A5,5,0,0,1,5,0Z" transform="translate(5 35)" fill="#fff"/>
      </g>
      <text id="SIN" transform="translate(19 42)" font-size="5" font-family="Ramabhadra"><tspan x="0" y="0">SIN</tspan></text>
      <path id="Path_329" data-name="Path 329" d="M1795,904.946s6.789-18.456,13.338,0c8.374,18.429,12.316.268,12.389,0" transform="translate(-1785.364 -882.47)" fill="none" stroke="#fff" stroke-width="2" stroke-dasharray="2"/>
    </g>
  </g>
</svg>
