<svg xmlns="http://www.w3.org/2000/svg" xmlns:xlink="http://www.w3.org/1999/xlink" width="200" height="65" viewBox="0 0 200 65">
  <defs>
    <filter id="Path_330" x="10.5" y="8.5" width="53.812" height="53.812" filterUnits="userSpaceOnUse">
      <feOffset dy="3" input="SourceAlpha"/>
      <feGaussianBlur stdDeviation="3" result="blur"/>
      <feFlood flood-opacity="0.161"/>
      <feComposite operator="in" in2="blur"/>
      <feComposite in="SourceGraphic"/>
    </filter>
    <filter id="Rectangle_142" x="14.5" y="36.5" width="46" height="26" filterUnits="userSpaceOnUse">
      <feOffset dy="3" input="SourceAlpha"/>
      <feGaussianBlur stdDeviation="3" result="blur-2"/>
      <feFlood flood-opacity="0.161"/>
      <feComposite operator="in" in2="blur-2"/>
      <feComposite in="SourceGraphic"/>
    </filter>
    <clipPath id="clip-trinity_site_display_input">
      <rect width="200" height="65"/>
    </clipPath>
  </defs>
  <g id="trinity_site_display_input" clip-path="url(#clip-trinity_site_display_input)">
    <g id="Rectangle_150" data-name="Rectangle 150" fill="#4358aa" stroke="#556ece" stroke-width="4">
      <rect width="200" height="65" rx="30" stroke="none"/>
      <rect x="2" y="2" width="196" height="61" rx="28" fill="none"/>
    </g>
    <g id="Group_152" data-name="Group 152" transform="translate(19.5 14.5)">
      <g transform="matrix(1, 0, 0, 1, -19.5, -14.5)" filter="url(#Path_330)">
        <g id="Path_330-2" data-name="Path 330" transform="translate(19.5 14.5)" fill="#3e66ff">
          <path d="M 17.9058837890625 34.81176376342773 C 13.3901538848877 34.81176376342773 9.144713401794434 33.05324554443359 5.951623916625977 29.86014366149902 C 2.75852370262146 26.66705322265625 1.000003814697266 22.4216136932373 1.000003814697266 17.9058837890625 C 1.000003814697266 13.3901538848877 2.75852370262146 9.144713401794434 5.951623916625977 5.951623916625977 C 9.144713401794434 2.75852370262146 13.3901538848877 1.000003814697266 17.9058837890625 1.000003814697266 C 22.4216136932373 1.000003814697266 26.66705322265625 2.75852370262146 29.86014366149902 5.951623916625977 C 33.05324554443359 9.144713401794434 34.81176376342773 13.3901538848877 34.81176376342773 17.9058837890625 C 34.81176376342773 22.4216136932373 33.05324554443359 26.66705322265625 29.86014366149902 29.86014366149902 C 26.66705322265625 33.05324554443359 22.4216136932373 34.81176376342773 17.9058837890625 34.81176376342773 Z" stroke="none"/>
          <path d="M 17.9058837890625 2.000003814697266 C 13.65726470947266 2.000003814697266 9.662954330444336 3.654502868652344 6.658723831176758 6.658723831176758 C 3.654502868652344 9.662954330444336 2.000003814697266 13.65726470947266 2.000003814697266 17.9058837890625 C 2.000003814697266 22.15450286865234 3.654502868652344 26.1488151550293 6.658723831176758 29.15304374694824 C 9.662954330444336 32.15726470947266 13.65726470947266 33.81176376342773 17.9058837890625 33.81176376342773 C 22.15450286865234 33.81176376342773 26.1488151550293 32.15726470947266 29.15304374694824 29.15304374694824 C 32.15726470947266 26.1488151550293 33.81176376342773 22.15450286865234 33.81176376342773 17.9058837890625 C 33.81176376342773 13.65726470947266 32.15726470947266 9.662954330444336 29.15304374694824 6.658723831176758 C 26.1488151550293 3.654502868652344 22.15450286865234 2.000003814697266 17.9058837890625 2.000003814697266 M 17.9058837890625 3.814697265625e-06 C 27.7950325012207 3.814697265625e-06 35.81176376342773 8.016733169555664 35.81176376342773 17.9058837890625 C 35.81176376342773 27.7950325012207 27.7950325012207 35.81176376342773 17.9058837890625 35.81176376342773 C 8.016733169555664 35.81176376342773 3.814697265625e-06 27.7950325012207 3.814697265625e-06 17.9058837890625 C 3.814697265625e-06 8.016733169555664 8.016733169555664 3.814697265625e-06 17.9058837890625 3.814697265625e-06 Z" stroke="none" fill="#fff"/>
        </g>
      </g>
      <g transform="matrix(1, 0, 0, 1, -19.5, -14.5)" filter="url(#Rectangle_142)">
        <path id="Rectangle_142-2" data-name="Rectangle 142" d="M5,0H28a0,0,0,0,1,0,0V3a5,5,0,0,1-5,5H0A0,0,0,0,1,0,8V5A5,5,0,0,1,5,0Z" transform="translate(23.5 42.5)" fill="#fff"/>
      </g>
      <text id="PARABOL" transform="translate(8 33)" font-size="4" font-family="Ramabhadra"><tspan x="0" y="0">PARABOL</tspan></text>
      <path id="Path_329" data-name="Path 329" d="M1795,900.968s6.537-34.884,15.885,0" transform="translate(-1785.037 -877.932)" fill="none" stroke="#fff" stroke-width="2" stroke-dasharray="2"/>
    </g>
    <g id="Group_137" data-name="Group 137" transform="translate(-1073.5 -4.5)">
      <text id="Active_formula" data-name="Active formula" transform="translate(1172 18)" fill="#fff" font-size="7" font-family="ArchivoBlack-Regular, Archivo"><tspan x="0" y="0">Active formula</tspan></text>
      <text id="y_x2_x_" data-name="y=   x2+   x+  " transform="translate(1137 33)" fill="#fff" font-size="14" font-family="Consolas-Bold, Consolas" font-weight="700"><tspan x="0" y="0" xml:space="preserve">y=   x</tspan><tspan y="0" font-size="8.166" baseline-shift="4.666199819518059">2</tspan><tspan y="0" xml:space="preserve">+   x+  </tspan></text>
      <rect id="Rectangle_123" data-name="Rectangle 123" width="17" height="17" transform="translate(1155 19)" fill="#556ece"/>
      <rect id="Rectangle_124" data-name="Rectangle 124" width="18" height="17" transform="translate(1235 20)" fill="#556ece"/>
      <rect id="Rectangle_125" data-name="Rectangle 125" width="18" height="17" transform="translate(1198 20)" fill="#556ece"/>
    </g>
    <path id="Rectangle_151" data-name="Rectangle 151" d="M10,0H50a0,0,0,0,1,0,0V5A10,10,0,0,1,40,15H0a0,0,0,0,1,0,0V10A10,10,0,0,1,10,0Z" transform="translate(67 38)" fill="#46bc51"/>
    <path id="Rectangle_152" data-name="Rectangle 152" d="M10,0H50a0,0,0,0,1,0,0V5A10,10,0,0,1,40,15H0a0,0,0,0,1,0,0V10A10,10,0,0,1,10,0Z" transform="translate(127 38)" fill="#b17474"/>
    <text id="Ready" transform="translate(75 49)" fill="#fff" font-size="10" font-family="ArchivoBlack-Regular, Archivo"><tspan x="0" y="0">Ready</tspan></text>
    <text id="Skip" transform="translate(140 49)" fill="#fff" font-size="10" font-family="ArchivoBlack-Regular, Archivo"><tspan x="0" y="0">Skip</tspan></text>
  </g>
</svg>
